<?xml version="1.0" encoding="utf-8" standalone="no"?>
<!DOCTYPE svg PUBLIC "-//W3C//DTD SVG 1.1//EN"
  "http://www.w3.org/Graphics/SVG/1.1/DTD/svg11.dtd">
<svg xmlns:xlink="http://www.w3.org/1999/xlink" width="504pt" height="216pt" viewBox="0 0 504 216" xmlns="http://www.w3.org/2000/svg" version="1.1">
 <metadata>
  <rdf:RDF xmlns:dc="http://purl.org/dc/elements/1.1/" xmlns:cc="http://creativecommons.org/ns#" xmlns:rdf="http://www.w3.org/1999/02/22-rdf-syntax-ns#">
   <cc:Work>
    <dc:type rdf:resource="http://purl.org/dc/dcmitype/StillImage"/>
    <dc:date>2024-01-15T21:02:12.041138</dc:date>
    <dc:format>image/svg+xml</dc:format>
    <dc:creator>
     <cc:Agent>
      <dc:title>Matplotlib v3.8.2, https://matplotlib.org/</dc:title>
     </cc:Agent>
    </dc:creator>
   </cc:Work>
  </rdf:RDF>
 </metadata>
 <defs>
  <style type="text/css">*{stroke-linejoin: round; stroke-linecap: butt}</style>
 </defs>
 <g id="figure_1">
  <g id="patch_1">
   <path d="M 0 216 
L 504 216 
L 504 0 
L 0 0 
z
" style="fill: #ffffff"/>
  </g>
  <g id="axes_1">
   <g id="patch_2">
    <path d="M 42.59 175.48 
L 246.6 175.48 
L 246.6 24.72 
L 42.59 24.72 
z
" style="fill: #ffffff"/>
   </g>
   <g id="matplotlib.axis_1">
    <g id="xtick_1">
     <g id="line2d_1">
      <defs>
       <path id="m3646f7c18b" d="M 0 0 
L 0 3.5 
" style="stroke: #000000; stroke-width: 0.8"/>
      </defs>
      <g>
       <use xlink:href="#m3646f7c18b" x="51.863182" y="175.48" style="stroke: #000000; stroke-width: 0.8"/>
      </g>
     </g>
     <g id="text_1">
      <!-- 0 -->
      <g transform="translate(49.538182 189.459688) scale(0.1 -0.1)">
       <defs>
        <path id="LibertinusSerif-Regular-30" d="M 1459 -64 
C 1952 -64 2701 435 2701 1939 
C 2701 2573 2547 3117 2266 3488 
C 2099 3712 1830 3904 1485 3904 
C 851 3904 250 3149 250 1882 
C 250 1197 461 557 813 205 
C 992 26 1210 -64 1459 -64 
z
M 1485 3680 
C 1594 3680 1696 3642 1773 3571 
C 1971 3405 2144 2918 2144 2061 
C 2144 1472 2125 1069 2035 742 
C 1894 218 1581 160 1466 160 
C 870 160 806 1254 806 1811 
C 806 3386 1197 3680 1485 3680 
z
" transform="scale(0.015625)"/>
       </defs>
       <use xlink:href="#LibertinusSerif-Regular-30"/>
      </g>
     </g>
    </g>
    <g id="xtick_2">
     <g id="line2d_2">
      <g>
       <use xlink:href="#m3646f7c18b" x="90.501439" y="175.48" style="stroke: #000000; stroke-width: 0.8"/>
      </g>
     </g>
     <g id="text_2">
      <!-- 5 -->
      <g transform="translate(88.176439 189.459688) scale(0.1 -0.1)">
       <defs>
        <path id="LibertinusSerif-Regular-35" d="M 2042 1210 
C 2042 602 1722 154 1338 154 
C 1094 154 1011 314 915 442 
C 832 550 723 646 589 646 
C 467 646 346 538 346 410 
C 346 147 890 -70 1254 -70 
C 2048 -70 2611 518 2611 1325 
C 2611 1946 2182 2502 1466 2502 
C 1190 2502 954 2445 838 2400 
L 966 3469 
C 1203 3443 1408 3411 1715 3411 
C 1907 3411 2125 3424 2387 3450 
L 2490 3885 
L 2445 3910 
C 2080 3872 1734 3840 1395 3840 
C 1158 3840 928 3853 704 3872 
L 486 2029 
C 826 2157 1069 2182 1299 2182 
C 1715 2182 2042 1907 2042 1210 
z
" transform="scale(0.015625)"/>
       </defs>
       <use xlink:href="#LibertinusSerif-Regular-35"/>
      </g>
     </g>
    </g>
    <g id="xtick_3">
     <g id="line2d_3">
      <g>
       <use xlink:href="#m3646f7c18b" x="129.139697" y="175.48" style="stroke: #000000; stroke-width: 0.8"/>
      </g>
     </g>
     <g id="text_3">
      <!-- 10 -->
      <g transform="translate(124.489697 189.459688) scale(0.1 -0.1)">
       <defs>
        <path id="LibertinusSerif-Regular-31" d="M 1843 781 
L 1843 3002 
C 1843 3386 1850 3776 1862 3859 
C 1862 3891 1850 3891 1824 3891 
C 1472 3674 1133 3514 570 3251 
C 582 3181 608 3117 666 3078 
C 960 3200 1101 3238 1222 3238 
C 1331 3238 1350 3085 1350 2867 
L 1350 781 
C 1350 250 1178 218 730 198 
C 691 160 691 26 730 -13 
C 1043 -6 1274 0 1619 0 
C 1926 0 2080 -6 2400 -13 
C 2438 26 2438 160 2400 198 
C 1952 218 1843 250 1843 781 
z
" transform="scale(0.015625)"/>
       </defs>
       <use xlink:href="#LibertinusSerif-Regular-31"/>
       <use xlink:href="#LibertinusSerif-Regular-30" x="46.499985"/>
      </g>
     </g>
    </g>
    <g id="xtick_4">
     <g id="line2d_4">
      <g>
       <use xlink:href="#m3646f7c18b" x="167.777955" y="175.48" style="stroke: #000000; stroke-width: 0.8"/>
      </g>
     </g>
     <g id="text_4">
      <!-- 15 -->
      <g transform="translate(163.127955 189.459688) scale(0.1 -0.1)">
       <use xlink:href="#LibertinusSerif-Regular-31"/>
       <use xlink:href="#LibertinusSerif-Regular-35" x="46.499985"/>
      </g>
     </g>
    </g>
    <g id="xtick_5">
     <g id="line2d_5">
      <g>
       <use xlink:href="#m3646f7c18b" x="206.416212" y="175.48" style="stroke: #000000; stroke-width: 0.8"/>
      </g>
     </g>
     <g id="text_5">
      <!-- 20 -->
      <g transform="translate(201.766212 189.459688) scale(0.1 -0.1)">
       <defs>
        <path id="LibertinusSerif-Regular-32" d="M 390 2995 
C 390 2861 512 2746 646 2746 
C 755 2746 947 2861 947 3002 
C 947 3053 934 3091 922 3136 
C 909 3181 870 3238 870 3290 
C 870 3450 1037 3680 1504 3680 
C 1734 3680 2061 3520 2061 2906 
C 2061 2496 1914 2163 1536 1779 
L 1062 1312 
C 435 672 333 365 333 -13 
C 333 -13 659 0 864 0 
L 1984 0 
C 2189 0 2483 -13 2483 -13 
C 2566 326 2630 806 2637 998 
C 2598 1030 2515 1043 2451 1030 
C 2342 576 2234 416 2003 416 
L 864 416 
C 864 723 1306 1158 1338 1190 
L 1984 1811 
C 2349 2163 2624 2445 2624 2931 
C 2624 3622 2061 3904 1542 3904 
C 832 3904 390 3379 390 2995 
z
" transform="scale(0.015625)"/>
       </defs>
       <use xlink:href="#LibertinusSerif-Regular-32"/>
       <use xlink:href="#LibertinusSerif-Regular-30" x="46.499985"/>
      </g>
     </g>
    </g>
    <g id="xtick_6">
     <g id="line2d_6">
      <g>
       <use xlink:href="#m3646f7c18b" x="245.05447" y="175.48" style="stroke: #000000; stroke-width: 0.8"/>
      </g>
     </g>
     <g id="text_6">
      <!-- 25 -->
      <g transform="translate(240.40447 189.459688) scale(0.1 -0.1)">
       <use xlink:href="#LibertinusSerif-Regular-32"/>
       <use xlink:href="#LibertinusSerif-Regular-35" x="46.499985"/>
      </g>
     </g>
    </g>
    <g id="text_7">
     <!-- Epoch -->
     <g transform="translate(131.864531 202.78) scale(0.1 -0.1)">
      <defs>
       <path id="LibertinusSerif-Regular-45" d="M 1798 2310 
L 1216 2310 
L 1216 3462 
C 1216 3744 1293 3872 1638 3872 
L 2118 3872 
C 2598 3872 2701 3616 2842 3174 
C 2918 3162 2989 3174 3053 3206 
C 3021 3469 2925 4083 2912 4134 
C 2912 4147 2906 4154 2886 4154 
C 2778 4134 2726 4128 2573 4128 
L 941 4128 
C 749 4128 371 4134 115 4141 
C 77 4102 77 3968 115 3930 
C 563 3910 672 3878 672 3347 
L 672 781 
C 672 250 563 218 115 198 
C 77 160 77 26 115 -13 
C 352 -6 736 0 947 0 
L 2323 0 
C 2630 0 3142 -13 3142 -13 
C 3232 307 3328 730 3379 1056 
C 3315 1094 3238 1107 3155 1088 
C 3027 627 2803 250 2317 250 
L 1574 250 
C 1306 250 1216 352 1216 653 
L 1216 2067 
L 1798 2067 
C 2342 2067 2362 1920 2381 1632 
C 2419 1594 2554 1594 2592 1632 
C 2586 1798 2579 1978 2579 2195 
C 2579 2374 2586 2592 2592 2746 
C 2554 2784 2419 2784 2381 2746 
C 2362 2394 2342 2310 1798 2310 
z
" transform="scale(0.015625)"/>
       <path id="LibertinusSerif-Regular-70" d="M 998 2355 
C 992 2547 979 2714 947 2778 
C 934 2810 922 2829 870 2829 
C 691 2758 525 2701 83 2643 
C 70 2605 83 2502 96 2464 
C 442 2432 512 2400 512 2029 
L 512 -704 
C 512 -1235 442 -1267 51 -1286 
C 13 -1325 13 -1459 51 -1498 
C 275 -1491 512 -1485 768 -1485 
C 1024 -1485 1331 -1491 1542 -1498 
C 1581 -1459 1581 -1325 1542 -1286 
C 1088 -1261 1018 -1235 1018 -704 
L 1018 -13 
C 1018 70 1043 64 1107 38 
C 1267 -26 1459 -64 1664 -64 
C 2022 -64 2342 45 2605 294 
C 2906 589 3078 986 3078 1504 
C 3078 2182 2598 2810 1946 2810 
C 1651 2810 1325 2618 1069 2330 
C 1030 2291 1005 2291 998 2355 
z
M 1120 2118 
C 1286 2323 1581 2515 1766 2515 
C 2176 2515 2528 2054 2528 1331 
C 2528 806 2342 154 1626 154 
C 1510 154 1286 186 1171 288 
C 1043 403 1018 442 1018 672 
L 1018 1837 
C 1018 1971 1043 2029 1120 2118 
z
" transform="scale(0.015625)"/>
       <path id="LibertinusSerif-Regular-6f" d="M 262 1312 
C 262 659 698 -64 1606 -64 
C 2016 -64 2330 83 2547 294 
C 2835 576 2963 979 2963 1370 
C 2963 2035 2598 2810 1619 2810 
C 1197 2810 851 2637 614 2362 
C 384 2086 262 1715 262 1312 
z
M 1523 2586 
C 2074 2586 2413 2086 2413 1165 
C 2413 358 1997 160 1696 160 
C 1030 160 813 966 813 1459 
C 813 2016 947 2586 1523 2586 
z
" transform="scale(0.015625)"/>
       <path id="LibertinusSerif-Regular-63" d="M 2547 582 
C 2522 640 2470 666 2413 672 
C 2195 390 1920 250 1645 250 
C 1178 250 787 723 787 1472 
C 787 2176 1094 2598 1517 2598 
C 1894 2598 1946 2374 1971 2150 
C 1990 1978 2080 1920 2214 1920 
C 2349 1920 2528 2003 2528 2202 
C 2528 2554 2163 2810 1549 2810 
C 915 2810 237 2240 237 1331 
C 237 506 698 -64 1504 -64 
C 1888 -64 2227 58 2547 582 
z
" transform="scale(0.015625)"/>
       <path id="LibertinusSerif-Regular-68" d="M 1069 1830 
C 1069 1965 1126 2042 1178 2099 
C 1421 2336 1747 2477 1997 2477 
C 2125 2477 2259 2394 2336 2246 
C 2400 2118 2413 1946 2413 1754 
L 2413 781 
C 2413 256 2349 230 2016 198 
C 1984 160 1984 26 2016 -13 
C 2195 -6 2413 0 2669 0 
C 2925 0 3136 -6 3347 -13 
C 3379 26 3379 160 3347 198 
C 2989 230 2918 256 2918 781 
L 2918 1734 
C 2918 2086 2893 2400 2746 2592 
C 2637 2733 2438 2810 2214 2810 
C 1901 2810 1517 2726 1126 2291 
C 1126 2285 1120 2285 1114 2278 
C 1094 2253 1062 2214 1062 2291 
L 1069 3731 
C 1069 4147 1094 4403 1094 4403 
C 1094 4448 1069 4467 1011 4467 
C 851 4403 371 4314 115 4294 
C 102 4243 115 4141 154 4102 
C 173 4102 192 4102 211 4102 
C 493 4083 563 4083 563 3578 
L 563 781 
C 563 250 486 224 115 198 
C 77 160 77 26 115 -13 
C 326 -6 563 0 819 0 
C 1062 0 1274 -6 1453 -13 
C 1491 26 1491 160 1453 198 
C 1126 224 1069 250 1069 781 
L 1069 1830 
z
" transform="scale(0.015625)"/>
      </defs>
      <use xlink:href="#LibertinusSerif-Regular-45"/>
      <use xlink:href="#LibertinusSerif-Regular-70" x="55.699997"/>
      <use xlink:href="#LibertinusSerif-Regular-6f" x="107.599991"/>
      <use xlink:href="#LibertinusSerif-Regular-63" x="157.999985"/>
      <use xlink:href="#LibertinusSerif-Regular-68" x="200.799973"/>
     </g>
    </g>
   </g>
   <g id="matplotlib.axis_2">
    <g id="ytick_1">
     <g id="line2d_7">
      <defs>
       <path id="meb422811c9" d="M 0 0 
L -3.5 0 
" style="stroke: #000000; stroke-width: 0.8"/>
      </defs>
      <g>
       <use xlink:href="#meb422811c9" x="42.59" y="163.36494" style="stroke: #000000; stroke-width: 0.8"/>
      </g>
     </g>
     <g id="text_8">
      <!-- 0.1 -->
      <g transform="translate(24.09 166.854784) scale(0.1 -0.1)">
       <defs>
        <path id="LibertinusSerif-Regular-2e" d="M 365 275 
C 365 90 518 -64 704 -64 
C 890 -64 1043 90 1043 275 
C 1043 461 890 614 704 614 
C 518 614 365 461 365 275 
z
" transform="scale(0.015625)"/>
       </defs>
       <use xlink:href="#LibertinusSerif-Regular-30"/>
       <use xlink:href="#LibertinusSerif-Regular-2e" x="46.499985"/>
       <use xlink:href="#LibertinusSerif-Regular-31" x="68.499969"/>
      </g>
     </g>
    </g>
    <g id="ytick_2">
     <g id="line2d_8">
      <g>
       <use xlink:href="#meb422811c9" x="42.59" y="139.462768" style="stroke: #000000; stroke-width: 0.8"/>
      </g>
     </g>
     <g id="text_9">
      <!-- 0.2 -->
      <g transform="translate(24.09 142.952612) scale(0.1 -0.1)">
       <use xlink:href="#LibertinusSerif-Regular-30"/>
       <use xlink:href="#LibertinusSerif-Regular-2e" x="46.499985"/>
       <use xlink:href="#LibertinusSerif-Regular-32" x="68.499969"/>
      </g>
     </g>
    </g>
    <g id="ytick_3">
     <g id="line2d_9">
      <g>
       <use xlink:href="#meb422811c9" x="42.59" y="115.560596" style="stroke: #000000; stroke-width: 0.8"/>
      </g>
     </g>
     <g id="text_10">
      <!-- 0.3 -->
      <g transform="translate(24.09 119.05044) scale(0.1 -0.1)">
       <defs>
        <path id="LibertinusSerif-Regular-33" d="M 1376 3680 
C 1651 3680 1907 3514 1907 3104 
C 1907 2784 1536 2291 902 2202 
L 934 1997 
C 1043 2010 1158 2010 1242 2010 
C 1606 2010 2080 1907 2080 1184 
C 2080 333 1510 160 1286 160 
C 960 160 902 307 826 422 
C 762 512 678 589 550 589 
C 416 589 282 467 282 365 
C 282 109 819 -64 1203 -64 
C 1965 -64 2643 429 2643 1274 
C 2643 1971 2118 2221 1741 2285 
L 1734 2298 
C 2259 2547 2406 2810 2406 3149 
C 2406 3341 2362 3494 2208 3654 
C 2067 3795 1843 3904 1510 3904 
C 570 3904 301 3290 301 3078 
C 301 2989 365 2861 518 2861 
C 742 2861 768 3072 768 3194 
C 768 3603 1210 3680 1376 3680 
z
" transform="scale(0.015625)"/>
       </defs>
       <use xlink:href="#LibertinusSerif-Regular-30"/>
       <use xlink:href="#LibertinusSerif-Regular-2e" x="46.499985"/>
       <use xlink:href="#LibertinusSerif-Regular-33" x="68.499969"/>
      </g>
     </g>
    </g>
    <g id="ytick_4">
     <g id="line2d_10">
      <g>
       <use xlink:href="#meb422811c9" x="42.59" y="91.658424" style="stroke: #000000; stroke-width: 0.8"/>
      </g>
     </g>
     <g id="text_11">
      <!-- 0.4 -->
      <g transform="translate(24.09 95.148268) scale(0.1 -0.1)">
       <defs>
        <path id="LibertinusSerif-Regular-34" d="M 2752 1402 
L 2221 1402 
L 2221 3270 
C 2221 3590 2221 3840 2234 3891 
L 2221 3904 
L 2016 3904 
C 1971 3904 1939 3866 1914 3834 
C 1510 3341 768 2285 179 1370 
C 198 1274 237 1101 429 1101 
L 1734 1101 
L 1734 512 
C 1734 218 1491 218 1216 198 
C 1178 160 1178 26 1216 -13 
C 1421 -6 1677 0 1971 0 
C 2221 0 2464 -6 2669 -13 
C 2707 26 2707 160 2669 198 
C 2355 224 2221 211 2221 512 
L 2221 1101 
L 2662 1101 
C 2752 1101 2848 1222 2848 1299 
C 2848 1363 2822 1402 2752 1402 
z
M 1734 3245 
L 1734 1402 
L 512 1402 
C 838 1926 1293 2643 1734 3245 
z
" transform="scale(0.015625)"/>
       </defs>
       <use xlink:href="#LibertinusSerif-Regular-30"/>
       <use xlink:href="#LibertinusSerif-Regular-2e" x="46.499985"/>
       <use xlink:href="#LibertinusSerif-Regular-34" x="68.499969"/>
      </g>
     </g>
    </g>
    <g id="ytick_5">
     <g id="line2d_11">
      <g>
       <use xlink:href="#meb422811c9" x="42.59" y="67.756253" style="stroke: #000000; stroke-width: 0.8"/>
      </g>
     </g>
     <g id="text_12">
      <!-- 0.5 -->
      <g transform="translate(24.09 71.246096) scale(0.1 -0.1)">
       <use xlink:href="#LibertinusSerif-Regular-30"/>
       <use xlink:href="#LibertinusSerif-Regular-2e" x="46.499985"/>
       <use xlink:href="#LibertinusSerif-Regular-35" x="68.499969"/>
      </g>
     </g>
    </g>
    <g id="ytick_6">
     <g id="line2d_12">
      <g>
       <use xlink:href="#meb422811c9" x="42.59" y="43.854081" style="stroke: #000000; stroke-width: 0.8"/>
      </g>
     </g>
     <g id="text_13">
      <!-- 0.6 -->
      <g transform="translate(24.09 47.343924) scale(0.1 -0.1)">
       <defs>
        <path id="LibertinusSerif-Regular-36" d="M 922 2195 
C 1094 2778 1504 3424 2355 3744 
C 2355 3821 2330 3878 2278 3910 
C 1632 3718 1235 3450 877 3034 
C 480 2573 282 1990 282 1485 
C 282 186 1018 -70 1510 -70 
C 2349 -70 2694 742 2694 1293 
C 2694 1843 2400 2336 1530 2336 
C 1363 2336 1114 2285 922 2195 
z
M 864 1965 
C 1075 2106 1286 2112 1395 2112 
C 2022 2112 2163 1498 2163 1178 
C 2163 474 1894 154 1581 154 
C 1178 154 813 371 813 1466 
C 813 1613 826 1779 864 1965 
z
" transform="scale(0.015625)"/>
       </defs>
       <use xlink:href="#LibertinusSerif-Regular-30"/>
       <use xlink:href="#LibertinusSerif-Regular-2e" x="46.499985"/>
       <use xlink:href="#LibertinusSerif-Regular-36" x="68.499969"/>
      </g>
     </g>
    </g>
    <g id="text_14">
     <!-- Loss -->
     <g transform="translate(17.749375 109.160156) rotate(-90) scale(0.1 -0.1)">
      <defs>
       <path id="LibertinusSerif-Regular-4c" d="M 954 0 
L 2317 0 
C 2490 0 3078 -13 3078 -13 
C 3142 307 3206 723 3245 1056 
C 3181 1088 3110 1101 3034 1088 
C 2906 627 2669 250 1990 250 
L 1587 250 
C 1338 250 1222 371 1222 698 
L 1222 3347 
C 1222 3878 1331 3910 1779 3930 
C 1818 3968 1818 4102 1779 4141 
C 1491 4134 1190 4128 947 4128 
C 717 4128 416 4134 122 4141 
C 83 4102 83 3968 122 3930 
C 570 3910 678 3878 678 3347 
L 678 781 
C 678 250 570 218 122 198 
C 83 160 83 26 122 -13 
C 371 -6 736 0 954 0 
z
" transform="scale(0.015625)"/>
       <path id="LibertinusSerif-Regular-73" d="M 307 883 
C 333 570 352 269 352 0 
C 416 13 480 19 512 19 
C 557 19 595 19 640 6 
C 813 -38 986 -64 1222 -64 
C 1581 -64 2240 109 2240 742 
C 2240 1178 1926 1434 1491 1594 
C 1107 1741 851 1837 851 2189 
C 851 2451 1082 2598 1299 2598 
C 1440 2598 1811 2547 1894 2003 
C 1933 1965 2061 1971 2099 2010 
C 2118 2240 2131 2477 2138 2688 
C 1939 2720 1632 2810 1299 2810 
C 826 2810 397 2502 397 2093 
C 397 1626 608 1427 1101 1222 
C 1632 1005 1754 870 1754 595 
C 1754 282 1446 147 1210 147 
C 960 147 819 230 755 301 
C 614 448 544 730 506 890 
C 467 928 346 922 307 883 
z
" transform="scale(0.015625)"/>
      </defs>
      <use xlink:href="#LibertinusSerif-Regular-4c"/>
      <use xlink:href="#LibertinusSerif-Regular-6f" x="52.799988"/>
      <use xlink:href="#LibertinusSerif-Regular-73" x="103.199982"/>
      <use xlink:href="#LibertinusSerif-Regular-73" x="142.199966"/>
     </g>
    </g>
   </g>
   <g id="line2d_13">
    <path d="M 51.863182 31.572727 
L 59.590833 79.199683 
L 67.318485 86.704555 
L 75.046136 98.836291 
L 82.773788 109.184628 
L 90.501439 112.603077 
L 98.229091 119.148145 
L 105.956742 115.464301 
L 113.684394 121.671953 
L 121.412045 117.522508 
L 129.139697 121.980558 
L 136.867348 121.814504 
L 144.595 131.506677 
L 152.322652 119.901791 
L 160.050303 122.028479 
L 167.777955 131.366122 
L 175.505606 131.76648 
L 183.233258 140.157934 
L 190.960909 130.084086 
L 198.688561 141.315496 
" clip-path="url(#p35468cd50c)" style="fill: none; stroke: #1f77b4; stroke-width: 1.5; stroke-linecap: square"/>
   </g>
   <g id="line2d_14">
    <path d="M 51.863182 34.498645 
L 59.590833 49.244626 
L 67.318485 71.645085 
L 75.046136 80.55172 
L 82.773788 85.234807 
L 90.501439 99.562636 
L 98.229091 111.069396 
L 105.956742 128.281557 
L 113.684394 134.334166 
L 121.412045 136.126549 
L 129.139697 128.703972 
L 136.867348 135.761196 
L 144.595 140.349229 
L 152.322652 144.299924 
L 160.050303 134.985542 
L 167.777955 139.739389 
L 175.505606 140.212867 
L 183.233258 133.934354 
L 190.960909 146.03559 
L 198.688561 149.574168 
L 206.416212 147.352415 
L 214.143864 143.359301 
L 221.871515 148.322288 
L 229.599167 147.925156 
" clip-path="url(#p35468cd50c)" style="fill: none; stroke: #ff7f0e; stroke-width: 1.5; stroke-linecap: square"/>
   </g>
   <g id="line2d_15">
    <path d="M 51.863182 55.391058 
L 59.590833 87.322077 
L 67.318485 76.620302 
L 75.046136 104.045397 
L 82.773788 129.425015 
L 90.501439 133.165198 
L 98.229091 135.005976 
L 105.956742 133.373954 
L 113.684394 128.170617 
L 121.412045 140.902054 
L 129.139697 138.756176 
L 136.867348 150.14618 
" clip-path="url(#p35468cd50c)" style="fill: none; stroke: #2ca02c; stroke-width: 1.5; stroke-linecap: square"/>
   </g>
   <g id="line2d_16">
    <path d="M 51.863182 107.117067 
L 59.590833 134.250418 
L 67.318485 143.29697 
L 75.046136 147.939602 
L 82.773788 147.624515 
L 90.501439 154.808541 
L 98.229091 153.868892 
L 105.956742 158.020348 
L 113.684394 157.218933 
L 121.412045 156.543316 
L 129.139697 156.472655 
L 136.867348 157.598995 
L 144.595 161.113388 
L 152.322652 162.485494 
L 160.050303 160.416239 
L 167.777955 157.442858 
L 175.505606 164.55849 
L 183.233258 163.395705 
L 190.960909 163.034226 
L 198.688561 162.005704 
L 206.416212 163.900561 
L 214.143864 162.482882 
L 221.871515 168.627273 
L 229.599167 160.959918 
L 237.326818 164.385093 
" clip-path="url(#p35468cd50c)" style="fill: none; stroke: #d62728; stroke-width: 1.5; stroke-linecap: square"/>
   </g>
   <g id="patch_3">
    <path d="M 42.59 175.48 
L 42.59 24.72 
" style="fill: none; stroke: #000000; stroke-width: 0.8; stroke-linejoin: miter; stroke-linecap: square"/>
   </g>
   <g id="patch_4">
    <path d="M 246.6 175.48 
L 246.6 24.72 
" style="fill: none; stroke: #000000; stroke-width: 0.8; stroke-linejoin: miter; stroke-linecap: square"/>
   </g>
   <g id="patch_5">
    <path d="M 42.59 175.48 
L 246.6 175.48 
" style="fill: none; stroke: #000000; stroke-width: 0.8; stroke-linejoin: miter; stroke-linecap: square"/>
   </g>
   <g id="patch_6">
    <path d="M 42.59 24.72 
L 246.6 24.72 
" style="fill: none; stroke: #000000; stroke-width: 0.8; stroke-linejoin: miter; stroke-linecap: square"/>
   </g>
   <g id="text_15">
    <!-- Training loss -->
    <g transform="translate(112.494062 18.72) scale(0.12 -0.12)">
     <defs>
      <path id="LibertinusSerif-Regular-54" d="M 2240 781 
L 2240 3226 
C 2240 3635 2304 3878 2534 3878 
L 2675 3878 
C 3155 3878 3456 3712 3565 3219 
C 3635 3219 3725 3226 3782 3251 
C 3738 3546 3706 3872 3699 4160 
C 3699 4166 3686 4179 3680 4179 
C 3462 4160 2752 4128 2246 4128 
L 1696 4128 
C 1203 4128 448 4160 205 4179 
C 192 4179 179 4166 179 4160 
C 154 3872 90 3539 19 3232 
C 83 3206 160 3200 237 3200 
C 365 3712 659 3878 1082 3878 
L 1395 3878 
C 1632 3878 1696 3635 1696 3245 
L 1696 781 
C 1696 250 1587 218 1075 198 
C 1037 160 1037 26 1075 -13 
C 1389 -6 1715 0 1971 0 
C 2214 0 2541 -6 2861 -13 
C 2899 26 2899 160 2861 198 
C 2349 218 2240 250 2240 781 
z
" transform="scale(0.015625)"/>
      <path id="LibertinusSerif-Regular-72" d="M 1126 2291 
C 1114 2547 1107 2714 1075 2778 
C 1062 2810 1050 2829 998 2829 
C 819 2758 653 2701 211 2643 
C 198 2605 211 2502 224 2464 
C 570 2432 640 2400 640 2029 
L 640 781 
C 640 250 563 224 166 198 
C 128 160 128 26 166 -13 
C 390 -6 640 0 896 0 
C 1152 0 1446 -6 1670 -13 
C 1709 26 1709 160 1670 198 
C 1222 230 1146 250 1146 781 
L 1146 1670 
C 1146 1837 1222 1984 1299 2099 
C 1370 2202 1517 2413 1594 2413 
C 1651 2413 1709 2400 1760 2330 
C 1805 2266 1882 2182 1990 2182 
C 2144 2182 2291 2342 2291 2502 
C 2291 2624 2176 2810 1907 2810 
C 1606 2810 1344 2528 1197 2278 
C 1158 2208 1126 2259 1126 2291 
z
" transform="scale(0.015625)"/>
      <path id="LibertinusSerif-Regular-61" d="M 1875 307 
C 1914 109 1984 -64 2304 -64 
C 2547 -64 2778 45 2912 173 
C 2899 250 2874 307 2803 346 
C 2758 307 2650 243 2566 243 
C 2381 243 2374 493 2374 787 
L 2374 1728 
C 2374 2637 1875 2810 1408 2810 
C 883 2810 352 2464 352 2099 
C 352 1946 429 1869 576 1869 
C 762 1869 877 2003 877 2086 
C 877 2131 870 2176 858 2202 
C 851 2221 845 2259 845 2330 
C 845 2528 1114 2598 1357 2598 
C 1574 2598 1875 2490 1875 1766 
C 1875 1722 1856 1696 1837 1690 
L 1286 1555 
C 672 1402 230 1062 230 627 
C 230 102 589 -64 1037 -64 
C 1261 -64 1453 -13 1734 205 
L 1862 307 
L 1875 307 
z
M 1875 1491 
L 1875 646 
C 1875 563 1837 518 1786 480 
C 1619 346 1402 198 1222 198 
C 902 198 762 454 762 653 
C 762 941 896 1235 1370 1357 
L 1875 1491 
z
" transform="scale(0.015625)"/>
      <path id="LibertinusSerif-Regular-69" d="M 1158 781 
L 1158 2054 
C 1158 2374 1184 2784 1184 2784 
C 1184 2810 1152 2829 1101 2829 
C 922 2758 666 2701 224 2643 
C 211 2605 224 2502 237 2464 
C 589 2432 653 2394 653 2029 
L 653 781 
C 653 250 582 230 192 198 
C 154 160 154 26 192 -13 
C 403 -6 653 0 909 0 
C 1165 0 1408 -6 1619 -13 
C 1658 26 1658 160 1619 198 
C 1229 224 1158 250 1158 781 
z
M 576 3834 
C 576 3667 730 3501 883 3501 
C 1062 3501 1216 3674 1216 3808 
C 1216 3962 1082 4141 909 4141 
C 755 4141 576 3987 576 3834 
z
" transform="scale(0.015625)"/>
      <path id="LibertinusSerif-Regular-6e" d="M 1178 2291 
C 1139 2246 1101 2234 1101 2291 
C 1094 2464 1082 2714 1050 2778 
C 1037 2810 1024 2829 973 2829 
C 794 2758 627 2701 186 2643 
C 173 2605 186 2502 198 2464 
C 544 2432 614 2400 614 2029 
L 614 781 
C 614 256 550 230 166 198 
C 128 160 128 26 166 -13 
C 358 -6 614 0 870 0 
C 1126 0 1318 -6 1510 -13 
C 1549 26 1549 160 1510 198 
C 1184 230 1120 256 1120 781 
L 1120 1830 
C 1120 1965 1178 2042 1229 2099 
C 1472 2336 1760 2477 2010 2477 
C 2138 2477 2272 2394 2349 2246 
C 2413 2118 2426 1946 2426 1754 
L 2426 781 
C 2426 256 2362 230 2029 198 
C 1997 160 1997 26 2029 -13 
C 2221 -6 2426 0 2682 0 
C 2938 0 3168 -6 3360 -13 
C 3392 26 3392 160 3360 198 
C 3002 230 2931 256 2931 781 
L 2931 1734 
C 2931 2086 2906 2394 2758 2592 
C 2650 2733 2451 2810 2227 2810 
C 1914 2810 1555 2726 1178 2291 
z
" transform="scale(0.015625)"/>
      <path id="LibertinusSerif-Regular-67" d="M 2842 2477 
C 2963 2477 3078 2592 3078 2720 
C 3078 2854 2957 2957 2784 2957 
C 2618 2957 2310 2848 2144 2630 
C 2067 2682 1856 2810 1478 2810 
C 909 2810 384 2426 384 1837 
C 384 1491 538 1293 717 1120 
C 538 966 435 691 435 474 
C 435 243 563 64 730 -19 
C 384 -224 205 -518 205 -794 
C 205 -1350 730 -1523 1222 -1523 
C 2086 -1523 3021 -1107 3021 -416 
C 3021 -211 2925 -51 2739 102 
C 2490 307 2042 314 1805 314 
C 1690 314 1530 301 1376 282 
C 1280 275 1216 269 1184 269 
C 998 269 774 358 774 634 
C 774 762 813 896 890 1005 
C 1043 915 1222 870 1472 870 
C 2035 870 2554 1222 2554 1850 
C 2554 2150 2464 2323 2278 2515 
C 2323 2579 2451 2669 2534 2669 
C 2579 2669 2624 2650 2662 2592 
C 2688 2541 2771 2477 2842 2477 
z
M 845 -64 
C 915 -83 1018 -96 1101 -96 
C 1299 -96 1478 -77 1568 -77 
C 1888 -77 2157 -83 2342 -186 
C 2592 -326 2669 -416 2669 -582 
C 2669 -1043 1990 -1286 1414 -1286 
C 1184 -1286 646 -1101 646 -666 
C 646 -448 659 -288 845 -64 
z
M 2042 1786 
C 2042 1190 1741 1069 1504 1069 
C 966 1069 909 1523 909 1933 
C 909 2381 1069 2611 1421 2611 
C 1824 2611 2042 2317 2042 1786 
z
" transform="scale(0.015625)"/>
      <path id="LibertinusSerif-Regular-20" transform="scale(0.015625)"/>
      <path id="LibertinusSerif-Regular-6c" d="M 608 781 
C 608 250 538 218 147 198 
C 109 160 109 26 147 -13 
C 371 -6 608 0 864 0 
C 1120 0 1363 -6 1574 -13 
C 1613 26 1613 160 1574 198 
C 1184 218 1114 250 1114 781 
L 1114 3731 
C 1114 4147 1139 4403 1139 4403 
C 1139 4448 1114 4467 1056 4467 
C 896 4403 416 4314 160 4294 
C 147 4243 160 4141 198 4102 
C 570 4077 608 4058 608 3578 
L 608 781 
z
" transform="scale(0.015625)"/>
     </defs>
     <use xlink:href="#LibertinusSerif-Regular-54"/>
     <use xlink:href="#LibertinusSerif-Regular-72" x="59.699997"/>
     <use xlink:href="#LibertinusSerif-Regular-61" x="96.899994"/>
     <use xlink:href="#LibertinusSerif-Regular-69" x="142.599991"/>
     <use xlink:href="#LibertinusSerif-Regular-6e" x="169.699982"/>
     <use xlink:href="#LibertinusSerif-Regular-69" x="223.899979"/>
     <use xlink:href="#LibertinusSerif-Regular-6e" x="250.999969"/>
     <use xlink:href="#LibertinusSerif-Regular-67" x="305.199966"/>
     <use xlink:href="#LibertinusSerif-Regular-20" x="355.199951"/>
     <use xlink:href="#LibertinusSerif-Regular-6c" x="380.199936"/>
     <use xlink:href="#LibertinusSerif-Regular-6f" x="406.59993"/>
     <use xlink:href="#LibertinusSerif-Regular-73" x="456.999924"/>
     <use xlink:href="#LibertinusSerif-Regular-73" x="495.999908"/>
    </g>
   </g>
   <g id="legend_1">
    <g id="patch_7">
     <path d="M 166.059375 90.0825 
L 239.6 90.0825 
Q 241.6 90.0825 241.6 88.0825 
L 241.6 31.72 
Q 241.6 29.72 239.6 29.72 
L 166.059375 29.72 
Q 164.059375 29.72 164.059375 31.72 
L 164.059375 88.0825 
Q 164.059375 90.0825 166.059375 90.0825 
z
" style="fill: #ffffff; opacity: 0.8; stroke: #cccccc; stroke-linejoin: miter"/>
    </g>
    <g id="line2d_17">
     <path d="M 168.059375 37.22 
L 178.059375 37.22 
L 188.059375 37.22 
" style="fill: none; stroke: #1f77b4; stroke-width: 1.5; stroke-linecap: square"/>
    </g>
    <g id="text_16">
     <!-- AlexNet -->
     <g transform="translate(196.059375 40.72) scale(0.1 -0.1)">
      <defs>
       <path id="LibertinusSerif-Regular-41" d="M 992 506 
L 1344 1434 
C 1376 1517 1414 1542 1568 1542 
L 2918 1542 
L 3290 461 
C 3366 243 3123 218 2816 198 
C 2778 160 2778 26 2816 -13 
C 3053 -6 3405 0 3654 0 
C 3917 0 4160 -6 4384 -13 
C 4422 26 4422 160 4384 198 
C 4134 224 3917 243 3808 550 
L 2490 4211 
C 2394 4154 2221 4083 2138 4083 
L 685 653 
C 518 256 326 218 45 198 
C 6 160 6 26 45 -13 
C 211 -6 422 0 614 0 
C 877 0 1197 -6 1434 -13 
C 1472 26 1472 160 1434 198 
C 1190 218 890 243 992 506 
z
M 1683 1811 
C 1542 1811 1498 1830 1523 1894 
L 2176 3552 
L 2214 3552 
L 2816 1811 
L 1683 1811 
z
" transform="scale(0.015625)"/>
       <path id="LibertinusSerif-Regular-65" d="M 2470 595 
C 2234 352 2048 250 1677 250 
C 1446 250 1178 384 979 710 
C 851 922 774 1216 774 1587 
L 2477 1574 
C 2554 1574 2598 1613 2598 1683 
C 2598 2221 2406 2797 1517 2797 
C 960 2797 237 2266 237 1293 
C 237 934 326 589 538 346 
C 755 90 1056 -64 1517 -64 
C 2003 -64 2349 160 2605 493 
C 2586 557 2547 589 2470 595 
z
M 794 1805 
C 915 2528 1363 2586 1517 2586 
C 1760 2586 2048 2451 2048 1914 
C 2048 1856 2022 1824 1952 1824 
L 794 1805 
z
" transform="scale(0.015625)"/>
       <path id="LibertinusSerif-Regular-78" d="M 1165 2291 
C 1018 2509 1062 2515 1350 2547 
C 1389 2586 1389 2720 1350 2758 
C 1178 2752 896 2746 704 2746 
C 512 2746 320 2752 154 2758 
C 115 2720 115 2586 154 2547 
C 371 2528 550 2419 730 2157 
L 1286 1344 
C 1318 1299 1318 1280 1293 1248 
L 755 557 
C 499 230 358 211 134 198 
C 96 160 96 26 134 -13 
C 262 -6 403 0 595 0 
C 787 0 966 -6 1133 -13 
C 1171 26 1171 160 1133 198 
C 902 224 851 250 992 454 
L 1395 1037 
C 1446 1114 1472 1107 1510 1050 
L 1882 538 
C 2106 230 2003 218 1798 198 
C 1760 160 1760 26 1798 -13 
C 1990 -6 2202 0 2432 0 
C 2675 0 2848 -6 3002 -13 
C 3040 26 3040 160 3002 198 
C 2714 218 2618 237 2362 602 
L 1786 1414 
C 1760 1453 1754 1472 1786 1510 
L 2323 2195 
C 2560 2496 2714 2528 2944 2547 
C 2982 2586 2982 2720 2944 2758 
C 2816 2752 2669 2746 2477 2746 
C 2285 2746 2106 2752 1939 2758 
C 1901 2720 1901 2586 1939 2547 
C 2176 2522 2246 2502 2093 2285 
L 1677 1702 
C 1632 1638 1606 1645 1555 1715 
L 1165 2291 
z
" transform="scale(0.015625)"/>
       <path id="LibertinusSerif-Regular-4e" d="M 3558 3277 
L 3558 1184 
C 3558 1062 3558 992 3514 992 
C 3488 992 3392 1107 3206 1344 
L 1011 4128 
L 147 4141 
C 109 4102 109 3968 147 3930 
C 422 3910 614 3686 653 3520 
L 653 851 
C 653 282 544 243 96 198 
C 58 160 58 26 96 -13 
C 371 -6 659 0 813 0 
C 960 0 1254 -6 1523 -13 
C 1562 26 1562 160 1523 198 
C 1075 243 966 269 966 851 
L 966 2810 
C 966 3027 966 3123 1018 3123 
C 1056 3123 1126 3053 1235 2912 
L 3469 90 
C 3539 -6 3622 -64 3725 -64 
C 3814 -64 3872 13 3872 134 
L 3872 3277 
C 3872 3846 3981 3885 4429 3930 
C 4467 3968 4467 4102 4429 4141 
C 4166 4134 3866 4128 3712 4128 
C 3578 4128 3283 4134 3002 4141 
C 2963 4102 2963 3968 3002 3930 
C 3450 3885 3558 3859 3558 3277 
z
" transform="scale(0.015625)"/>
       <path id="LibertinusSerif-Regular-74" d="M 275 2746 
C 186 2746 160 2669 160 2618 
L 160 2534 
C 160 2502 166 2496 192 2496 
L 570 2496 
L 570 570 
C 570 115 768 -64 1062 -64 
C 1357 -64 1677 77 1926 358 
C 1914 422 1875 461 1811 467 
C 1645 339 1453 288 1286 288 
C 1114 288 1075 480 1075 877 
L 1075 2496 
L 1741 2496 
C 1805 2496 1894 2522 1894 2579 
L 1894 2707 
C 1894 2733 1875 2746 1843 2746 
L 1075 2746 
L 1075 2995 
C 1075 3411 1101 3667 1101 3667 
C 1101 3706 1082 3725 1050 3725 
C 1024 3725 966 3699 909 3667 
C 838 3629 774 3597 691 3578 
C 614 3552 550 3533 550 3488 
C 550 3411 570 3456 570 2746 
L 275 2746 
z
" transform="scale(0.015625)"/>
      </defs>
      <use xlink:href="#LibertinusSerif-Regular-41"/>
      <use xlink:href="#LibertinusSerif-Regular-6c" x="69.499985"/>
      <use xlink:href="#LibertinusSerif-Regular-65" x="95.899979"/>
      <use xlink:href="#LibertinusSerif-Regular-78" x="140.599976"/>
      <use xlink:href="#LibertinusSerif-Regular-4e" x="189.59996"/>
      <use xlink:href="#LibertinusSerif-Regular-65" x="259.499954"/>
      <use xlink:href="#LibertinusSerif-Regular-74" x="304.199951"/>
     </g>
    </g>
    <g id="line2d_18">
     <path d="M 168.059375 51.560625 
L 178.059375 51.560625 
L 188.059375 51.560625 
" style="fill: none; stroke: #ff7f0e; stroke-width: 1.5; stroke-linecap: square"/>
    </g>
    <g id="text_17">
     <!-- ResNet-18 -->
     <g transform="translate(196.059375 55.060625) scale(0.1 -0.1)">
      <defs>
       <path id="LibertinusSerif-Regular-52" d="M 1210 781 
L 1210 1862 
C 1747 1862 1869 1766 1958 1619 
L 2643 506 
C 2829 205 3104 -64 3488 -64 
C 3584 -64 3693 -51 3757 -19 
C 3782 26 3776 83 3750 134 
C 3462 134 3302 352 3136 627 
L 2330 1971 
C 2605 2061 3181 2394 3181 3066 
C 3181 3386 3072 3648 2842 3866 
C 2534 4154 2138 4173 1734 4173 
C 1434 4173 1165 4128 934 4128 
C 710 4128 410 4134 109 4141 
C 70 4102 70 3968 109 3930 
C 557 3910 666 3878 666 3347 
L 666 781 
C 666 250 557 218 109 198 
C 70 160 70 26 109 -13 
C 397 -6 698 0 941 0 
C 1184 0 1485 -6 1766 -13 
C 1805 26 1805 160 1766 198 
C 1318 218 1210 250 1210 781 
z
M 1741 3955 
C 2131 3955 2592 3814 2592 3059 
C 2592 2259 2138 2080 1517 2080 
L 1210 2080 
L 1210 3546 
C 1210 3731 1286 3955 1741 3955 
z
" transform="scale(0.015625)"/>
       <path id="LibertinusSerif-Regular-2d" d="M 1734 1427 
C 1818 1427 1907 1606 1907 1683 
C 1907 1747 1882 1811 1818 1811 
L 416 1811 
C 339 1811 256 1664 256 1549 
C 256 1485 294 1427 352 1427 
L 1734 1427 
z
" transform="scale(0.015625)"/>
       <path id="LibertinusSerif-Regular-38" d="M 2515 3104 
C 2515 3565 2157 3904 1530 3904 
C 877 3904 454 3514 454 3021 
C 454 2662 627 2400 1018 2157 
L 1184 2054 
C 998 1958 826 1843 666 1702 
C 403 1472 294 1184 294 934 
C 294 282 755 -64 1434 -64 
C 2272 -64 2682 550 2682 1037 
C 2682 1408 2522 1734 2182 1939 
L 1728 2214 
C 2029 2362 2515 2694 2515 3104 
z
M 1446 160 
C 1158 160 723 358 723 934 
C 723 1126 806 1574 1357 1939 
L 1658 1760 
C 2054 1517 2214 1216 2214 909 
C 2214 269 1734 160 1446 160 
z
M 1498 3680 
C 1914 3680 2067 3405 2067 3110 
C 2067 2765 1728 2477 1555 2349 
L 1357 2470 
C 954 2733 909 2944 909 3142 
C 909 3437 1114 3680 1498 3680 
z
" transform="scale(0.015625)"/>
      </defs>
      <use xlink:href="#LibertinusSerif-Regular-52"/>
      <use xlink:href="#LibertinusSerif-Regular-65" x="58.699997"/>
      <use xlink:href="#LibertinusSerif-Regular-73" x="103.399994"/>
      <use xlink:href="#LibertinusSerif-Regular-4e" x="142.399979"/>
      <use xlink:href="#LibertinusSerif-Regular-65" x="212.299973"/>
      <use xlink:href="#LibertinusSerif-Regular-74" x="256.999969"/>
      <use xlink:href="#LibertinusSerif-Regular-2d" x="288.59996"/>
      <use xlink:href="#LibertinusSerif-Regular-31" x="322.399948"/>
      <use xlink:href="#LibertinusSerif-Regular-38" x="368.899933"/>
     </g>
    </g>
    <g id="line2d_19">
     <path d="M 168.059375 65.90125 
L 178.059375 65.90125 
L 188.059375 65.90125 
" style="fill: none; stroke: #2ca02c; stroke-width: 1.5; stroke-linecap: square"/>
    </g>
    <g id="text_18">
     <!-- ResNet-34 -->
     <g transform="translate(196.059375 69.40125) scale(0.1 -0.1)">
      <use xlink:href="#LibertinusSerif-Regular-52"/>
      <use xlink:href="#LibertinusSerif-Regular-65" x="58.699997"/>
      <use xlink:href="#LibertinusSerif-Regular-73" x="103.399994"/>
      <use xlink:href="#LibertinusSerif-Regular-4e" x="142.399979"/>
      <use xlink:href="#LibertinusSerif-Regular-65" x="212.299973"/>
      <use xlink:href="#LibertinusSerif-Regular-74" x="256.999969"/>
      <use xlink:href="#LibertinusSerif-Regular-2d" x="288.59996"/>
      <use xlink:href="#LibertinusSerif-Regular-33" x="322.399948"/>
      <use xlink:href="#LibertinusSerif-Regular-34" x="368.899933"/>
     </g>
    </g>
    <g id="line2d_20">
     <path d="M 168.059375 80.241875 
L 178.059375 80.241875 
L 188.059375 80.241875 
" style="fill: none; stroke: #d62728; stroke-width: 1.5; stroke-linecap: square"/>
    </g>
    <g id="text_19">
     <!-- ResNet-50 -->
     <g transform="translate(196.059375 83.741875) scale(0.1 -0.1)">
      <use xlink:href="#LibertinusSerif-Regular-52"/>
      <use xlink:href="#LibertinusSerif-Regular-65" x="58.699997"/>
      <use xlink:href="#LibertinusSerif-Regular-73" x="103.399994"/>
      <use xlink:href="#LibertinusSerif-Regular-4e" x="142.399979"/>
      <use xlink:href="#LibertinusSerif-Regular-65" x="212.299973"/>
      <use xlink:href="#LibertinusSerif-Regular-74" x="256.999969"/>
      <use xlink:href="#LibertinusSerif-Regular-2d" x="288.59996"/>
      <use xlink:href="#LibertinusSerif-Regular-35" x="322.399948"/>
      <use xlink:href="#LibertinusSerif-Regular-30" x="368.899933"/>
     </g>
    </g>
   </g>
  </g>
  <g id="axes_2">
   <g id="patch_8">
    <path d="M 289.19 175.48 
L 493.2 175.48 
L 493.2 24.72 
L 289.19 24.72 
z
" style="fill: #ffffff"/>
   </g>
   <g id="matplotlib.axis_3">
    <g id="xtick_7">
     <g id="line2d_21">
      <g>
       <use xlink:href="#m3646f7c18b" x="298.463182" y="175.48" style="stroke: #000000; stroke-width: 0.8"/>
      </g>
     </g>
     <g id="text_20">
      <!-- 0 -->
      <g transform="translate(296.138182 189.459688) scale(0.1 -0.1)">
       <use xlink:href="#LibertinusSerif-Regular-30"/>
      </g>
     </g>
    </g>
    <g id="xtick_8">
     <g id="line2d_22">
      <g>
       <use xlink:href="#m3646f7c18b" x="337.101439" y="175.48" style="stroke: #000000; stroke-width: 0.8"/>
      </g>
     </g>
     <g id="text_21">
      <!-- 5 -->
      <g transform="translate(334.776439 189.459688) scale(0.1 -0.1)">
       <use xlink:href="#LibertinusSerif-Regular-35"/>
      </g>
     </g>
    </g>
    <g id="xtick_9">
     <g id="line2d_23">
      <g>
       <use xlink:href="#m3646f7c18b" x="375.739697" y="175.48" style="stroke: #000000; stroke-width: 0.8"/>
      </g>
     </g>
     <g id="text_22">
      <!-- 10 -->
      <g transform="translate(371.089697 189.459688) scale(0.1 -0.1)">
       <use xlink:href="#LibertinusSerif-Regular-31"/>
       <use xlink:href="#LibertinusSerif-Regular-30" x="46.499985"/>
      </g>
     </g>
    </g>
    <g id="xtick_10">
     <g id="line2d_24">
      <g>
       <use xlink:href="#m3646f7c18b" x="414.377955" y="175.48" style="stroke: #000000; stroke-width: 0.8"/>
      </g>
     </g>
     <g id="text_23">
      <!-- 15 -->
      <g transform="translate(409.727955 189.459688) scale(0.1 -0.1)">
       <use xlink:href="#LibertinusSerif-Regular-31"/>
       <use xlink:href="#LibertinusSerif-Regular-35" x="46.499985"/>
      </g>
     </g>
    </g>
    <g id="xtick_11">
     <g id="line2d_25">
      <g>
       <use xlink:href="#m3646f7c18b" x="453.016212" y="175.48" style="stroke: #000000; stroke-width: 0.8"/>
      </g>
     </g>
     <g id="text_24">
      <!-- 20 -->
      <g transform="translate(448.366212 189.459688) scale(0.1 -0.1)">
       <use xlink:href="#LibertinusSerif-Regular-32"/>
       <use xlink:href="#LibertinusSerif-Regular-30" x="46.499985"/>
      </g>
     </g>
    </g>
    <g id="xtick_12">
     <g id="line2d_26">
      <g>
       <use xlink:href="#m3646f7c18b" x="491.65447" y="175.48" style="stroke: #000000; stroke-width: 0.8"/>
      </g>
     </g>
     <g id="text_25">
      <!-- 25 -->
      <g transform="translate(487.00447 189.459688) scale(0.1 -0.1)">
       <use xlink:href="#LibertinusSerif-Regular-32"/>
       <use xlink:href="#LibertinusSerif-Regular-35" x="46.499985"/>
      </g>
     </g>
    </g>
    <g id="text_26">
     <!-- Epoch -->
     <g transform="translate(378.464531 202.78) scale(0.1 -0.1)">
      <use xlink:href="#LibertinusSerif-Regular-45"/>
      <use xlink:href="#LibertinusSerif-Regular-70" x="55.699997"/>
      <use xlink:href="#LibertinusSerif-Regular-6f" x="107.599991"/>
      <use xlink:href="#LibertinusSerif-Regular-63" x="157.999985"/>
      <use xlink:href="#LibertinusSerif-Regular-68" x="200.799973"/>
     </g>
    </g>
   </g>
   <g id="matplotlib.axis_4">
    <g id="ytick_7">
     <g id="line2d_27">
      <g>
       <use xlink:href="#meb422811c9" x="289.19" y="162.062654" style="stroke: #000000; stroke-width: 0.8"/>
      </g>
     </g>
     <g id="text_27">
      <!-- 0.1 -->
      <g transform="translate(270.69 165.552498) scale(0.1 -0.1)">
       <use xlink:href="#LibertinusSerif-Regular-30"/>
       <use xlink:href="#LibertinusSerif-Regular-2e" x="46.499985"/>
       <use xlink:href="#LibertinusSerif-Regular-31" x="68.499969"/>
      </g>
     </g>
    </g>
    <g id="ytick_8">
     <g id="line2d_28">
      <g>
       <use xlink:href="#meb422811c9" x="289.19" y="136.194245" style="stroke: #000000; stroke-width: 0.8"/>
      </g>
     </g>
     <g id="text_28">
      <!-- 0.2 -->
      <g transform="translate(270.69 139.684089) scale(0.1 -0.1)">
       <use xlink:href="#LibertinusSerif-Regular-30"/>
       <use xlink:href="#LibertinusSerif-Regular-2e" x="46.499985"/>
       <use xlink:href="#LibertinusSerif-Regular-32" x="68.499969"/>
      </g>
     </g>
    </g>
    <g id="ytick_9">
     <g id="line2d_29">
      <g>
       <use xlink:href="#meb422811c9" x="289.19" y="110.325837" style="stroke: #000000; stroke-width: 0.8"/>
      </g>
     </g>
     <g id="text_29">
      <!-- 0.3 -->
      <g transform="translate(270.69 113.815681) scale(0.1 -0.1)">
       <use xlink:href="#LibertinusSerif-Regular-30"/>
       <use xlink:href="#LibertinusSerif-Regular-2e" x="46.499985"/>
       <use xlink:href="#LibertinusSerif-Regular-33" x="68.499969"/>
      </g>
     </g>
    </g>
    <g id="ytick_10">
     <g id="line2d_30">
      <g>
       <use xlink:href="#meb422811c9" x="289.19" y="84.457428" style="stroke: #000000; stroke-width: 0.8"/>
      </g>
     </g>
     <g id="text_30">
      <!-- 0.4 -->
      <g transform="translate(270.69 87.947272) scale(0.1 -0.1)">
       <use xlink:href="#LibertinusSerif-Regular-30"/>
       <use xlink:href="#LibertinusSerif-Regular-2e" x="46.499985"/>
       <use xlink:href="#LibertinusSerif-Regular-34" x="68.499969"/>
      </g>
     </g>
    </g>
    <g id="ytick_11">
     <g id="line2d_31">
      <g>
       <use xlink:href="#meb422811c9" x="289.19" y="58.58902" style="stroke: #000000; stroke-width: 0.8"/>
      </g>
     </g>
     <g id="text_31">
      <!-- 0.5 -->
      <g transform="translate(270.69 62.078864) scale(0.1 -0.1)">
       <use xlink:href="#LibertinusSerif-Regular-30"/>
       <use xlink:href="#LibertinusSerif-Regular-2e" x="46.499985"/>
       <use xlink:href="#LibertinusSerif-Regular-35" x="68.499969"/>
      </g>
     </g>
    </g>
    <g id="ytick_12">
     <g id="line2d_32">
      <g>
       <use xlink:href="#meb422811c9" x="289.19" y="32.720612" style="stroke: #000000; stroke-width: 0.8"/>
      </g>
     </g>
     <g id="text_32">
      <!-- 0.6 -->
      <g transform="translate(270.69 36.210455) scale(0.1 -0.1)">
       <use xlink:href="#LibertinusSerif-Regular-30"/>
       <use xlink:href="#LibertinusSerif-Regular-2e" x="46.499985"/>
       <use xlink:href="#LibertinusSerif-Regular-36" x="68.499969"/>
      </g>
     </g>
    </g>
    <g id="text_33">
     <!-- Loss -->
     <g transform="translate(264.349375 109.160156) rotate(-90) scale(0.1 -0.1)">
      <use xlink:href="#LibertinusSerif-Regular-4c"/>
      <use xlink:href="#LibertinusSerif-Regular-6f" x="52.799988"/>
      <use xlink:href="#LibertinusSerif-Regular-73" x="103.199982"/>
      <use xlink:href="#LibertinusSerif-Regular-73" x="142.199966"/>
     </g>
    </g>
   </g>
   <g id="line2d_33">
    <path d="M 298.463182 31.572727 
L 306.190833 79.672897 
L 313.918485 106.598089 
L 321.646136 81.185842 
L 329.373788 68.046844 
L 337.101439 93.5718 
L 344.829091 106.70969 
L 352.556742 99.612936 
L 360.284394 103.069895 
L 368.012045 121.537443 
L 375.739697 94.689783 
L 383.467348 117.306684 
L 391.195 126.432038 
L 398.922652 99.002219 
L 406.650303 124.05623 
L 414.377955 107.98268 
L 422.105606 126.402223 
L 429.833258 101.318755 
L 437.560909 113.385535 
L 445.288561 98.880372 
" clip-path="url(#p967063ff13)" style="fill: none; stroke: #1f77b4; stroke-width: 1.5; stroke-linecap: square"/>
   </g>
   <g id="line2d_34">
    <path d="M 298.463182 121.865642 
L 306.190833 138.800702 
L 313.918485 127.125589 
L 321.646136 135.94846 
L 329.373788 139.13185 
L 337.101439 143.47822 
L 344.829091 137.164169 
L 352.556742 130.526501 
L 360.284394 122.661172 
L 368.012045 121.916635 
L 375.739697 146.701846 
L 383.467348 145.515605 
L 391.195 149.647594 
L 398.922652 130.515792 
L 406.650303 139.759772 
L 414.377955 147.522143 
L 422.105606 156.971298 
L 429.833258 151.895135 
L 437.560909 138.541594 
L 445.288561 145.831328 
L 453.016212 150.489599 
L 460.743864 147.577104 
L 468.471515 150.438764 
L 476.199167 128.532828 
" clip-path="url(#p967063ff13)" style="fill: none; stroke: #ff7f0e; stroke-width: 1.5; stroke-linecap: square"/>
   </g>
   <g id="line2d_35">
    <path d="M 298.463182 91.566447 
L 306.190833 75.87518 
L 313.918485 138.825348 
L 321.646136 122.454385 
L 329.373788 156.492552 
L 337.101439 138.200225 
L 344.829091 125.050329 
L 352.556742 139.980461 
L 360.284394 138.75235 
L 368.012045 153.32333 
L 375.739697 147.237747 
L 383.467348 146.420598 
" clip-path="url(#p967063ff13)" style="fill: none; stroke: #2ca02c; stroke-width: 1.5; stroke-linecap: square"/>
   </g>
   <g id="line2d_36">
    <path d="M 298.463182 149.634579 
L 306.190833 157.164437 
L 313.918485 158.756134 
L 321.646136 156.396396 
L 329.373788 158.170576 
L 337.101439 152.228433 
L 344.829091 156.41547 
L 352.556742 158.539378 
L 360.284394 157.112801 
L 368.012045 159.121629 
L 375.739697 147.300624 
L 383.467348 160.582599 
L 391.195 156.544526 
L 398.922652 152.690179 
L 406.650303 151.021256 
L 414.377955 152.812387 
L 422.105606 161.356323 
L 429.833258 168.627273 
L 437.560909 147.432135 
L 445.288561 154.769579 
L 453.016212 142.796229 
L 460.743864 157.011591 
L 468.471515 147.747488 
L 476.199167 147.84159 
L 483.926818 152.197395 
" clip-path="url(#p967063ff13)" style="fill: none; stroke: #d62728; stroke-width: 1.5; stroke-linecap: square"/>
   </g>
   <g id="patch_9">
    <path d="M 289.19 175.48 
L 289.19 24.72 
" style="fill: none; stroke: #000000; stroke-width: 0.8; stroke-linejoin: miter; stroke-linecap: square"/>
   </g>
   <g id="patch_10">
    <path d="M 493.2 175.48 
L 493.2 24.72 
" style="fill: none; stroke: #000000; stroke-width: 0.8; stroke-linejoin: miter; stroke-linecap: square"/>
   </g>
   <g id="patch_11">
    <path d="M 289.19 175.48 
L 493.2 175.48 
" style="fill: none; stroke: #000000; stroke-width: 0.8; stroke-linejoin: miter; stroke-linecap: square"/>
   </g>
   <g id="patch_12">
    <path d="M 289.19 24.72 
L 493.2 24.72 
" style="fill: none; stroke: #000000; stroke-width: 0.8; stroke-linejoin: miter; stroke-linecap: square"/>
   </g>
   <g id="text_34">
    <!-- Validation loss -->
    <g transform="translate(354.96625 18.72) scale(0.12 -0.12)">
     <defs>
      <path id="LibertinusSerif-Regular-56" d="M 2867 3930 
C 3341 3898 3341 3725 3206 3379 
L 2195 813 
L 2170 813 
L 1146 3418 
C 998 3802 1037 3885 1472 3930 
C 1510 3968 1510 4102 1472 4141 
C 1216 4134 928 4128 698 4128 
C 467 4128 243 4134 32 4141 
C -6 4102 0 3968 38 3930 
C 390 3898 442 3789 614 3347 
L 1875 70 
C 1914 -32 1958 -77 2022 -77 
C 2093 -77 2138 -19 2176 70 
L 3501 3334 
C 3622 3635 3725 3885 4128 3930 
C 4166 3968 4166 4102 4128 4141 
C 3936 4134 3712 4128 3565 4128 
C 3418 4128 3130 4134 2867 4141 
C 2829 4102 2829 3968 2867 3930 
z
" transform="scale(0.015625)"/>
      <path id="LibertinusSerif-Regular-64" d="M 2138 320 
C 2170 346 2227 358 2234 314 
C 2253 160 2304 -64 2304 -64 
C 2355 -83 2387 -77 2426 -64 
C 2566 51 2790 147 3181 192 
C 3219 230 3219 326 3181 365 
C 2771 397 2714 518 2714 832 
L 2714 3731 
C 2714 4147 2739 4403 2739 4403 
C 2739 4448 2714 4467 2656 4467 
C 2496 4403 2016 4314 1760 4294 
C 1747 4243 1760 4141 1798 4102 
C 1818 4102 1837 4102 1856 4102 
C 2138 4083 2208 4083 2208 3578 
L 2208 2758 
C 2208 2714 2195 2701 2150 2701 
C 2125 2701 1862 2810 1651 2810 
C 1229 2810 947 2669 691 2426 
C 416 2150 250 1773 250 1299 
C 250 512 646 -64 1338 -64 
C 1587 -64 1824 64 2138 320 
z
M 2208 794 
C 2208 672 2195 621 2106 544 
C 1869 339 1664 237 1504 237 
C 1158 237 800 614 800 1414 
C 800 1875 890 2131 986 2266 
C 1184 2566 1453 2586 1581 2586 
C 1811 2586 1971 2502 2099 2355 
C 2189 2253 2208 2208 2208 2010 
L 2208 794 
z
" transform="scale(0.015625)"/>
     </defs>
     <use xlink:href="#LibertinusSerif-Regular-56"/>
     <use xlink:href="#LibertinusSerif-Regular-61" x="65.199997"/>
     <use xlink:href="#LibertinusSerif-Regular-6c" x="110.899994"/>
     <use xlink:href="#LibertinusSerif-Regular-69" x="137.299988"/>
     <use xlink:href="#LibertinusSerif-Regular-64" x="164.399979"/>
     <use xlink:href="#LibertinusSerif-Regular-61" x="214.999969"/>
     <use xlink:href="#LibertinusSerif-Regular-74" x="260.699966"/>
     <use xlink:href="#LibertinusSerif-Regular-69" x="292.299957"/>
     <use xlink:href="#LibertinusSerif-Regular-6f" x="319.399948"/>
     <use xlink:href="#LibertinusSerif-Regular-6e" x="369.799942"/>
     <use xlink:href="#LibertinusSerif-Regular-20" x="423.999939"/>
     <use xlink:href="#LibertinusSerif-Regular-6c" x="448.999924"/>
     <use xlink:href="#LibertinusSerif-Regular-6f" x="475.399918"/>
     <use xlink:href="#LibertinusSerif-Regular-73" x="525.799911"/>
     <use xlink:href="#LibertinusSerif-Regular-73" x="564.799896"/>
    </g>
   </g>
   <g id="legend_2">
    <g id="patch_13">
     <path d="M 412.659375 90.0825 
L 486.2 90.0825 
Q 488.2 90.0825 488.2 88.0825 
L 488.2 31.72 
Q 488.2 29.72 486.2 29.72 
L 412.659375 29.72 
Q 410.659375 29.72 410.659375 31.72 
L 410.659375 88.0825 
Q 410.659375 90.0825 412.659375 90.0825 
z
" style="fill: #ffffff; opacity: 0.8; stroke: #cccccc; stroke-linejoin: miter"/>
    </g>
    <g id="line2d_37">
     <path d="M 414.659375 37.22 
L 424.659375 37.22 
L 434.659375 37.22 
" style="fill: none; stroke: #1f77b4; stroke-width: 1.5; stroke-linecap: square"/>
    </g>
    <g id="text_35">
     <!-- AlexNet -->
     <g transform="translate(442.659375 40.72) scale(0.1 -0.1)">
      <use xlink:href="#LibertinusSerif-Regular-41"/>
      <use xlink:href="#LibertinusSerif-Regular-6c" x="69.499985"/>
      <use xlink:href="#LibertinusSerif-Regular-65" x="95.899979"/>
      <use xlink:href="#LibertinusSerif-Regular-78" x="140.599976"/>
      <use xlink:href="#LibertinusSerif-Regular-4e" x="189.59996"/>
      <use xlink:href="#LibertinusSerif-Regular-65" x="259.499954"/>
      <use xlink:href="#LibertinusSerif-Regular-74" x="304.199951"/>
     </g>
    </g>
    <g id="line2d_38">
     <path d="M 414.659375 51.560625 
L 424.659375 51.560625 
L 434.659375 51.560625 
" style="fill: none; stroke: #ff7f0e; stroke-width: 1.5; stroke-linecap: square"/>
    </g>
    <g id="text_36">
     <!-- ResNet-18 -->
     <g transform="translate(442.659375 55.060625) scale(0.1 -0.1)">
      <use xlink:href="#LibertinusSerif-Regular-52"/>
      <use xlink:href="#LibertinusSerif-Regular-65" x="58.699997"/>
      <use xlink:href="#LibertinusSerif-Regular-73" x="103.399994"/>
      <use xlink:href="#LibertinusSerif-Regular-4e" x="142.399979"/>
      <use xlink:href="#LibertinusSerif-Regular-65" x="212.299973"/>
      <use xlink:href="#LibertinusSerif-Regular-74" x="256.999969"/>
      <use xlink:href="#LibertinusSerif-Regular-2d" x="288.59996"/>
      <use xlink:href="#LibertinusSerif-Regular-31" x="322.399948"/>
      <use xlink:href="#LibertinusSerif-Regular-38" x="368.899933"/>
     </g>
    </g>
    <g id="line2d_39">
     <path d="M 414.659375 65.90125 
L 424.659375 65.90125 
L 434.659375 65.90125 
" style="fill: none; stroke: #2ca02c; stroke-width: 1.5; stroke-linecap: square"/>
    </g>
    <g id="text_37">
     <!-- ResNet-34 -->
     <g transform="translate(442.659375 69.40125) scale(0.1 -0.1)">
      <use xlink:href="#LibertinusSerif-Regular-52"/>
      <use xlink:href="#LibertinusSerif-Regular-65" x="58.699997"/>
      <use xlink:href="#LibertinusSerif-Regular-73" x="103.399994"/>
      <use xlink:href="#LibertinusSerif-Regular-4e" x="142.399979"/>
      <use xlink:href="#LibertinusSerif-Regular-65" x="212.299973"/>
      <use xlink:href="#LibertinusSerif-Regular-74" x="256.999969"/>
      <use xlink:href="#LibertinusSerif-Regular-2d" x="288.59996"/>
      <use xlink:href="#LibertinusSerif-Regular-33" x="322.399948"/>
      <use xlink:href="#LibertinusSerif-Regular-34" x="368.899933"/>
     </g>
    </g>
    <g id="line2d_40">
     <path d="M 414.659375 80.241875 
L 424.659375 80.241875 
L 434.659375 80.241875 
" style="fill: none; stroke: #d62728; stroke-width: 1.5; stroke-linecap: square"/>
    </g>
    <g id="text_38">
     <!-- ResNet-50 -->
     <g transform="translate(442.659375 83.741875) scale(0.1 -0.1)">
      <use xlink:href="#LibertinusSerif-Regular-52"/>
      <use xlink:href="#LibertinusSerif-Regular-65" x="58.699997"/>
      <use xlink:href="#LibertinusSerif-Regular-73" x="103.399994"/>
      <use xlink:href="#LibertinusSerif-Regular-4e" x="142.399979"/>
      <use xlink:href="#LibertinusSerif-Regular-65" x="212.299973"/>
      <use xlink:href="#LibertinusSerif-Regular-74" x="256.999969"/>
      <use xlink:href="#LibertinusSerif-Regular-2d" x="288.59996"/>
      <use xlink:href="#LibertinusSerif-Regular-35" x="322.399948"/>
      <use xlink:href="#LibertinusSerif-Regular-30" x="368.899933"/>
     </g>
    </g>
   </g>
  </g>
 </g>
 <defs>
  <clipPath id="p35468cd50c">
   <rect x="42.59" y="24.72" width="204.01" height="150.76"/>
  </clipPath>
  <clipPath id="p967063ff13">
   <rect x="289.19" y="24.72" width="204.01" height="150.76"/>
  </clipPath>
 </defs>
</svg>
