<?xml version="1.0" encoding="utf-8" standalone="no"?>
<!DOCTYPE svg PUBLIC "-//W3C//DTD SVG 1.1//EN"
  "http://www.w3.org/Graphics/SVG/1.1/DTD/svg11.dtd">
<svg xmlns:xlink="http://www.w3.org/1999/xlink" width="719.215405pt" height="288.281125pt" viewBox="0 0 719.215405 288.281125" xmlns="http://www.w3.org/2000/svg" version="1.1">
 <metadata>
  <rdf:RDF xmlns:dc="http://purl.org/dc/elements/1.1/" xmlns:cc="http://creativecommons.org/ns#" xmlns:rdf="http://www.w3.org/1999/02/22-rdf-syntax-ns#">
   <cc:Work>
    <dc:type rdf:resource="http://purl.org/dc/dcmitype/StillImage"/>
    <dc:date>2024-01-20T21:47:12.565759</dc:date>
    <dc:format>image/svg+xml</dc:format>
    <dc:creator>
     <cc:Agent>
      <dc:title>Matplotlib v3.8.2, https://matplotlib.org/</dc:title>
     </cc:Agent>
    </dc:creator>
   </cc:Work>
  </rdf:RDF>
 </metadata>
 <defs>
  <style type="text/css">*{stroke-linejoin: round; stroke-linecap: butt}</style>
 </defs>
 <g id="figure_1">
  <g id="patch_1">
   <path d="M 0 288.281125 
L 719.215405 288.281125 
L 719.215405 0 
L 0 0 
z
" style="fill: #ffffff"/>
  </g>
  <g id="axes_1">
   <g id="patch_2">
    <path d="M 36.361406 245.848312 
L 340.725043 245.848312 
L 340.725043 24.088312 
L 36.361406 24.088312 
z
" style="fill: #ffffff"/>
   </g>
   <g id="matplotlib.axis_1">
    <g id="xtick_1">
     <g id="line2d_1">
      <defs>
       <path id="m4e8baa5bec" d="M 0 0 
L 0 3.5 
" style="stroke: #000000; stroke-width: 0.8"/>
      </defs>
      <g>
       <use xlink:href="#m4e8baa5bec" x="36.361406" y="245.848312" style="stroke: #000000; stroke-width: 0.8"/>
      </g>
     </g>
     <g id="text_1">
      <!-- 0 -->
      <g transform="translate(33.338906 261.921906) scale(0.13 -0.13)">
       <defs>
        <path id="LibertinusSerif-Regular-30" d="M 1459 -64 
C 1952 -64 2701 435 2701 1939 
C 2701 2573 2547 3117 2266 3488 
C 2099 3712 1830 3904 1485 3904 
C 851 3904 250 3149 250 1882 
C 250 1197 461 557 813 205 
C 992 26 1210 -64 1459 -64 
z
M 1485 3680 
C 1594 3680 1696 3642 1773 3571 
C 1971 3405 2144 2918 2144 2061 
C 2144 1472 2125 1069 2035 742 
C 1894 218 1581 160 1466 160 
C 870 160 806 1254 806 1811 
C 806 3386 1197 3680 1485 3680 
z
" transform="scale(0.015625)"/>
       </defs>
       <use xlink:href="#LibertinusSerif-Regular-30"/>
      </g>
     </g>
    </g>
    <g id="xtick_2">
     <g id="line2d_2">
      <g>
       <use xlink:href="#m4e8baa5bec" x="96.631433" y="245.848312" style="stroke: #000000; stroke-width: 0.8"/>
      </g>
     </g>
     <g id="text_2">
      <!-- 20 -->
      <g transform="translate(90.586433 261.921906) scale(0.13 -0.13)">
       <defs>
        <path id="LibertinusSerif-Regular-32" d="M 390 2995 
C 390 2861 512 2746 646 2746 
C 755 2746 947 2861 947 3002 
C 947 3053 934 3091 922 3136 
C 909 3181 870 3238 870 3290 
C 870 3450 1037 3680 1504 3680 
C 1734 3680 2061 3520 2061 2906 
C 2061 2496 1914 2163 1536 1779 
L 1062 1312 
C 435 672 333 365 333 -13 
C 333 -13 659 0 864 0 
L 1984 0 
C 2189 0 2483 -13 2483 -13 
C 2566 326 2630 806 2637 998 
C 2598 1030 2515 1043 2451 1030 
C 2342 576 2234 416 2003 416 
L 864 416 
C 864 723 1306 1158 1338 1190 
L 1984 1811 
C 2349 2163 2624 2445 2624 2931 
C 2624 3622 2061 3904 1542 3904 
C 832 3904 390 3379 390 2995 
z
" transform="scale(0.015625)"/>
       </defs>
       <use xlink:href="#LibertinusSerif-Regular-32"/>
       <use xlink:href="#LibertinusSerif-Regular-30" x="46.499985"/>
      </g>
     </g>
    </g>
    <g id="xtick_3">
     <g id="line2d_3">
      <g>
       <use xlink:href="#m4e8baa5bec" x="156.90146" y="245.848312" style="stroke: #000000; stroke-width: 0.8"/>
      </g>
     </g>
     <g id="text_3">
      <!-- 40 -->
      <g transform="translate(150.85646 261.921906) scale(0.13 -0.13)">
       <defs>
        <path id="LibertinusSerif-Regular-34" d="M 2752 1402 
L 2221 1402 
L 2221 3270 
C 2221 3590 2221 3840 2234 3891 
L 2221 3904 
L 2016 3904 
C 1971 3904 1939 3866 1914 3834 
C 1510 3341 768 2285 179 1370 
C 198 1274 237 1101 429 1101 
L 1734 1101 
L 1734 512 
C 1734 218 1491 218 1216 198 
C 1178 160 1178 26 1216 -13 
C 1421 -6 1677 0 1971 0 
C 2221 0 2464 -6 2669 -13 
C 2707 26 2707 160 2669 198 
C 2355 224 2221 211 2221 512 
L 2221 1101 
L 2662 1101 
C 2752 1101 2848 1222 2848 1299 
C 2848 1363 2822 1402 2752 1402 
z
M 1734 3245 
L 1734 1402 
L 512 1402 
C 838 1926 1293 2643 1734 3245 
z
" transform="scale(0.015625)"/>
       </defs>
       <use xlink:href="#LibertinusSerif-Regular-34"/>
       <use xlink:href="#LibertinusSerif-Regular-30" x="46.499985"/>
      </g>
     </g>
    </g>
    <g id="xtick_4">
     <g id="line2d_4">
      <g>
       <use xlink:href="#m4e8baa5bec" x="217.171487" y="245.848312" style="stroke: #000000; stroke-width: 0.8"/>
      </g>
     </g>
     <g id="text_4">
      <!-- 60 -->
      <g transform="translate(211.126487 261.921906) scale(0.13 -0.13)">
       <defs>
        <path id="LibertinusSerif-Regular-36" d="M 922 2195 
C 1094 2778 1504 3424 2355 3744 
C 2355 3821 2330 3878 2278 3910 
C 1632 3718 1235 3450 877 3034 
C 480 2573 282 1990 282 1485 
C 282 186 1018 -70 1510 -70 
C 2349 -70 2694 742 2694 1293 
C 2694 1843 2400 2336 1530 2336 
C 1363 2336 1114 2285 922 2195 
z
M 864 1965 
C 1075 2106 1286 2112 1395 2112 
C 2022 2112 2163 1498 2163 1178 
C 2163 474 1894 154 1581 154 
C 1178 154 813 371 813 1466 
C 813 1613 826 1779 864 1965 
z
" transform="scale(0.015625)"/>
       </defs>
       <use xlink:href="#LibertinusSerif-Regular-36"/>
       <use xlink:href="#LibertinusSerif-Regular-30" x="46.499985"/>
      </g>
     </g>
    </g>
    <g id="xtick_5">
     <g id="line2d_5">
      <g>
       <use xlink:href="#m4e8baa5bec" x="277.441514" y="245.848312" style="stroke: #000000; stroke-width: 0.8"/>
      </g>
     </g>
     <g id="text_5">
      <!-- 80 -->
      <g transform="translate(271.396514 261.921906) scale(0.13 -0.13)">
       <defs>
        <path id="LibertinusSerif-Regular-38" d="M 2515 3104 
C 2515 3565 2157 3904 1530 3904 
C 877 3904 454 3514 454 3021 
C 454 2662 627 2400 1018 2157 
L 1184 2054 
C 998 1958 826 1843 666 1702 
C 403 1472 294 1184 294 934 
C 294 282 755 -64 1434 -64 
C 2272 -64 2682 550 2682 1037 
C 2682 1408 2522 1734 2182 1939 
L 1728 2214 
C 2029 2362 2515 2694 2515 3104 
z
M 1446 160 
C 1158 160 723 358 723 934 
C 723 1126 806 1574 1357 1939 
L 1658 1760 
C 2054 1517 2214 1216 2214 909 
C 2214 269 1734 160 1446 160 
z
M 1498 3680 
C 1914 3680 2067 3405 2067 3110 
C 2067 2765 1728 2477 1555 2349 
L 1357 2470 
C 954 2733 909 2944 909 3142 
C 909 3437 1114 3680 1498 3680 
z
" transform="scale(0.015625)"/>
       </defs>
       <use xlink:href="#LibertinusSerif-Regular-38"/>
       <use xlink:href="#LibertinusSerif-Regular-30" x="46.499985"/>
      </g>
     </g>
    </g>
    <g id="xtick_6">
     <g id="line2d_6">
      <g>
       <use xlink:href="#m4e8baa5bec" x="337.711541" y="245.848312" style="stroke: #000000; stroke-width: 0.8"/>
      </g>
     </g>
     <g id="text_6">
      <!-- 100 -->
      <g transform="translate(328.644041 261.921906) scale(0.13 -0.13)">
       <defs>
        <path id="LibertinusSerif-Regular-31" d="M 1843 781 
L 1843 3002 
C 1843 3386 1850 3776 1862 3859 
C 1862 3891 1850 3891 1824 3891 
C 1472 3674 1133 3514 570 3251 
C 582 3181 608 3117 666 3078 
C 960 3200 1101 3238 1222 3238 
C 1331 3238 1350 3085 1350 2867 
L 1350 781 
C 1350 250 1178 218 730 198 
C 691 160 691 26 730 -13 
C 1043 -6 1274 0 1619 0 
C 1926 0 2080 -6 2400 -13 
C 2438 26 2438 160 2400 198 
C 1952 218 1843 250 1843 781 
z
" transform="scale(0.015625)"/>
       </defs>
       <use xlink:href="#LibertinusSerif-Regular-31"/>
       <use xlink:href="#LibertinusSerif-Regular-30" x="46.499985"/>
       <use xlink:href="#LibertinusSerif-Regular-30" x="92.999969"/>
      </g>
     </g>
    </g>
    <g id="text_7">
     <!-- Epoch -->
     <g transform="translate(171.993615 278.038312) scale(0.13 -0.13)">
      <defs>
       <path id="LibertinusSerif-Regular-45" d="M 1798 2310 
L 1216 2310 
L 1216 3462 
C 1216 3744 1293 3872 1638 3872 
L 2118 3872 
C 2598 3872 2701 3616 2842 3174 
C 2918 3162 2989 3174 3053 3206 
C 3021 3469 2925 4083 2912 4134 
C 2912 4147 2906 4154 2886 4154 
C 2778 4134 2726 4128 2573 4128 
L 941 4128 
C 749 4128 371 4134 115 4141 
C 77 4102 77 3968 115 3930 
C 563 3910 672 3878 672 3347 
L 672 781 
C 672 250 563 218 115 198 
C 77 160 77 26 115 -13 
C 352 -6 736 0 947 0 
L 2323 0 
C 2630 0 3142 -13 3142 -13 
C 3232 307 3328 730 3379 1056 
C 3315 1094 3238 1107 3155 1088 
C 3027 627 2803 250 2317 250 
L 1574 250 
C 1306 250 1216 352 1216 653 
L 1216 2067 
L 1798 2067 
C 2342 2067 2362 1920 2381 1632 
C 2419 1594 2554 1594 2592 1632 
C 2586 1798 2579 1978 2579 2195 
C 2579 2374 2586 2592 2592 2746 
C 2554 2784 2419 2784 2381 2746 
C 2362 2394 2342 2310 1798 2310 
z
" transform="scale(0.015625)"/>
       <path id="LibertinusSerif-Regular-70" d="M 998 2355 
C 992 2547 979 2714 947 2778 
C 934 2810 922 2829 870 2829 
C 691 2758 525 2701 83 2643 
C 70 2605 83 2502 96 2464 
C 442 2432 512 2400 512 2029 
L 512 -704 
C 512 -1235 442 -1267 51 -1286 
C 13 -1325 13 -1459 51 -1498 
C 275 -1491 512 -1485 768 -1485 
C 1024 -1485 1331 -1491 1542 -1498 
C 1581 -1459 1581 -1325 1542 -1286 
C 1088 -1261 1018 -1235 1018 -704 
L 1018 -13 
C 1018 70 1043 64 1107 38 
C 1267 -26 1459 -64 1664 -64 
C 2022 -64 2342 45 2605 294 
C 2906 589 3078 986 3078 1504 
C 3078 2182 2598 2810 1946 2810 
C 1651 2810 1325 2618 1069 2330 
C 1030 2291 1005 2291 998 2355 
z
M 1120 2118 
C 1286 2323 1581 2515 1766 2515 
C 2176 2515 2528 2054 2528 1331 
C 2528 806 2342 154 1626 154 
C 1510 154 1286 186 1171 288 
C 1043 403 1018 442 1018 672 
L 1018 1837 
C 1018 1971 1043 2029 1120 2118 
z
" transform="scale(0.015625)"/>
       <path id="LibertinusSerif-Regular-6f" d="M 262 1312 
C 262 659 698 -64 1606 -64 
C 2016 -64 2330 83 2547 294 
C 2835 576 2963 979 2963 1370 
C 2963 2035 2598 2810 1619 2810 
C 1197 2810 851 2637 614 2362 
C 384 2086 262 1715 262 1312 
z
M 1523 2586 
C 2074 2586 2413 2086 2413 1165 
C 2413 358 1997 160 1696 160 
C 1030 160 813 966 813 1459 
C 813 2016 947 2586 1523 2586 
z
" transform="scale(0.015625)"/>
       <path id="LibertinusSerif-Regular-63" d="M 2547 582 
C 2522 640 2470 666 2413 672 
C 2195 390 1920 250 1645 250 
C 1178 250 787 723 787 1472 
C 787 2176 1094 2598 1517 2598 
C 1894 2598 1946 2374 1971 2150 
C 1990 1978 2080 1920 2214 1920 
C 2349 1920 2528 2003 2528 2202 
C 2528 2554 2163 2810 1549 2810 
C 915 2810 237 2240 237 1331 
C 237 506 698 -64 1504 -64 
C 1888 -64 2227 58 2547 582 
z
" transform="scale(0.015625)"/>
       <path id="LibertinusSerif-Regular-68" d="M 1069 1830 
C 1069 1965 1126 2042 1178 2099 
C 1421 2336 1747 2477 1997 2477 
C 2125 2477 2259 2394 2336 2246 
C 2400 2118 2413 1946 2413 1754 
L 2413 781 
C 2413 256 2349 230 2016 198 
C 1984 160 1984 26 2016 -13 
C 2195 -6 2413 0 2669 0 
C 2925 0 3136 -6 3347 -13 
C 3379 26 3379 160 3347 198 
C 2989 230 2918 256 2918 781 
L 2918 1734 
C 2918 2086 2893 2400 2746 2592 
C 2637 2733 2438 2810 2214 2810 
C 1901 2810 1517 2726 1126 2291 
C 1126 2285 1120 2285 1114 2278 
C 1094 2253 1062 2214 1062 2291 
L 1069 3731 
C 1069 4147 1094 4403 1094 4403 
C 1094 4448 1069 4467 1011 4467 
C 851 4403 371 4314 115 4294 
C 102 4243 115 4141 154 4102 
C 173 4102 192 4102 211 4102 
C 493 4083 563 4083 563 3578 
L 563 781 
C 563 250 486 224 115 198 
C 77 160 77 26 115 -13 
C 326 -6 563 0 819 0 
C 1062 0 1274 -6 1453 -13 
C 1491 26 1491 160 1453 198 
C 1126 224 1069 250 1069 781 
L 1069 1830 
z
" transform="scale(0.015625)"/>
      </defs>
      <use xlink:href="#LibertinusSerif-Regular-45"/>
      <use xlink:href="#LibertinusSerif-Regular-70" x="55.699997"/>
      <use xlink:href="#LibertinusSerif-Regular-6f" x="107.599991"/>
      <use xlink:href="#LibertinusSerif-Regular-63" x="157.999985"/>
      <use xlink:href="#LibertinusSerif-Regular-68" x="200.799973"/>
     </g>
    </g>
   </g>
   <g id="matplotlib.axis_2">
    <g id="ytick_1">
     <g id="line2d_7">
      <defs>
       <path id="m3c698ecc55" d="M 0 0 
L -3.5 0 
" style="stroke: #000000; stroke-width: 0.8"/>
      </defs>
      <g>
       <use xlink:href="#m3c698ecc55" x="36.361406" y="238.862062" style="stroke: #000000; stroke-width: 0.8"/>
      </g>
     </g>
     <g id="text_8">
      <!-- 0 -->
      <g transform="translate(23.316406 243.398859) scale(0.13 -0.13)">
       <use xlink:href="#LibertinusSerif-Regular-30"/>
      </g>
     </g>
    </g>
    <g id="ytick_2">
     <g id="line2d_8">
      <g>
       <use xlink:href="#m3c698ecc55" x="36.361406" y="209.450732" style="stroke: #000000; stroke-width: 0.8"/>
      </g>
     </g>
     <g id="text_9">
      <!-- 1 -->
      <g transform="translate(23.316406 213.987529) scale(0.13 -0.13)">
       <use xlink:href="#LibertinusSerif-Regular-31"/>
      </g>
     </g>
    </g>
    <g id="ytick_3">
     <g id="line2d_9">
      <g>
       <use xlink:href="#m3c698ecc55" x="36.361406" y="180.039403" style="stroke: #000000; stroke-width: 0.8"/>
      </g>
     </g>
     <g id="text_10">
      <!-- 2 -->
      <g transform="translate(23.316406 184.5762) scale(0.13 -0.13)">
       <use xlink:href="#LibertinusSerif-Regular-32"/>
      </g>
     </g>
    </g>
    <g id="ytick_4">
     <g id="line2d_10">
      <g>
       <use xlink:href="#m3c698ecc55" x="36.361406" y="150.628073" style="stroke: #000000; stroke-width: 0.8"/>
      </g>
     </g>
     <g id="text_11">
      <!-- 3 -->
      <g transform="translate(23.316406 155.16487) scale(0.13 -0.13)">
       <defs>
        <path id="LibertinusSerif-Regular-33" d="M 1376 3680 
C 1651 3680 1907 3514 1907 3104 
C 1907 2784 1536 2291 902 2202 
L 934 1997 
C 1043 2010 1158 2010 1242 2010 
C 1606 2010 2080 1907 2080 1184 
C 2080 333 1510 160 1286 160 
C 960 160 902 307 826 422 
C 762 512 678 589 550 589 
C 416 589 282 467 282 365 
C 282 109 819 -64 1203 -64 
C 1965 -64 2643 429 2643 1274 
C 2643 1971 2118 2221 1741 2285 
L 1734 2298 
C 2259 2547 2406 2810 2406 3149 
C 2406 3341 2362 3494 2208 3654 
C 2067 3795 1843 3904 1510 3904 
C 570 3904 301 3290 301 3078 
C 301 2989 365 2861 518 2861 
C 742 2861 768 3072 768 3194 
C 768 3603 1210 3680 1376 3680 
z
" transform="scale(0.015625)"/>
       </defs>
       <use xlink:href="#LibertinusSerif-Regular-33"/>
      </g>
     </g>
    </g>
    <g id="ytick_5">
     <g id="line2d_11">
      <g>
       <use xlink:href="#m3c698ecc55" x="36.361406" y="121.216744" style="stroke: #000000; stroke-width: 0.8"/>
      </g>
     </g>
     <g id="text_12">
      <!-- 4 -->
      <g transform="translate(23.316406 125.753541) scale(0.13 -0.13)">
       <use xlink:href="#LibertinusSerif-Regular-34"/>
      </g>
     </g>
    </g>
    <g id="ytick_6">
     <g id="line2d_12">
      <g>
       <use xlink:href="#m3c698ecc55" x="36.361406" y="91.805414" style="stroke: #000000; stroke-width: 0.8"/>
      </g>
     </g>
     <g id="text_13">
      <!-- 5 -->
      <g transform="translate(23.316406 96.342211) scale(0.13 -0.13)">
       <defs>
        <path id="LibertinusSerif-Regular-35" d="M 2042 1210 
C 2042 602 1722 154 1338 154 
C 1094 154 1011 314 915 442 
C 832 550 723 646 589 646 
C 467 646 346 538 346 410 
C 346 147 890 -70 1254 -70 
C 2048 -70 2611 518 2611 1325 
C 2611 1946 2182 2502 1466 2502 
C 1190 2502 954 2445 838 2400 
L 966 3469 
C 1203 3443 1408 3411 1715 3411 
C 1907 3411 2125 3424 2387 3450 
L 2490 3885 
L 2445 3910 
C 2080 3872 1734 3840 1395 3840 
C 1158 3840 928 3853 704 3872 
L 486 2029 
C 826 2157 1069 2182 1299 2182 
C 1715 2182 2042 1907 2042 1210 
z
" transform="scale(0.015625)"/>
       </defs>
       <use xlink:href="#LibertinusSerif-Regular-35"/>
      </g>
     </g>
    </g>
    <g id="ytick_7">
     <g id="line2d_13">
      <g>
       <use xlink:href="#m3c698ecc55" x="36.361406" y="62.394085" style="stroke: #000000; stroke-width: 0.8"/>
      </g>
     </g>
     <g id="text_14">
      <!-- 6 -->
      <g transform="translate(23.316406 66.930882) scale(0.13 -0.13)">
       <use xlink:href="#LibertinusSerif-Regular-36"/>
      </g>
     </g>
    </g>
    <g id="ytick_8">
     <g id="line2d_14">
      <g>
       <use xlink:href="#m3c698ecc55" x="36.361406" y="32.982755" style="stroke: #000000; stroke-width: 0.8"/>
      </g>
     </g>
     <g id="text_15">
      <!-- 7 -->
      <g transform="translate(23.316406 37.519552) scale(0.13 -0.13)">
       <defs>
        <path id="LibertinusSerif-Regular-37" d="M 1088 3424 
L 2234 3424 
C 1734 2182 1229 934 794 -38 
L 845 -83 
L 1280 -64 
C 1645 1024 1997 2086 2714 3834 
L 2611 3910 
C 2502 3878 2362 3840 2118 3840 
L 800 3840 
C 582 3840 595 3904 480 3930 
C 461 3930 454 3930 454 3910 
C 448 3603 378 3219 326 2886 
C 397 2867 461 2861 531 2867 
C 672 3379 883 3424 1088 3424 
z
" transform="scale(0.015625)"/>
       </defs>
       <use xlink:href="#LibertinusSerif-Regular-37"/>
      </g>
     </g>
    </g>
    <g id="text_16">
     <!-- Loss -->
     <g transform="translate(16.273594 146.746516) rotate(-90) scale(0.13 -0.13)">
      <defs>
       <path id="LibertinusSerif-Regular-4c" d="M 954 0 
L 2317 0 
C 2490 0 3078 -13 3078 -13 
C 3142 307 3206 723 3245 1056 
C 3181 1088 3110 1101 3034 1088 
C 2906 627 2669 250 1990 250 
L 1587 250 
C 1338 250 1222 371 1222 698 
L 1222 3347 
C 1222 3878 1331 3910 1779 3930 
C 1818 3968 1818 4102 1779 4141 
C 1491 4134 1190 4128 947 4128 
C 717 4128 416 4134 122 4141 
C 83 4102 83 3968 122 3930 
C 570 3910 678 3878 678 3347 
L 678 781 
C 678 250 570 218 122 198 
C 83 160 83 26 122 -13 
C 371 -6 736 0 954 0 
z
" transform="scale(0.015625)"/>
       <path id="LibertinusSerif-Regular-73" d="M 307 883 
C 333 570 352 269 352 0 
C 416 13 480 19 512 19 
C 557 19 595 19 640 6 
C 813 -38 986 -64 1222 -64 
C 1581 -64 2240 109 2240 742 
C 2240 1178 1926 1434 1491 1594 
C 1107 1741 851 1837 851 2189 
C 851 2451 1082 2598 1299 2598 
C 1440 2598 1811 2547 1894 2003 
C 1933 1965 2061 1971 2099 2010 
C 2118 2240 2131 2477 2138 2688 
C 1939 2720 1632 2810 1299 2810 
C 826 2810 397 2502 397 2093 
C 397 1626 608 1427 1101 1222 
C 1632 1005 1754 870 1754 595 
C 1754 282 1446 147 1210 147 
C 960 147 819 230 755 301 
C 614 448 544 730 506 890 
C 467 928 346 922 307 883 
z
" transform="scale(0.015625)"/>
      </defs>
      <use xlink:href="#LibertinusSerif-Regular-4c"/>
      <use xlink:href="#LibertinusSerif-Regular-6f" x="52.799988"/>
      <use xlink:href="#LibertinusSerif-Regular-73" x="103.199982"/>
      <use xlink:href="#LibertinusSerif-Regular-73" x="142.199966"/>
     </g>
    </g>
   </g>
   <g id="line2d_15">
    <path d="M 39.374908 34.168312 
L 42.388409 128.510999 
L 45.40191 186.430535 
L 48.415412 211.206534 
L 51.428913 221.901708 
L 54.442414 226.571031 
L 57.455916 228.841391 
L 60.469417 230.138844 
L 63.482918 230.958525 
L 66.49642 231.552954 
L 69.509921 232.017697 
L 72.523422 232.38439 
L 75.536924 232.665111 
L 78.550425 232.904614 
L 81.563927 233.101853 
L 84.577428 233.274097 
L 87.590929 233.43069 
L 90.604431 233.565626 
L 93.617932 233.693036 
L 96.631433 233.80577 
L 99.644935 233.901223 
L 102.658436 233.984206 
L 105.671937 234.067742 
L 108.685439 234.146406 
L 111.69894 234.213376 
L 114.712441 234.2799 
L 117.725943 234.332651 
L 120.739444 234.394031 
L 123.752945 234.443819 
L 126.766447 234.491087 
L 129.779948 234.531512 
L 132.793449 234.576932 
L 135.806951 234.617594 
L 138.820452 234.657974 
L 141.833954 234.697362 
L 144.847455 234.734472 
L 147.860956 234.768524 
L 150.874458 234.800523 
L 153.887959 234.832571 
L 156.90146 234.8631 
L 159.914962 234.892369 
L 162.928463 234.92246 
L 165.941964 234.949426 
L 168.955466 234.97705 
L 171.968967 234.99863 
L 174.982468 235.021843 
L 177.99597 235.046623 
L 181.009471 235.069434 
L 184.022972 235.092459 
L 187.036474 235.116163 
L 190.049975 235.136048 
L 193.063476 235.157728 
L 196.076978 235.178333 
L 199.090479 235.194716 
L 202.103981 235.212951 
L 205.117482 235.231983 
L 208.130983 235.25063 
L 211.144485 235.270525 
L 214.157986 235.286184 
L 217.171487 235.30431 
L 220.184989 235.32129 
L 223.19849 235.334612 
L 226.211991 235.352206 
L 229.225493 235.368079 
L 232.238994 235.382509 
L 235.252495 235.397489 
L 238.265997 235.41227 
L 241.279498 235.425048 
L 244.292999 235.43962 
L 247.306501 235.453093 
L 250.320002 235.467059 
L 253.333503 235.478049 
L 256.347005 235.49278 
L 259.360506 235.506214 
L 262.374008 235.51758 
L 265.387509 235.528189 
L 268.40101 235.542708 
L 271.414512 235.554367 
L 274.428013 235.564673 
L 277.441514 235.576276 
L 280.455016 235.588641 
L 283.468517 235.59922 
L 286.482018 235.609918 
L 289.49552 235.619999 
L 292.509021 235.631931 
L 295.522522 235.64219 
L 298.536024 235.651705 
L 301.549525 235.660879 
L 304.563026 235.668815 
L 307.576528 235.680727 
L 310.590029 235.688039 
L 313.60353 235.698962 
L 316.617032 235.708357 
L 319.630533 235.71742 
L 322.644035 235.72533 
L 325.657536 235.734345 
L 328.671037 235.742638 
L 331.684539 235.752693 
L 334.69804 235.760592 
L 337.711541 235.768312 
" clip-path="url(#p0371d0befe)" style="fill: none; stroke: #1f77b4; stroke-width: 1.5; stroke-linecap: square"/>
   </g>
   <g id="patch_3">
    <path d="M 36.361406 245.848312 
L 36.361406 24.088312 
" style="fill: none; stroke: #000000; stroke-width: 0.8; stroke-linejoin: miter; stroke-linecap: square"/>
   </g>
   <g id="patch_4">
    <path d="M 340.725043 245.848312 
L 340.725043 24.088312 
" style="fill: none; stroke: #000000; stroke-width: 0.8; stroke-linejoin: miter; stroke-linecap: square"/>
   </g>
   <g id="patch_5">
    <path d="M 36.361406 245.848312 
L 340.725043 245.848312 
" style="fill: none; stroke: #000000; stroke-width: 0.8; stroke-linejoin: miter; stroke-linecap: square"/>
   </g>
   <g id="patch_6">
    <path d="M 36.361406 24.088312 
L 340.725043 24.088312 
" style="fill: none; stroke: #000000; stroke-width: 0.8; stroke-linejoin: miter; stroke-linecap: square"/>
   </g>
   <g id="text_17">
    <!-- Loss Curve -->
    <g transform="translate(153.014224 18.088312) scale(0.156 -0.156)">
     <defs>
      <path id="LibertinusSerif-Regular-20" transform="scale(0.015625)"/>
      <path id="LibertinusSerif-Regular-43" d="M 2285 -64 
C 2906 -64 3475 230 3910 800 
C 3878 858 3834 896 3763 896 
C 3309 397 2874 198 2278 198 
C 1414 198 819 1171 819 2106 
C 819 2656 966 3117 1197 3405 
C 1517 3795 1888 3974 2221 3974 
C 3104 3974 3456 3450 3622 2899 
C 3699 2874 3763 2893 3834 2931 
C 3802 3264 3757 3571 3693 3923 
C 3366 3955 3078 4211 2291 4211 
C 1747 4211 1293 4013 915 3667 
C 493 3277 237 2650 237 1984 
C 237 870 909 -64 2285 -64 
z
" transform="scale(0.015625)"/>
      <path id="LibertinusSerif-Regular-75" d="M 1389 -64 
C 1638 -64 1939 64 2253 320 
C 2285 346 2342 358 2349 314 
C 2368 154 2419 -64 2419 -64 
C 2470 -83 2502 -77 2541 -64 
C 2682 51 2906 147 3296 192 
C 3334 230 3334 326 3296 365 
C 2886 397 2829 518 2829 832 
L 2829 2061 
C 2829 2253 2854 2720 2854 2720 
C 2854 2739 2835 2758 2803 2758 
C 2771 2752 2675 2746 2579 2746 
C 2374 2746 2144 2752 1926 2758 
C 1888 2720 1888 2586 1926 2547 
C 2240 2528 2323 2451 2323 2029 
L 2323 794 
C 2323 672 2310 621 2221 544 
C 1984 339 1741 237 1581 237 
C 1389 237 1069 326 1069 896 
L 1069 2061 
C 1069 2253 1094 2720 1094 2720 
C 1094 2739 1075 2758 1043 2758 
C 1011 2752 915 2746 819 2746 
C 614 2746 384 2752 166 2758 
C 128 2720 128 2586 166 2547 
C 474 2522 563 2451 563 2035 
L 563 806 
C 563 365 755 -64 1389 -64 
z
" transform="scale(0.015625)"/>
      <path id="LibertinusSerif-Regular-72" d="M 1126 2291 
C 1114 2547 1107 2714 1075 2778 
C 1062 2810 1050 2829 998 2829 
C 819 2758 653 2701 211 2643 
C 198 2605 211 2502 224 2464 
C 570 2432 640 2400 640 2029 
L 640 781 
C 640 250 563 224 166 198 
C 128 160 128 26 166 -13 
C 390 -6 640 0 896 0 
C 1152 0 1446 -6 1670 -13 
C 1709 26 1709 160 1670 198 
C 1222 230 1146 250 1146 781 
L 1146 1670 
C 1146 1837 1222 1984 1299 2099 
C 1370 2202 1517 2413 1594 2413 
C 1651 2413 1709 2400 1760 2330 
C 1805 2266 1882 2182 1990 2182 
C 2144 2182 2291 2342 2291 2502 
C 2291 2624 2176 2810 1907 2810 
C 1606 2810 1344 2528 1197 2278 
C 1158 2208 1126 2259 1126 2291 
z
" transform="scale(0.015625)"/>
      <path id="LibertinusSerif-Regular-76" d="M 2080 2547 
C 2426 2522 2464 2445 2330 2118 
L 1811 864 
C 1709 614 1677 614 1574 883 
L 1114 2118 
C 998 2426 973 2502 1312 2547 
C 1350 2586 1350 2720 1312 2758 
C 1101 2752 877 2746 666 2746 
C 454 2746 262 2752 70 2758 
C 32 2720 32 2586 70 2547 
C 410 2509 454 2406 582 2080 
L 1402 58 
C 1440 -38 1478 -77 1562 -77 
C 1626 -77 1670 -38 1715 70 
L 2566 2074 
C 2688 2355 2758 2515 3117 2547 
C 3155 2586 3155 2720 3117 2758 
C 2989 2752 2835 2746 2669 2746 
C 2458 2746 2240 2752 2080 2758 
C 2042 2720 2042 2586 2080 2547 
z
" transform="scale(0.015625)"/>
      <path id="LibertinusSerif-Regular-65" d="M 2470 595 
C 2234 352 2048 250 1677 250 
C 1446 250 1178 384 979 710 
C 851 922 774 1216 774 1587 
L 2477 1574 
C 2554 1574 2598 1613 2598 1683 
C 2598 2221 2406 2797 1517 2797 
C 960 2797 237 2266 237 1293 
C 237 934 326 589 538 346 
C 755 90 1056 -64 1517 -64 
C 2003 -64 2349 160 2605 493 
C 2586 557 2547 589 2470 595 
z
M 794 1805 
C 915 2528 1363 2586 1517 2586 
C 1760 2586 2048 2451 2048 1914 
C 2048 1856 2022 1824 1952 1824 
L 794 1805 
z
" transform="scale(0.015625)"/>
     </defs>
     <use xlink:href="#LibertinusSerif-Regular-4c"/>
     <use xlink:href="#LibertinusSerif-Regular-6f" x="52.799988"/>
     <use xlink:href="#LibertinusSerif-Regular-73" x="103.199982"/>
     <use xlink:href="#LibertinusSerif-Regular-73" x="142.199966"/>
     <use xlink:href="#LibertinusSerif-Regular-20" x="181.199951"/>
     <use xlink:href="#LibertinusSerif-Regular-43" x="206.199936"/>
     <use xlink:href="#LibertinusSerif-Regular-75" x="270.799927"/>
     <use xlink:href="#LibertinusSerif-Regular-72" x="323.899918"/>
     <use xlink:href="#LibertinusSerif-Regular-76" x="361.099915"/>
     <use xlink:href="#LibertinusSerif-Regular-65" x="410.799911"/>
    </g>
   </g>
  </g>
  <g id="axes_2">
   <g id="patch_7">
    <path d="M 401.59777 245.848312 
L 705.961406 245.848312 
L 705.961406 24.088312 
L 401.59777 24.088312 
z
" style="fill: #ffffff"/>
   </g>
   <g id="matplotlib.axis_3">
    <g id="xtick_7">
     <g id="line2d_16">
      <g>
       <use xlink:href="#m4e8baa5bec" x="401.59777" y="245.848312" style="stroke: #000000; stroke-width: 0.8"/>
      </g>
     </g>
     <g id="text_18">
      <!-- 0 -->
      <g transform="translate(398.57527 261.921906) scale(0.13 -0.13)">
       <use xlink:href="#LibertinusSerif-Regular-30"/>
      </g>
     </g>
    </g>
    <g id="xtick_8">
     <g id="line2d_17">
      <g>
       <use xlink:href="#m4e8baa5bec" x="461.867797" y="245.848312" style="stroke: #000000; stroke-width: 0.8"/>
      </g>
     </g>
     <g id="text_19">
      <!-- 20 -->
      <g transform="translate(455.822797 261.921906) scale(0.13 -0.13)">
       <use xlink:href="#LibertinusSerif-Regular-32"/>
       <use xlink:href="#LibertinusSerif-Regular-30" x="46.499985"/>
      </g>
     </g>
    </g>
    <g id="xtick_9">
     <g id="line2d_18">
      <g>
       <use xlink:href="#m4e8baa5bec" x="522.137824" y="245.848312" style="stroke: #000000; stroke-width: 0.8"/>
      </g>
     </g>
     <g id="text_20">
      <!-- 40 -->
      <g transform="translate(516.092824 261.921906) scale(0.13 -0.13)">
       <use xlink:href="#LibertinusSerif-Regular-34"/>
       <use xlink:href="#LibertinusSerif-Regular-30" x="46.499985"/>
      </g>
     </g>
    </g>
    <g id="xtick_10">
     <g id="line2d_19">
      <g>
       <use xlink:href="#m4e8baa5bec" x="582.407851" y="245.848312" style="stroke: #000000; stroke-width: 0.8"/>
      </g>
     </g>
     <g id="text_21">
      <!-- 60 -->
      <g transform="translate(576.362851 261.921906) scale(0.13 -0.13)">
       <use xlink:href="#LibertinusSerif-Regular-36"/>
       <use xlink:href="#LibertinusSerif-Regular-30" x="46.499985"/>
      </g>
     </g>
    </g>
    <g id="xtick_11">
     <g id="line2d_20">
      <g>
       <use xlink:href="#m4e8baa5bec" x="642.677878" y="245.848312" style="stroke: #000000; stroke-width: 0.8"/>
      </g>
     </g>
     <g id="text_22">
      <!-- 80 -->
      <g transform="translate(636.632878 261.921906) scale(0.13 -0.13)">
       <use xlink:href="#LibertinusSerif-Regular-38"/>
       <use xlink:href="#LibertinusSerif-Regular-30" x="46.499985"/>
      </g>
     </g>
    </g>
    <g id="xtick_12">
     <g id="line2d_21">
      <g>
       <use xlink:href="#m4e8baa5bec" x="702.947905" y="245.848312" style="stroke: #000000; stroke-width: 0.8"/>
      </g>
     </g>
     <g id="text_23">
      <!-- 100 -->
      <g transform="translate(693.880405 261.921906) scale(0.13 -0.13)">
       <use xlink:href="#LibertinusSerif-Regular-31"/>
       <use xlink:href="#LibertinusSerif-Regular-30" x="46.499985"/>
       <use xlink:href="#LibertinusSerif-Regular-30" x="92.999969"/>
      </g>
     </g>
    </g>
    <g id="text_24">
     <!-- Epoch -->
     <g transform="translate(537.229979 278.038312) scale(0.13 -0.13)">
      <use xlink:href="#LibertinusSerif-Regular-45"/>
      <use xlink:href="#LibertinusSerif-Regular-70" x="55.699997"/>
      <use xlink:href="#LibertinusSerif-Regular-6f" x="107.599991"/>
      <use xlink:href="#LibertinusSerif-Regular-63" x="157.999985"/>
      <use xlink:href="#LibertinusSerif-Regular-68" x="200.799973"/>
     </g>
    </g>
   </g>
   <g id="matplotlib.axis_4">
    <g id="ytick_9">
     <g id="line2d_22">
      <g>
       <use xlink:href="#m3c698ecc55" x="401.59777" y="245.848312" style="stroke: #000000; stroke-width: 0.8"/>
      </g>
     </g>
     <g id="text_25">
      <!-- 0.0 -->
      <g transform="translate(379.64777 250.385109) scale(0.13 -0.13)">
       <defs>
        <path id="LibertinusSerif-Regular-2e" d="M 365 275 
C 365 90 518 -64 704 -64 
C 890 -64 1043 90 1043 275 
C 1043 461 890 614 704 614 
C 518 614 365 461 365 275 
z
" transform="scale(0.015625)"/>
       </defs>
       <use xlink:href="#LibertinusSerif-Regular-30"/>
       <use xlink:href="#LibertinusSerif-Regular-2e" x="46.499985"/>
       <use xlink:href="#LibertinusSerif-Regular-30" x="68.499969"/>
      </g>
     </g>
    </g>
    <g id="ytick_10">
     <g id="line2d_23">
      <g>
       <use xlink:href="#m3c698ecc55" x="401.59777" y="201.496312" style="stroke: #000000; stroke-width: 0.8"/>
      </g>
     </g>
     <g id="text_26">
      <!-- 0.2 -->
      <g transform="translate(379.64777 206.033109) scale(0.13 -0.13)">
       <use xlink:href="#LibertinusSerif-Regular-30"/>
       <use xlink:href="#LibertinusSerif-Regular-2e" x="46.499985"/>
       <use xlink:href="#LibertinusSerif-Regular-32" x="68.499969"/>
      </g>
     </g>
    </g>
    <g id="ytick_11">
     <g id="line2d_24">
      <g>
       <use xlink:href="#m3c698ecc55" x="401.59777" y="157.144312" style="stroke: #000000; stroke-width: 0.8"/>
      </g>
     </g>
     <g id="text_27">
      <!-- 0.4 -->
      <g transform="translate(379.64777 161.681109) scale(0.13 -0.13)">
       <use xlink:href="#LibertinusSerif-Regular-30"/>
       <use xlink:href="#LibertinusSerif-Regular-2e" x="46.499985"/>
       <use xlink:href="#LibertinusSerif-Regular-34" x="68.499969"/>
      </g>
     </g>
    </g>
    <g id="ytick_12">
     <g id="line2d_25">
      <g>
       <use xlink:href="#m3c698ecc55" x="401.59777" y="112.792312" style="stroke: #000000; stroke-width: 0.8"/>
      </g>
     </g>
     <g id="text_28">
      <!-- 0.6 -->
      <g transform="translate(379.64777 117.329109) scale(0.13 -0.13)">
       <use xlink:href="#LibertinusSerif-Regular-30"/>
       <use xlink:href="#LibertinusSerif-Regular-2e" x="46.499985"/>
       <use xlink:href="#LibertinusSerif-Regular-36" x="68.499969"/>
      </g>
     </g>
    </g>
    <g id="ytick_13">
     <g id="line2d_26">
      <g>
       <use xlink:href="#m3c698ecc55" x="401.59777" y="68.440312" style="stroke: #000000; stroke-width: 0.8"/>
      </g>
     </g>
     <g id="text_29">
      <!-- 0.8 -->
      <g transform="translate(379.64777 72.977109) scale(0.13 -0.13)">
       <use xlink:href="#LibertinusSerif-Regular-30"/>
       <use xlink:href="#LibertinusSerif-Regular-2e" x="46.499985"/>
       <use xlink:href="#LibertinusSerif-Regular-38" x="68.499969"/>
      </g>
     </g>
    </g>
    <g id="ytick_14">
     <g id="line2d_27">
      <g>
       <use xlink:href="#m3c698ecc55" x="401.59777" y="24.088312" style="stroke: #000000; stroke-width: 0.8"/>
      </g>
     </g>
     <g id="text_30">
      <!-- 1.0 -->
      <g transform="translate(379.64777 28.625109) scale(0.13 -0.13)">
       <use xlink:href="#LibertinusSerif-Regular-31"/>
       <use xlink:href="#LibertinusSerif-Regular-2e" x="46.499985"/>
       <use xlink:href="#LibertinusSerif-Regular-30" x="68.499969"/>
      </g>
     </g>
    </g>
    <g id="text_31">
     <!-- Accuracy -->
     <g transform="translate(372.604957 160.018703) rotate(-90) scale(0.13 -0.13)">
      <defs>
       <path id="LibertinusSerif-Regular-41" d="M 992 506 
L 1344 1434 
C 1376 1517 1414 1542 1568 1542 
L 2918 1542 
L 3290 461 
C 3366 243 3123 218 2816 198 
C 2778 160 2778 26 2816 -13 
C 3053 -6 3405 0 3654 0 
C 3917 0 4160 -6 4384 -13 
C 4422 26 4422 160 4384 198 
C 4134 224 3917 243 3808 550 
L 2490 4211 
C 2394 4154 2221 4083 2138 4083 
L 685 653 
C 518 256 326 218 45 198 
C 6 160 6 26 45 -13 
C 211 -6 422 0 614 0 
C 877 0 1197 -6 1434 -13 
C 1472 26 1472 160 1434 198 
C 1190 218 890 243 992 506 
z
M 1683 1811 
C 1542 1811 1498 1830 1523 1894 
L 2176 3552 
L 2214 3552 
L 2816 1811 
L 1683 1811 
z
" transform="scale(0.015625)"/>
       <path id="LibertinusSerif-Regular-61" d="M 1875 307 
C 1914 109 1984 -64 2304 -64 
C 2547 -64 2778 45 2912 173 
C 2899 250 2874 307 2803 346 
C 2758 307 2650 243 2566 243 
C 2381 243 2374 493 2374 787 
L 2374 1728 
C 2374 2637 1875 2810 1408 2810 
C 883 2810 352 2464 352 2099 
C 352 1946 429 1869 576 1869 
C 762 1869 877 2003 877 2086 
C 877 2131 870 2176 858 2202 
C 851 2221 845 2259 845 2330 
C 845 2528 1114 2598 1357 2598 
C 1574 2598 1875 2490 1875 1766 
C 1875 1722 1856 1696 1837 1690 
L 1286 1555 
C 672 1402 230 1062 230 627 
C 230 102 589 -64 1037 -64 
C 1261 -64 1453 -13 1734 205 
L 1862 307 
L 1875 307 
z
M 1875 1491 
L 1875 646 
C 1875 563 1837 518 1786 480 
C 1619 346 1402 198 1222 198 
C 902 198 762 454 762 653 
C 762 941 896 1235 1370 1357 
L 1875 1491 
z
" transform="scale(0.015625)"/>
       <path id="LibertinusSerif-Regular-79" d="M 1306 -1024 
C 1408 -845 1491 -666 1568 -474 
C 2080 762 2368 1421 2701 2138 
C 2829 2406 2918 2509 3219 2547 
C 3258 2586 3258 2720 3219 2758 
C 3091 2752 2944 2746 2765 2746 
C 2573 2746 2374 2752 2182 2758 
C 2144 2720 2144 2586 2182 2547 
C 2387 2528 2592 2490 2490 2259 
L 1856 794 
C 1811 691 1754 672 1702 800 
L 1133 2131 
C 1018 2400 986 2522 1344 2547 
C 1382 2586 1382 2720 1344 2758 
C 1107 2752 851 2746 621 2746 
C 403 2746 230 2752 102 2758 
C 64 2720 64 2586 102 2547 
C 358 2515 442 2458 608 2067 
L 1331 384 
C 1389 256 1485 -38 1421 -218 
C 1344 -429 1267 -608 1171 -806 
C 1101 -934 1011 -992 851 -992 
C 762 -992 736 -973 666 -973 
C 480 -973 384 -1165 384 -1248 
C 384 -1382 512 -1485 685 -1485 
C 819 -1485 1075 -1434 1306 -1024 
z
" transform="scale(0.015625)"/>
      </defs>
      <use xlink:href="#LibertinusSerif-Regular-41"/>
      <use xlink:href="#LibertinusSerif-Regular-63" x="69.499985"/>
      <use xlink:href="#LibertinusSerif-Regular-63" x="112.299973"/>
      <use xlink:href="#LibertinusSerif-Regular-75" x="155.09996"/>
      <use xlink:href="#LibertinusSerif-Regular-72" x="208.199951"/>
      <use xlink:href="#LibertinusSerif-Regular-61" x="245.399948"/>
      <use xlink:href="#LibertinusSerif-Regular-63" x="291.099945"/>
      <use xlink:href="#LibertinusSerif-Regular-79" x="333.899933"/>
     </g>
    </g>
   </g>
   <g id="line2d_28">
    <path d="M 404.611271 201.008928 
L 407.624773 171.765851 
L 410.638274 132.287697 
L 413.651775 97.683389 
L 416.665277 73.314159 
L 419.678778 58.205236 
L 422.692279 50.894466 
L 425.705781 46.995389 
L 428.719282 43.096312 
L 431.732783 40.659389 
L 434.746285 40.172005 
L 437.759786 39.68462 
L 440.773287 39.68462 
L 443.786789 37.247697 
L 446.80029 38.222466 
L 449.813791 38.222466 
L 452.827293 38.222466 
L 455.840794 38.222466 
L 458.854296 36.272928 
L 461.867797 34.323389 
L 464.881298 33.836005 
L 467.8948 33.34862 
L 470.908301 33.34862 
L 473.921802 33.34862 
L 476.935304 32.861236 
L 479.948805 32.373851 
L 482.962306 32.373851 
L 485.975808 31.886466 
L 488.989309 31.399082 
L 492.00281 31.399082 
L 495.016312 30.911697 
L 498.029813 30.911697 
L 501.043314 30.911697 
L 504.056816 30.424312 
L 507.070317 30.424312 
L 510.083818 30.424312 
L 513.09732 30.424312 
L 516.110821 30.424312 
L 519.124323 30.424312 
L 522.137824 30.424312 
L 525.151325 30.424312 
L 528.164827 30.424312 
L 531.178328 30.424312 
L 534.191829 30.424312 
L 537.205331 29.936928 
L 540.218832 30.424312 
L 543.232333 30.424312 
L 546.245835 29.936928 
L 549.259336 30.424312 
L 552.272837 29.936928 
L 555.286339 29.936928 
L 558.29984 29.936928 
L 561.313341 29.449543 
L 564.326843 30.424312 
L 567.340344 29.936928 
L 570.353845 29.936928 
L 573.367347 29.936928 
L 576.380848 29.936928 
L 579.39435 29.936928 
L 582.407851 29.936928 
L 585.421352 29.936928 
L 588.434854 29.936928 
L 591.448355 29.936928 
L 594.461856 29.449543 
L 597.475358 29.449543 
L 600.488859 28.962159 
L 603.50236 28.962159 
L 606.515862 28.962159 
L 609.529363 28.962159 
L 612.542864 28.962159 
L 615.556366 28.962159 
L 618.569867 28.962159 
L 621.583368 28.962159 
L 624.59687 28.962159 
L 627.610371 28.962159 
L 630.623872 28.962159 
L 633.637374 28.962159 
L 636.650875 28.962159 
L 639.664377 28.962159 
L 642.677878 28.962159 
L 645.691379 28.962159 
L 648.704881 28.962159 
L 651.718382 28.962159 
L 654.731883 28.474774 
L 657.745385 28.474774 
L 660.758886 28.474774 
L 663.772387 28.474774 
L 666.785889 28.474774 
L 669.79939 28.474774 
L 672.812891 28.474774 
L 675.826393 28.474774 
L 678.839894 28.474774 
L 681.853395 28.474774 
L 684.866897 28.474774 
L 687.880398 28.474774 
L 690.893899 28.474774 
L 693.907401 28.474774 
L 696.920902 28.474774 
L 699.934404 28.474774 
L 702.947905 28.474774 
" clip-path="url(#pc91f67718c)" style="fill: none; stroke: #1f77b4; stroke-width: 1.5; stroke-linecap: square"/>
   </g>
   <g id="patch_8">
    <path d="M 401.59777 245.848312 
L 401.59777 24.088312 
" style="fill: none; stroke: #000000; stroke-width: 0.8; stroke-linejoin: miter; stroke-linecap: square"/>
   </g>
   <g id="patch_9">
    <path d="M 705.961406 245.848312 
L 705.961406 24.088312 
" style="fill: none; stroke: #000000; stroke-width: 0.8; stroke-linejoin: miter; stroke-linecap: square"/>
   </g>
   <g id="patch_10">
    <path d="M 401.59777 245.848312 
L 705.961406 245.848312 
" style="fill: none; stroke: #000000; stroke-width: 0.8; stroke-linejoin: miter; stroke-linecap: square"/>
   </g>
   <g id="patch_11">
    <path d="M 401.59777 24.088312 
L 705.961406 24.088312 
" style="fill: none; stroke: #000000; stroke-width: 0.8; stroke-linejoin: miter; stroke-linecap: square"/>
   </g>
   <g id="text_32">
    <!-- Accuracy Curve -->
    <g transform="translate(502.323963 18.088312) scale(0.156 -0.156)">
     <use xlink:href="#LibertinusSerif-Regular-41"/>
     <use xlink:href="#LibertinusSerif-Regular-63" x="69.499985"/>
     <use xlink:href="#LibertinusSerif-Regular-63" x="112.299973"/>
     <use xlink:href="#LibertinusSerif-Regular-75" x="155.09996"/>
     <use xlink:href="#LibertinusSerif-Regular-72" x="208.199951"/>
     <use xlink:href="#LibertinusSerif-Regular-61" x="245.399948"/>
     <use xlink:href="#LibertinusSerif-Regular-63" x="291.099945"/>
     <use xlink:href="#LibertinusSerif-Regular-79" x="333.899933"/>
     <use xlink:href="#LibertinusSerif-Regular-20" x="385.399918"/>
     <use xlink:href="#LibertinusSerif-Regular-43" x="410.399902"/>
     <use xlink:href="#LibertinusSerif-Regular-75" x="474.999893"/>
     <use xlink:href="#LibertinusSerif-Regular-72" x="528.099884"/>
     <use xlink:href="#LibertinusSerif-Regular-76" x="565.299881"/>
     <use xlink:href="#LibertinusSerif-Regular-65" x="614.999878"/>
    </g>
   </g>
  </g>
 </g>
 <defs>
  <clipPath id="p0371d0befe">
   <rect x="36.361406" y="24.088312" width="304.363636" height="221.76"/>
  </clipPath>
  <clipPath id="pc91f67718c">
   <rect x="401.59777" y="24.088312" width="304.363636" height="221.76"/>
  </clipPath>
 </defs>
</svg>
