<?xml version="1.0" encoding="utf-8" standalone="no"?>
<!DOCTYPE svg PUBLIC "-//W3C//DTD SVG 1.1//EN"
  "http://www.w3.org/Graphics/SVG/1.1/DTD/svg11.dtd">
<svg xmlns:xlink="http://www.w3.org/1999/xlink" width="592.56pt" height="354.24pt" viewBox="0 0 592.56 354.24" xmlns="http://www.w3.org/2000/svg" version="1.1">
 <metadata>
  <rdf:RDF xmlns:dc="http://purl.org/dc/elements/1.1/" xmlns:cc="http://creativecommons.org/ns#" xmlns:rdf="http://www.w3.org/1999/02/22-rdf-syntax-ns#">
   <cc:Work>
    <dc:type rdf:resource="http://purl.org/dc/dcmitype/StillImage"/>
    <dc:date>2023-07-10T21:52:23.750303</dc:date>
    <dc:format>image/svg+xml</dc:format>
    <dc:creator>
     <cc:Agent>
      <dc:title>Matplotlib v3.6.3, https://matplotlib.org/</dc:title>
     </cc:Agent>
    </dc:creator>
   </cc:Work>
  </rdf:RDF>
 </metadata>
 <defs>
  <style type="text/css">*{stroke-linejoin: round; stroke-linecap: butt}</style>
 </defs>
 <g id="figure_1">
  <g id="patch_1">
   <path d="M 0 354.24 
L 592.56 354.24 
L 592.56 0 
L 0 0 
z
" style="fill: #ffffff"/>
  </g>
  <g id="axes_1">
   <g id="patch_2">
    <path d="M 74.07 315.2736 
L 533.304 315.2736 
L 533.304 42.5088 
L 74.07 42.5088 
z
" style="fill: #ffffff"/>
   </g>
   <g id="matplotlib.axis_1">
    <g id="xtick_1">
     <g id="line2d_1">
      <defs>
       <path id="m3544f881b5" d="M 0 0 
L 0 3.5 
" style="stroke: #000000; stroke-width: 0.8"/>
      </defs>
      <g>
       <use xlink:href="#m3544f881b5" x="94.944273" y="315.2736" style="stroke: #000000; stroke-width: 0.8"/>
      </g>
     </g>
     <g id="text_1">
      <!-- 0 -->
      <g transform="translate(91.763023 329.872038) scale(0.1 -0.1)">
       <defs>
        <path id="DejaVuSans-30" d="M 2034 4250 
Q 1547 4250 1301 3770 
Q 1056 3291 1056 2328 
Q 1056 1369 1301 889 
Q 1547 409 2034 409 
Q 2525 409 2770 889 
Q 3016 1369 3016 2328 
Q 3016 3291 2770 3770 
Q 2525 4250 2034 4250 
z
M 2034 4750 
Q 2819 4750 3233 4129 
Q 3647 3509 3647 2328 
Q 3647 1150 3233 529 
Q 2819 -91 2034 -91 
Q 1250 -91 836 529 
Q 422 1150 422 2328 
Q 422 3509 836 4129 
Q 1250 4750 2034 4750 
z
" transform="scale(0.015625)"/>
       </defs>
       <use xlink:href="#DejaVuSans-30"/>
      </g>
     </g>
    </g>
    <g id="xtick_2">
     <g id="line2d_2">
      <g>
       <use xlink:href="#m3544f881b5" x="179.284769" y="315.2736" style="stroke: #000000; stroke-width: 0.8"/>
      </g>
     </g>
     <g id="text_2">
      <!-- 1000 -->
      <g transform="translate(166.559769 329.872038) scale(0.1 -0.1)">
       <defs>
        <path id="DejaVuSans-31" d="M 794 531 
L 1825 531 
L 1825 4091 
L 703 3866 
L 703 4441 
L 1819 4666 
L 2450 4666 
L 2450 531 
L 3481 531 
L 3481 0 
L 794 0 
L 794 531 
z
" transform="scale(0.015625)"/>
       </defs>
       <use xlink:href="#DejaVuSans-31"/>
       <use xlink:href="#DejaVuSans-30" x="63.623047"/>
       <use xlink:href="#DejaVuSans-30" x="127.246094"/>
       <use xlink:href="#DejaVuSans-30" x="190.869141"/>
      </g>
     </g>
    </g>
    <g id="xtick_3">
     <g id="line2d_3">
      <g>
       <use xlink:href="#m3544f881b5" x="263.625264" y="315.2736" style="stroke: #000000; stroke-width: 0.8"/>
      </g>
     </g>
     <g id="text_3">
      <!-- 2000 -->
      <g transform="translate(250.900264 329.872038) scale(0.1 -0.1)">
       <defs>
        <path id="DejaVuSans-32" d="M 1228 531 
L 3431 531 
L 3431 0 
L 469 0 
L 469 531 
Q 828 903 1448 1529 
Q 2069 2156 2228 2338 
Q 2531 2678 2651 2914 
Q 2772 3150 2772 3378 
Q 2772 3750 2511 3984 
Q 2250 4219 1831 4219 
Q 1534 4219 1204 4116 
Q 875 4013 500 3803 
L 500 4441 
Q 881 4594 1212 4672 
Q 1544 4750 1819 4750 
Q 2544 4750 2975 4387 
Q 3406 4025 3406 3419 
Q 3406 3131 3298 2873 
Q 3191 2616 2906 2266 
Q 2828 2175 2409 1742 
Q 1991 1309 1228 531 
z
" transform="scale(0.015625)"/>
       </defs>
       <use xlink:href="#DejaVuSans-32"/>
       <use xlink:href="#DejaVuSans-30" x="63.623047"/>
       <use xlink:href="#DejaVuSans-30" x="127.246094"/>
       <use xlink:href="#DejaVuSans-30" x="190.869141"/>
      </g>
     </g>
    </g>
    <g id="xtick_4">
     <g id="line2d_4">
      <g>
       <use xlink:href="#m3544f881b5" x="347.96576" y="315.2736" style="stroke: #000000; stroke-width: 0.8"/>
      </g>
     </g>
     <g id="text_4">
      <!-- 3000 -->
      <g transform="translate(335.24076 329.872038) scale(0.1 -0.1)">
       <defs>
        <path id="DejaVuSans-33" d="M 2597 2516 
Q 3050 2419 3304 2112 
Q 3559 1806 3559 1356 
Q 3559 666 3084 287 
Q 2609 -91 1734 -91 
Q 1441 -91 1130 -33 
Q 819 25 488 141 
L 488 750 
Q 750 597 1062 519 
Q 1375 441 1716 441 
Q 2309 441 2620 675 
Q 2931 909 2931 1356 
Q 2931 1769 2642 2001 
Q 2353 2234 1838 2234 
L 1294 2234 
L 1294 2753 
L 1863 2753 
Q 2328 2753 2575 2939 
Q 2822 3125 2822 3475 
Q 2822 3834 2567 4026 
Q 2313 4219 1838 4219 
Q 1578 4219 1281 4162 
Q 984 4106 628 3988 
L 628 4550 
Q 988 4650 1302 4700 
Q 1616 4750 1894 4750 
Q 2613 4750 3031 4423 
Q 3450 4097 3450 3541 
Q 3450 3153 3228 2886 
Q 3006 2619 2597 2516 
z
" transform="scale(0.015625)"/>
       </defs>
       <use xlink:href="#DejaVuSans-33"/>
       <use xlink:href="#DejaVuSans-30" x="63.623047"/>
       <use xlink:href="#DejaVuSans-30" x="127.246094"/>
       <use xlink:href="#DejaVuSans-30" x="190.869141"/>
      </g>
     </g>
    </g>
    <g id="xtick_5">
     <g id="line2d_5">
      <g>
       <use xlink:href="#m3544f881b5" x="432.306256" y="315.2736" style="stroke: #000000; stroke-width: 0.8"/>
      </g>
     </g>
     <g id="text_5">
      <!-- 4000 -->
      <g transform="translate(419.581256 329.872038) scale(0.1 -0.1)">
       <defs>
        <path id="DejaVuSans-34" d="M 2419 4116 
L 825 1625 
L 2419 1625 
L 2419 4116 
z
M 2253 4666 
L 3047 4666 
L 3047 1625 
L 3713 1625 
L 3713 1100 
L 3047 1100 
L 3047 0 
L 2419 0 
L 2419 1100 
L 313 1100 
L 313 1709 
L 2253 4666 
z
" transform="scale(0.015625)"/>
       </defs>
       <use xlink:href="#DejaVuSans-34"/>
       <use xlink:href="#DejaVuSans-30" x="63.623047"/>
       <use xlink:href="#DejaVuSans-30" x="127.246094"/>
       <use xlink:href="#DejaVuSans-30" x="190.869141"/>
      </g>
     </g>
    </g>
    <g id="xtick_6">
     <g id="line2d_6">
      <g>
       <use xlink:href="#m3544f881b5" x="516.646752" y="315.2736" style="stroke: #000000; stroke-width: 0.8"/>
      </g>
     </g>
     <g id="text_6">
      <!-- 5000 -->
      <g transform="translate(503.921752 329.872038) scale(0.1 -0.1)">
       <defs>
        <path id="DejaVuSans-35" d="M 691 4666 
L 3169 4666 
L 3169 4134 
L 1269 4134 
L 1269 2991 
Q 1406 3038 1543 3061 
Q 1681 3084 1819 3084 
Q 2600 3084 3056 2656 
Q 3513 2228 3513 1497 
Q 3513 744 3044 326 
Q 2575 -91 1722 -91 
Q 1428 -91 1123 -41 
Q 819 9 494 109 
L 494 744 
Q 775 591 1075 516 
Q 1375 441 1709 441 
Q 2250 441 2565 725 
Q 2881 1009 2881 1497 
Q 2881 1984 2565 2268 
Q 2250 2553 1709 2553 
Q 1456 2553 1204 2497 
Q 953 2441 691 2322 
L 691 4666 
z
" transform="scale(0.015625)"/>
       </defs>
       <use xlink:href="#DejaVuSans-35"/>
       <use xlink:href="#DejaVuSans-30" x="63.623047"/>
       <use xlink:href="#DejaVuSans-30" x="127.246094"/>
       <use xlink:href="#DejaVuSans-30" x="190.869141"/>
      </g>
     </g>
    </g>
    <g id="text_7">
     <!-- Iteration -->
     <g transform="translate(282.478406 343.550162) scale(0.1 -0.1)">
      <defs>
       <path id="DejaVuSans-49" d="M 628 4666 
L 1259 4666 
L 1259 0 
L 628 0 
L 628 4666 
z
" transform="scale(0.015625)"/>
       <path id="DejaVuSans-74" d="M 1172 4494 
L 1172 3500 
L 2356 3500 
L 2356 3053 
L 1172 3053 
L 1172 1153 
Q 1172 725 1289 603 
Q 1406 481 1766 481 
L 2356 481 
L 2356 0 
L 1766 0 
Q 1100 0 847 248 
Q 594 497 594 1153 
L 594 3053 
L 172 3053 
L 172 3500 
L 594 3500 
L 594 4494 
L 1172 4494 
z
" transform="scale(0.015625)"/>
       <path id="DejaVuSans-65" d="M 3597 1894 
L 3597 1613 
L 953 1613 
Q 991 1019 1311 708 
Q 1631 397 2203 397 
Q 2534 397 2845 478 
Q 3156 559 3463 722 
L 3463 178 
Q 3153 47 2828 -22 
Q 2503 -91 2169 -91 
Q 1331 -91 842 396 
Q 353 884 353 1716 
Q 353 2575 817 3079 
Q 1281 3584 2069 3584 
Q 2775 3584 3186 3129 
Q 3597 2675 3597 1894 
z
M 3022 2063 
Q 3016 2534 2758 2815 
Q 2500 3097 2075 3097 
Q 1594 3097 1305 2825 
Q 1016 2553 972 2059 
L 3022 2063 
z
" transform="scale(0.015625)"/>
       <path id="DejaVuSans-72" d="M 2631 2963 
Q 2534 3019 2420 3045 
Q 2306 3072 2169 3072 
Q 1681 3072 1420 2755 
Q 1159 2438 1159 1844 
L 1159 0 
L 581 0 
L 581 3500 
L 1159 3500 
L 1159 2956 
Q 1341 3275 1631 3429 
Q 1922 3584 2338 3584 
Q 2397 3584 2469 3576 
Q 2541 3569 2628 3553 
L 2631 2963 
z
" transform="scale(0.015625)"/>
       <path id="DejaVuSans-61" d="M 2194 1759 
Q 1497 1759 1228 1600 
Q 959 1441 959 1056 
Q 959 750 1161 570 
Q 1363 391 1709 391 
Q 2188 391 2477 730 
Q 2766 1069 2766 1631 
L 2766 1759 
L 2194 1759 
z
M 3341 1997 
L 3341 0 
L 2766 0 
L 2766 531 
Q 2569 213 2275 61 
Q 1981 -91 1556 -91 
Q 1019 -91 701 211 
Q 384 513 384 1019 
Q 384 1609 779 1909 
Q 1175 2209 1959 2209 
L 2766 2209 
L 2766 2266 
Q 2766 2663 2505 2880 
Q 2244 3097 1772 3097 
Q 1472 3097 1187 3025 
Q 903 2953 641 2809 
L 641 3341 
Q 956 3463 1253 3523 
Q 1550 3584 1831 3584 
Q 2591 3584 2966 3190 
Q 3341 2797 3341 1997 
z
" transform="scale(0.015625)"/>
       <path id="DejaVuSans-69" d="M 603 3500 
L 1178 3500 
L 1178 0 
L 603 0 
L 603 3500 
z
M 603 4863 
L 1178 4863 
L 1178 4134 
L 603 4134 
L 603 4863 
z
" transform="scale(0.015625)"/>
       <path id="DejaVuSans-6f" d="M 1959 3097 
Q 1497 3097 1228 2736 
Q 959 2375 959 1747 
Q 959 1119 1226 758 
Q 1494 397 1959 397 
Q 2419 397 2687 759 
Q 2956 1122 2956 1747 
Q 2956 2369 2687 2733 
Q 2419 3097 1959 3097 
z
M 1959 3584 
Q 2709 3584 3137 3096 
Q 3566 2609 3566 1747 
Q 3566 888 3137 398 
Q 2709 -91 1959 -91 
Q 1206 -91 779 398 
Q 353 888 353 1747 
Q 353 2609 779 3096 
Q 1206 3584 1959 3584 
z
" transform="scale(0.015625)"/>
       <path id="DejaVuSans-6e" d="M 3513 2113 
L 3513 0 
L 2938 0 
L 2938 2094 
Q 2938 2591 2744 2837 
Q 2550 3084 2163 3084 
Q 1697 3084 1428 2787 
Q 1159 2491 1159 1978 
L 1159 0 
L 581 0 
L 581 3500 
L 1159 3500 
L 1159 2956 
Q 1366 3272 1645 3428 
Q 1925 3584 2291 3584 
Q 2894 3584 3203 3211 
Q 3513 2838 3513 2113 
z
" transform="scale(0.015625)"/>
      </defs>
      <use xlink:href="#DejaVuSans-49"/>
      <use xlink:href="#DejaVuSans-74" x="29.492188"/>
      <use xlink:href="#DejaVuSans-65" x="68.701172"/>
      <use xlink:href="#DejaVuSans-72" x="130.224609"/>
      <use xlink:href="#DejaVuSans-61" x="171.337891"/>
      <use xlink:href="#DejaVuSans-74" x="232.617188"/>
      <use xlink:href="#DejaVuSans-69" x="271.826172"/>
      <use xlink:href="#DejaVuSans-6f" x="299.609375"/>
      <use xlink:href="#DejaVuSans-6e" x="360.791016"/>
     </g>
    </g>
   </g>
   <g id="matplotlib.axis_2">
    <g id="ytick_1">
     <g id="line2d_7">
      <defs>
       <path id="ma1a8216354" d="M 0 0 
L -3.5 0 
" style="stroke: #000000; stroke-width: 0.8"/>
      </defs>
      <g>
       <use xlink:href="#ma1a8216354" x="74.07" y="309.523125" style="stroke: #000000; stroke-width: 0.8"/>
      </g>
     </g>
     <g id="text_8">
      <!-- 1.5 -->
      <g transform="translate(51.166875 313.322344) scale(0.1 -0.1)">
       <defs>
        <path id="DejaVuSans-2e" d="M 684 794 
L 1344 794 
L 1344 0 
L 684 0 
L 684 794 
z
" transform="scale(0.015625)"/>
       </defs>
       <use xlink:href="#DejaVuSans-31"/>
       <use xlink:href="#DejaVuSans-2e" x="63.623047"/>
       <use xlink:href="#DejaVuSans-35" x="95.410156"/>
      </g>
     </g>
    </g>
    <g id="ytick_2">
     <g id="line2d_8">
      <g>
       <use xlink:href="#ma1a8216354" x="74.07" y="261.937983" style="stroke: #000000; stroke-width: 0.8"/>
      </g>
     </g>
     <g id="text_9">
      <!-- 2.0 -->
      <g transform="translate(51.166875 265.737202) scale(0.1 -0.1)">
       <use xlink:href="#DejaVuSans-32"/>
       <use xlink:href="#DejaVuSans-2e" x="63.623047"/>
       <use xlink:href="#DejaVuSans-30" x="95.410156"/>
      </g>
     </g>
    </g>
    <g id="ytick_3">
     <g id="line2d_9">
      <g>
       <use xlink:href="#ma1a8216354" x="74.07" y="214.352841" style="stroke: #000000; stroke-width: 0.8"/>
      </g>
     </g>
     <g id="text_10">
      <!-- 2.5 -->
      <g transform="translate(51.166875 218.15206) scale(0.1 -0.1)">
       <use xlink:href="#DejaVuSans-32"/>
       <use xlink:href="#DejaVuSans-2e" x="63.623047"/>
       <use xlink:href="#DejaVuSans-35" x="95.410156"/>
      </g>
     </g>
    </g>
    <g id="ytick_4">
     <g id="line2d_10">
      <g>
       <use xlink:href="#ma1a8216354" x="74.07" y="166.767699" style="stroke: #000000; stroke-width: 0.8"/>
      </g>
     </g>
     <g id="text_11">
      <!-- 3.0 -->
      <g transform="translate(51.166875 170.566918) scale(0.1 -0.1)">
       <use xlink:href="#DejaVuSans-33"/>
       <use xlink:href="#DejaVuSans-2e" x="63.623047"/>
       <use xlink:href="#DejaVuSans-30" x="95.410156"/>
      </g>
     </g>
    </g>
    <g id="ytick_5">
     <g id="line2d_11">
      <g>
       <use xlink:href="#ma1a8216354" x="74.07" y="119.182557" style="stroke: #000000; stroke-width: 0.8"/>
      </g>
     </g>
     <g id="text_12">
      <!-- 3.5 -->
      <g transform="translate(51.166875 122.981776) scale(0.1 -0.1)">
       <use xlink:href="#DejaVuSans-33"/>
       <use xlink:href="#DejaVuSans-2e" x="63.623047"/>
       <use xlink:href="#DejaVuSans-35" x="95.410156"/>
      </g>
     </g>
    </g>
    <g id="ytick_6">
     <g id="line2d_12">
      <g>
       <use xlink:href="#ma1a8216354" x="74.07" y="71.597415" style="stroke: #000000; stroke-width: 0.8"/>
      </g>
     </g>
     <g id="text_13">
      <!-- 4.0 -->
      <g transform="translate(51.166875 75.396634) scale(0.1 -0.1)">
       <use xlink:href="#DejaVuSans-34"/>
       <use xlink:href="#DejaVuSans-2e" x="63.623047"/>
       <use xlink:href="#DejaVuSans-30" x="95.410156"/>
      </g>
     </g>
    </g>
    <g id="text_14">
     <!-- Loss -->
     <g transform="translate(45.087188 189.858387) rotate(-90) scale(0.1 -0.1)">
      <defs>
       <path id="DejaVuSans-4c" d="M 628 4666 
L 1259 4666 
L 1259 531 
L 3531 531 
L 3531 0 
L 628 0 
L 628 4666 
z
" transform="scale(0.015625)"/>
       <path id="DejaVuSans-73" d="M 2834 3397 
L 2834 2853 
Q 2591 2978 2328 3040 
Q 2066 3103 1784 3103 
Q 1356 3103 1142 2972 
Q 928 2841 928 2578 
Q 928 2378 1081 2264 
Q 1234 2150 1697 2047 
L 1894 2003 
Q 2506 1872 2764 1633 
Q 3022 1394 3022 966 
Q 3022 478 2636 193 
Q 2250 -91 1575 -91 
Q 1294 -91 989 -36 
Q 684 19 347 128 
L 347 722 
Q 666 556 975 473 
Q 1284 391 1588 391 
Q 1994 391 2212 530 
Q 2431 669 2431 922 
Q 2431 1156 2273 1281 
Q 2116 1406 1581 1522 
L 1381 1569 
Q 847 1681 609 1914 
Q 372 2147 372 2553 
Q 372 3047 722 3315 
Q 1072 3584 1716 3584 
Q 2034 3584 2315 3537 
Q 2597 3491 2834 3397 
z
" transform="scale(0.015625)"/>
      </defs>
      <use xlink:href="#DejaVuSans-4c"/>
      <use xlink:href="#DejaVuSans-6f" x="53.962891"/>
      <use xlink:href="#DejaVuSans-73" x="115.144531"/>
      <use xlink:href="#DejaVuSans-73" x="167.244141"/>
     </g>
    </g>
   </g>
   <g id="line2d_13">
    <path d="M 94.944273 56.840374 
L 99.161298 200.309412 
L 103.378322 209.515754 
L 107.595347 213.139133 
L 111.812372 215.724541 
L 116.029397 216.794279 
L 120.246421 216.598892 
L 124.463446 219.942499 
L 128.680471 220.804619 
L 132.897496 223.373123 
L 137.114521 225.388867 
L 141.331545 226.233652 
L 145.54857 227.51484 
L 149.765595 228.869568 
L 153.98262 231.75365 
L 158.199645 231.491145 
L 162.416669 238.228935 
L 166.633694 238.525226 
L 170.850719 241.691144 
L 175.067744 243.66895 
L 179.284769 245.1077 
L 183.501793 246.982378 
L 187.718818 250.963198 
L 191.935843 251.562224 
L 196.152868 254.727779 
L 200.369893 254.636655 
L 204.586917 258.597712 
L 208.803942 259.282847 
L 213.020967 263.726369 
L 217.237992 265.926223 
L 221.455017 267.884878 
L 225.672041 268.130887 
L 229.889066 270.458078 
L 234.106091 271.110619 
L 238.323116 272.016816 
L 242.54014 275.594893 
L 246.757165 276.432871 
L 250.97419 276.402262 
L 255.191215 276.908314 
L 259.40824 278.049106 
L 263.625264 279.161739 
L 267.842289 278.797422 
L 272.059314 281.555584 
L 276.276339 281.882711 
L 280.493364 284.461924 
L 284.710388 282.681037 
L 288.927413 285.135181 
L 293.144438 283.823123 
L 297.361463 285.887469 
L 301.578488 285.174107 
L 305.795512 285.849281 
L 310.012537 288.155008 
L 314.229562 289.403114 
L 318.446587 288.616632 
L 322.663612 288.825145 
L 326.880636 289.475859 
L 331.097661 291.476423 
L 335.314686 290.24647 
L 339.531711 290.81121 
L 343.748736 292.142204 
L 347.96576 292.255781 
L 352.182785 292.152006 
L 356.39981 292.449261 
L 360.616835 293.057261 
L 364.83386 294.644202 
L 369.050884 292.778124 
L 373.267909 294.681494 
L 377.484934 295.474545 
L 381.701959 295.684193 
L 385.918983 295.189021 
L 390.136008 295.742949 
L 394.353033 297.443376 
L 398.570058 296.522057 
L 402.787083 295.190484 
L 407.004107 295.067741 
L 411.221132 297.445385 
L 415.438157 297.104768 
L 419.655182 299.481958 
L 423.872207 298.419947 
L 428.089231 299.063468 
L 432.306256 298.384493 
L 436.523281 300.471825 
L 440.740306 297.988683 
L 444.957331 299.384764 
L 449.174355 300.34325 
L 453.39138 299.267149 
L 457.608405 298.597919 
L 461.82543 299.53393 
L 466.042455 301.58228 
L 470.259479 299.528859 
L 474.476504 298.891816 
L 478.693529 301.618551 
L 482.910554 302.163653 
L 487.127579 302.107664 
L 491.344603 302.8752 
L 495.561628 302.009631 
L 499.778653 301.716573 
L 503.995678 301.568201 
L 508.212702 301.432138 
L 512.429727 301.822844 
" clip-path="url(#pedfff8f725)" style="fill: none; stroke: #1f77b4; stroke-width: 1.5; stroke-linecap: square"/>
   </g>
   <g id="line2d_14">
    <path d="M 94.944273 54.9072 
L 99.161298 200.998314 
L 103.378322 208.996962 
L 107.595347 211.810295 
L 111.812372 212.535388 
L 116.029397 215.064388 
L 120.246421 215.799647 
L 124.463446 219.191266 
L 128.680471 217.343408 
L 132.897496 220.757605 
L 137.114521 223.05126 
L 141.331545 224.33769 
L 145.54857 224.842347 
L 149.765595 225.363158 
L 153.98262 228.725235 
L 158.199645 227.576059 
L 162.416669 234.421515 
L 166.633694 234.043629 
L 170.850719 236.308854 
L 175.067744 238.541336 
L 179.284769 240.353593 
L 183.501793 241.928236 
L 187.718818 243.214507 
L 191.935843 244.582101 
L 196.152868 245.365372 
L 200.369893 246.619196 
L 204.586917 250.169331 
L 208.803942 251.3731 
L 213.020967 254.857863 
L 217.237992 257.104527 
L 221.455017 255.900327 
L 225.672041 256.926385 
L 229.889066 260.453284 
L 234.106091 260.185402 
L 238.323116 261.150922 
L 242.54014 261.951665 
L 246.757165 262.697679 
L 250.97419 263.413549 
L 255.191215 264.310238 
L 259.40824 266.349126 
L 263.625264 267.028589 
L 267.842289 266.628308 
L 272.059314 265.613652 
L 276.276339 270.864168 
L 280.493364 269.325784 
L 284.710388 268.299658 
L 288.927413 270.087295 
L 293.144438 269.602198 
L 297.361463 269.897831 
L 301.578488 268.965302 
L 305.795512 270.894811 
L 310.012537 273.442224 
L 314.229562 274.040047 
L 318.446587 273.135882 
L 322.663612 273.650306 
L 326.880636 273.893865 
L 331.097661 276.989681 
L 335.314686 274.092405 
L 339.531711 276.610242 
L 343.748736 275.927795 
L 347.96576 274.14305 
L 352.182785 276.342575 
L 356.39981 277.056561 
L 360.616835 277.100274 
L 364.83386 278.099456 
L 369.050884 274.988368 
L 373.267909 279.877166 
L 377.484934 278.958853 
L 381.701959 279.664036 
L 385.918983 278.416066 
L 390.136008 278.773972 
L 394.353033 280.639812 
L 398.570058 279.578913 
L 402.787083 278.568794 
L 407.004107 279.831252 
L 411.221132 278.156556 
L 415.438157 277.168697 
L 419.655182 280.886808 
L 423.872207 281.874145 
L 428.089231 281.097579 
L 432.306256 280.07776 
L 436.523281 281.49061 
L 440.740306 280.043123 
L 444.957331 282.533414 
L 449.174355 283.831904 
L 453.39138 282.685496 
L 457.608405 283.077109 
L 461.82543 283.115592 
L 466.042455 283.249578 
L 470.259479 281.342907 
L 474.476504 279.555326 
L 478.693529 283.404633 
L 482.910554 283.011488 
L 487.127579 283.22016 
L 491.344603 284.346487 
L 495.561628 283.914553 
L 499.778653 281.573736 
L 503.995678 284.327461 
L 508.212702 283.396612 
L 512.429727 282.73656 
" clip-path="url(#pedfff8f725)" style="fill: none; stroke: #ff7f0e; stroke-width: 1.5; stroke-linecap: square"/>
   </g>
   <g id="patch_3">
    <path d="M 74.07 315.2736 
L 74.07 42.5088 
" style="fill: none; stroke: #000000; stroke-width: 0.8; stroke-linejoin: miter; stroke-linecap: square"/>
   </g>
   <g id="patch_4">
    <path d="M 533.304 315.2736 
L 533.304 42.5088 
" style="fill: none; stroke: #000000; stroke-width: 0.8; stroke-linejoin: miter; stroke-linecap: square"/>
   </g>
   <g id="patch_5">
    <path d="M 74.07 315.2736 
L 533.304 315.2736 
" style="fill: none; stroke: #000000; stroke-width: 0.8; stroke-linejoin: miter; stroke-linecap: square"/>
   </g>
   <g id="patch_6">
    <path d="M 74.07 42.5088 
L 533.304 42.5088 
" style="fill: none; stroke: #000000; stroke-width: 0.8; stroke-linejoin: miter; stroke-linecap: square"/>
   </g>
   <g id="text_15">
    <!-- Transformer Training Losses -->
    <g transform="translate(220.225125 36.5088) scale(0.12 -0.12)">
     <defs>
      <path id="DejaVuSans-54" d="M -19 4666 
L 3928 4666 
L 3928 4134 
L 2272 4134 
L 2272 0 
L 1638 0 
L 1638 4134 
L -19 4134 
L -19 4666 
z
" transform="scale(0.015625)"/>
      <path id="DejaVuSans-66" d="M 2375 4863 
L 2375 4384 
L 1825 4384 
Q 1516 4384 1395 4259 
Q 1275 4134 1275 3809 
L 1275 3500 
L 2222 3500 
L 2222 3053 
L 1275 3053 
L 1275 0 
L 697 0 
L 697 3053 
L 147 3053 
L 147 3500 
L 697 3500 
L 697 3744 
Q 697 4328 969 4595 
Q 1241 4863 1831 4863 
L 2375 4863 
z
" transform="scale(0.015625)"/>
      <path id="DejaVuSans-6d" d="M 3328 2828 
Q 3544 3216 3844 3400 
Q 4144 3584 4550 3584 
Q 5097 3584 5394 3201 
Q 5691 2819 5691 2113 
L 5691 0 
L 5113 0 
L 5113 2094 
Q 5113 2597 4934 2840 
Q 4756 3084 4391 3084 
Q 3944 3084 3684 2787 
Q 3425 2491 3425 1978 
L 3425 0 
L 2847 0 
L 2847 2094 
Q 2847 2600 2669 2842 
Q 2491 3084 2119 3084 
Q 1678 3084 1418 2786 
Q 1159 2488 1159 1978 
L 1159 0 
L 581 0 
L 581 3500 
L 1159 3500 
L 1159 2956 
Q 1356 3278 1631 3431 
Q 1906 3584 2284 3584 
Q 2666 3584 2933 3390 
Q 3200 3197 3328 2828 
z
" transform="scale(0.015625)"/>
      <path id="DejaVuSans-20" transform="scale(0.015625)"/>
      <path id="DejaVuSans-67" d="M 2906 1791 
Q 2906 2416 2648 2759 
Q 2391 3103 1925 3103 
Q 1463 3103 1205 2759 
Q 947 2416 947 1791 
Q 947 1169 1205 825 
Q 1463 481 1925 481 
Q 2391 481 2648 825 
Q 2906 1169 2906 1791 
z
M 3481 434 
Q 3481 -459 3084 -895 
Q 2688 -1331 1869 -1331 
Q 1566 -1331 1297 -1286 
Q 1028 -1241 775 -1147 
L 775 -588 
Q 1028 -725 1275 -790 
Q 1522 -856 1778 -856 
Q 2344 -856 2625 -561 
Q 2906 -266 2906 331 
L 2906 616 
Q 2728 306 2450 153 
Q 2172 0 1784 0 
Q 1141 0 747 490 
Q 353 981 353 1791 
Q 353 2603 747 3093 
Q 1141 3584 1784 3584 
Q 2172 3584 2450 3431 
Q 2728 3278 2906 2969 
L 2906 3500 
L 3481 3500 
L 3481 434 
z
" transform="scale(0.015625)"/>
     </defs>
     <use xlink:href="#DejaVuSans-54"/>
     <use xlink:href="#DejaVuSans-72" x="46.333984"/>
     <use xlink:href="#DejaVuSans-61" x="87.447266"/>
     <use xlink:href="#DejaVuSans-6e" x="148.726562"/>
     <use xlink:href="#DejaVuSans-73" x="212.105469"/>
     <use xlink:href="#DejaVuSans-66" x="264.205078"/>
     <use xlink:href="#DejaVuSans-6f" x="299.410156"/>
     <use xlink:href="#DejaVuSans-72" x="360.591797"/>
     <use xlink:href="#DejaVuSans-6d" x="399.955078"/>
     <use xlink:href="#DejaVuSans-65" x="497.367188"/>
     <use xlink:href="#DejaVuSans-72" x="558.890625"/>
     <use xlink:href="#DejaVuSans-20" x="600.003906"/>
     <use xlink:href="#DejaVuSans-54" x="631.791016"/>
     <use xlink:href="#DejaVuSans-72" x="678.125"/>
     <use xlink:href="#DejaVuSans-61" x="719.238281"/>
     <use xlink:href="#DejaVuSans-69" x="780.517578"/>
     <use xlink:href="#DejaVuSans-6e" x="808.300781"/>
     <use xlink:href="#DejaVuSans-69" x="871.679688"/>
     <use xlink:href="#DejaVuSans-6e" x="899.462891"/>
     <use xlink:href="#DejaVuSans-67" x="962.841797"/>
     <use xlink:href="#DejaVuSans-20" x="1026.318359"/>
     <use xlink:href="#DejaVuSans-4c" x="1058.105469"/>
     <use xlink:href="#DejaVuSans-6f" x="1112.068359"/>
     <use xlink:href="#DejaVuSans-73" x="1173.25"/>
     <use xlink:href="#DejaVuSans-73" x="1225.349609"/>
     <use xlink:href="#DejaVuSans-65" x="1277.449219"/>
     <use xlink:href="#DejaVuSans-73" x="1338.972656"/>
    </g>
   </g>
   <g id="legend_1">
    <g id="patch_7">
     <path d="M 471.029 79.86505 
L 526.304 79.86505 
Q 528.304 79.86505 528.304 77.86505 
L 528.304 49.5088 
Q 528.304 47.5088 526.304 47.5088 
L 471.029 47.5088 
Q 469.029 47.5088 469.029 49.5088 
L 469.029 77.86505 
Q 469.029 79.86505 471.029 79.86505 
z
" style="fill: #ffffff; opacity: 0.8; stroke: #cccccc; stroke-linejoin: miter"/>
    </g>
    <g id="line2d_15">
     <path d="M 473.029 55.607237 
L 483.029 55.607237 
L 493.029 55.607237 
" style="fill: none; stroke: #1f77b4; stroke-width: 1.5; stroke-linecap: square"/>
    </g>
    <g id="text_16">
     <!-- train -->
     <g transform="translate(501.029 59.107237) scale(0.1 -0.1)">
      <use xlink:href="#DejaVuSans-74"/>
      <use xlink:href="#DejaVuSans-72" x="39.208984"/>
      <use xlink:href="#DejaVuSans-61" x="80.322266"/>
      <use xlink:href="#DejaVuSans-69" x="141.601562"/>
      <use xlink:href="#DejaVuSans-6e" x="169.384766"/>
     </g>
    </g>
    <g id="line2d_16">
     <path d="M 473.029 70.285363 
L 483.029 70.285363 
L 493.029 70.285363 
" style="fill: none; stroke: #ff7f0e; stroke-width: 1.5; stroke-linecap: square"/>
    </g>
    <g id="text_17">
     <!-- val -->
     <g transform="translate(501.029 73.785363) scale(0.1 -0.1)">
      <defs>
       <path id="DejaVuSans-76" d="M 191 3500 
L 800 3500 
L 1894 563 
L 2988 3500 
L 3597 3500 
L 2284 0 
L 1503 0 
L 191 3500 
z
" transform="scale(0.015625)"/>
       <path id="DejaVuSans-6c" d="M 603 4863 
L 1178 4863 
L 1178 0 
L 603 0 
L 603 4863 
z
" transform="scale(0.015625)"/>
      </defs>
      <use xlink:href="#DejaVuSans-76"/>
      <use xlink:href="#DejaVuSans-61" x="59.179688"/>
      <use xlink:href="#DejaVuSans-6c" x="120.458984"/>
     </g>
    </g>
   </g>
  </g>
 </g>
 <defs>
  <clipPath id="pedfff8f725">
   <rect x="74.07" y="42.5088" width="459.234" height="272.7648"/>
  </clipPath>
 </defs>
</svg>
