<?xml version="1.0" encoding="utf-8" standalone="no"?>
<!DOCTYPE svg PUBLIC "-//W3C//DTD SVG 1.1//EN"
  "http://www.w3.org/Graphics/SVG/1.1/DTD/svg11.dtd">
<svg xmlns:xlink="http://www.w3.org/1999/xlink" width="393.311406pt" height="271.392812pt" viewBox="0 0 393.311406 271.392812" xmlns="http://www.w3.org/2000/svg" version="1.1">
 <metadata>
  <rdf:RDF xmlns:dc="http://purl.org/dc/elements/1.1/" xmlns:cc="http://creativecommons.org/ns#" xmlns:rdf="http://www.w3.org/1999/02/22-rdf-syntax-ns#">
   <cc:Work>
    <dc:type rdf:resource="http://purl.org/dc/dcmitype/StillImage"/>
    <dc:date>2024-01-16T23:38:21.767644</dc:date>
    <dc:format>image/svg+xml</dc:format>
    <dc:creator>
     <cc:Agent>
      <dc:title>Matplotlib v3.8.2, https://matplotlib.org/</dc:title>
     </cc:Agent>
    </dc:creator>
   </cc:Work>
  </rdf:RDF>
 </metadata>
 <defs>
  <style type="text/css">*{stroke-linejoin: round; stroke-linecap: butt}</style>
 </defs>
 <g id="figure_1">
  <g id="patch_1">
   <path d="M 0 271.392812 
L 393.311406 271.392812 
L 393.311406 0 
L 0 0 
z
" style="fill: #ffffff"/>
  </g>
  <g id="axes_1">
   <g id="patch_2">
    <path d="M 51.311406 228.96 
L 386.111406 228.96 
L 386.111406 7.2 
L 51.311406 7.2 
z
" style="fill: #ffffff"/>
   </g>
   <g id="matplotlib.axis_1">
    <g id="xtick_1">
     <g id="line2d_1">
      <defs>
       <path id="mfb1ea89f6e" d="M 0 0 
L 0 3.5 
" style="stroke: #000000; stroke-width: 0.8"/>
      </defs>
      <g>
       <use xlink:href="#mfb1ea89f6e" x="51.311406" y="228.96" style="stroke: #000000; stroke-width: 0.8"/>
      </g>
     </g>
     <g id="text_1">
      <!-- 0 -->
      <g transform="translate(48.288906 245.033594) scale(0.13 -0.13)">
       <defs>
        <path id="LibertinusSerif-Regular-30" d="M 1459 -64 
C 1952 -64 2701 435 2701 1939 
C 2701 2573 2547 3117 2266 3488 
C 2099 3712 1830 3904 1485 3904 
C 851 3904 250 3149 250 1882 
C 250 1197 461 557 813 205 
C 992 26 1210 -64 1459 -64 
z
M 1485 3680 
C 1594 3680 1696 3642 1773 3571 
C 1971 3405 2144 2918 2144 2061 
C 2144 1472 2125 1069 2035 742 
C 1894 218 1581 160 1466 160 
C 870 160 806 1254 806 1811 
C 806 3386 1197 3680 1485 3680 
z
" transform="scale(0.015625)"/>
       </defs>
       <use xlink:href="#LibertinusSerif-Regular-30"/>
      </g>
     </g>
    </g>
    <g id="xtick_2">
     <g id="line2d_2">
      <g>
       <use xlink:href="#mfb1ea89f6e" x="112.184134" y="228.96" style="stroke: #000000; stroke-width: 0.8"/>
      </g>
     </g>
     <g id="text_2">
      <!-- 2 -->
      <g transform="translate(109.161634 245.033594) scale(0.13 -0.13)">
       <defs>
        <path id="LibertinusSerif-Regular-32" d="M 390 2995 
C 390 2861 512 2746 646 2746 
C 755 2746 947 2861 947 3002 
C 947 3053 934 3091 922 3136 
C 909 3181 870 3238 870 3290 
C 870 3450 1037 3680 1504 3680 
C 1734 3680 2061 3520 2061 2906 
C 2061 2496 1914 2163 1536 1779 
L 1062 1312 
C 435 672 333 365 333 -13 
C 333 -13 659 0 864 0 
L 1984 0 
C 2189 0 2483 -13 2483 -13 
C 2566 326 2630 806 2637 998 
C 2598 1030 2515 1043 2451 1030 
C 2342 576 2234 416 2003 416 
L 864 416 
C 864 723 1306 1158 1338 1190 
L 1984 1811 
C 2349 2163 2624 2445 2624 2931 
C 2624 3622 2061 3904 1542 3904 
C 832 3904 390 3379 390 2995 
z
" transform="scale(0.015625)"/>
       </defs>
       <use xlink:href="#LibertinusSerif-Regular-32"/>
      </g>
     </g>
    </g>
    <g id="xtick_3">
     <g id="line2d_3">
      <g>
       <use xlink:href="#mfb1ea89f6e" x="173.056861" y="228.96" style="stroke: #000000; stroke-width: 0.8"/>
      </g>
     </g>
     <g id="text_3">
      <!-- 4 -->
      <g transform="translate(170.034361 245.033594) scale(0.13 -0.13)">
       <defs>
        <path id="LibertinusSerif-Regular-34" d="M 2752 1402 
L 2221 1402 
L 2221 3270 
C 2221 3590 2221 3840 2234 3891 
L 2221 3904 
L 2016 3904 
C 1971 3904 1939 3866 1914 3834 
C 1510 3341 768 2285 179 1370 
C 198 1274 237 1101 429 1101 
L 1734 1101 
L 1734 512 
C 1734 218 1491 218 1216 198 
C 1178 160 1178 26 1216 -13 
C 1421 -6 1677 0 1971 0 
C 2221 0 2464 -6 2669 -13 
C 2707 26 2707 160 2669 198 
C 2355 224 2221 211 2221 512 
L 2221 1101 
L 2662 1101 
C 2752 1101 2848 1222 2848 1299 
C 2848 1363 2822 1402 2752 1402 
z
M 1734 3245 
L 1734 1402 
L 512 1402 
C 838 1926 1293 2643 1734 3245 
z
" transform="scale(0.015625)"/>
       </defs>
       <use xlink:href="#LibertinusSerif-Regular-34"/>
      </g>
     </g>
    </g>
    <g id="xtick_4">
     <g id="line2d_4">
      <g>
       <use xlink:href="#mfb1ea89f6e" x="233.929588" y="228.96" style="stroke: #000000; stroke-width: 0.8"/>
      </g>
     </g>
     <g id="text_4">
      <!-- 6 -->
      <g transform="translate(230.907088 245.033594) scale(0.13 -0.13)">
       <defs>
        <path id="LibertinusSerif-Regular-36" d="M 922 2195 
C 1094 2778 1504 3424 2355 3744 
C 2355 3821 2330 3878 2278 3910 
C 1632 3718 1235 3450 877 3034 
C 480 2573 282 1990 282 1485 
C 282 186 1018 -70 1510 -70 
C 2349 -70 2694 742 2694 1293 
C 2694 1843 2400 2336 1530 2336 
C 1363 2336 1114 2285 922 2195 
z
M 864 1965 
C 1075 2106 1286 2112 1395 2112 
C 2022 2112 2163 1498 2163 1178 
C 2163 474 1894 154 1581 154 
C 1178 154 813 371 813 1466 
C 813 1613 826 1779 864 1965 
z
" transform="scale(0.015625)"/>
       </defs>
       <use xlink:href="#LibertinusSerif-Regular-36"/>
      </g>
     </g>
    </g>
    <g id="xtick_5">
     <g id="line2d_5">
      <g>
       <use xlink:href="#mfb1ea89f6e" x="294.802315" y="228.96" style="stroke: #000000; stroke-width: 0.8"/>
      </g>
     </g>
     <g id="text_5">
      <!-- 8 -->
      <g transform="translate(291.779815 245.033594) scale(0.13 -0.13)">
       <defs>
        <path id="LibertinusSerif-Regular-38" d="M 2515 3104 
C 2515 3565 2157 3904 1530 3904 
C 877 3904 454 3514 454 3021 
C 454 2662 627 2400 1018 2157 
L 1184 2054 
C 998 1958 826 1843 666 1702 
C 403 1472 294 1184 294 934 
C 294 282 755 -64 1434 -64 
C 2272 -64 2682 550 2682 1037 
C 2682 1408 2522 1734 2182 1939 
L 1728 2214 
C 2029 2362 2515 2694 2515 3104 
z
M 1446 160 
C 1158 160 723 358 723 934 
C 723 1126 806 1574 1357 1939 
L 1658 1760 
C 2054 1517 2214 1216 2214 909 
C 2214 269 1734 160 1446 160 
z
M 1498 3680 
C 1914 3680 2067 3405 2067 3110 
C 2067 2765 1728 2477 1555 2349 
L 1357 2470 
C 954 2733 909 2944 909 3142 
C 909 3437 1114 3680 1498 3680 
z
" transform="scale(0.015625)"/>
       </defs>
       <use xlink:href="#LibertinusSerif-Regular-38"/>
      </g>
     </g>
    </g>
    <g id="xtick_6">
     <g id="line2d_6">
      <g>
       <use xlink:href="#mfb1ea89f6e" x="355.675043" y="228.96" style="stroke: #000000; stroke-width: 0.8"/>
      </g>
     </g>
     <g id="text_6">
      <!-- 10 -->
      <g transform="translate(349.630043 245.033594) scale(0.13 -0.13)">
       <defs>
        <path id="LibertinusSerif-Regular-31" d="M 1843 781 
L 1843 3002 
C 1843 3386 1850 3776 1862 3859 
C 1862 3891 1850 3891 1824 3891 
C 1472 3674 1133 3514 570 3251 
C 582 3181 608 3117 666 3078 
C 960 3200 1101 3238 1222 3238 
C 1331 3238 1350 3085 1350 2867 
L 1350 781 
C 1350 250 1178 218 730 198 
C 691 160 691 26 730 -13 
C 1043 -6 1274 0 1619 0 
C 1926 0 2080 -6 2400 -13 
C 2438 26 2438 160 2400 198 
C 1952 218 1843 250 1843 781 
z
" transform="scale(0.015625)"/>
       </defs>
       <use xlink:href="#LibertinusSerif-Regular-31"/>
       <use xlink:href="#LibertinusSerif-Regular-30" x="46.499985"/>
      </g>
     </g>
    </g>
    <g id="text_7">
     <!-- Epoch -->
     <g transform="translate(202.161797 261.15) scale(0.13 -0.13)">
      <defs>
       <path id="LibertinusSerif-Regular-45" d="M 1798 2310 
L 1216 2310 
L 1216 3462 
C 1216 3744 1293 3872 1638 3872 
L 2118 3872 
C 2598 3872 2701 3616 2842 3174 
C 2918 3162 2989 3174 3053 3206 
C 3021 3469 2925 4083 2912 4134 
C 2912 4147 2906 4154 2886 4154 
C 2778 4134 2726 4128 2573 4128 
L 941 4128 
C 749 4128 371 4134 115 4141 
C 77 4102 77 3968 115 3930 
C 563 3910 672 3878 672 3347 
L 672 781 
C 672 250 563 218 115 198 
C 77 160 77 26 115 -13 
C 352 -6 736 0 947 0 
L 2323 0 
C 2630 0 3142 -13 3142 -13 
C 3232 307 3328 730 3379 1056 
C 3315 1094 3238 1107 3155 1088 
C 3027 627 2803 250 2317 250 
L 1574 250 
C 1306 250 1216 352 1216 653 
L 1216 2067 
L 1798 2067 
C 2342 2067 2362 1920 2381 1632 
C 2419 1594 2554 1594 2592 1632 
C 2586 1798 2579 1978 2579 2195 
C 2579 2374 2586 2592 2592 2746 
C 2554 2784 2419 2784 2381 2746 
C 2362 2394 2342 2310 1798 2310 
z
" transform="scale(0.015625)"/>
       <path id="LibertinusSerif-Regular-70" d="M 998 2355 
C 992 2547 979 2714 947 2778 
C 934 2810 922 2829 870 2829 
C 691 2758 525 2701 83 2643 
C 70 2605 83 2502 96 2464 
C 442 2432 512 2400 512 2029 
L 512 -704 
C 512 -1235 442 -1267 51 -1286 
C 13 -1325 13 -1459 51 -1498 
C 275 -1491 512 -1485 768 -1485 
C 1024 -1485 1331 -1491 1542 -1498 
C 1581 -1459 1581 -1325 1542 -1286 
C 1088 -1261 1018 -1235 1018 -704 
L 1018 -13 
C 1018 70 1043 64 1107 38 
C 1267 -26 1459 -64 1664 -64 
C 2022 -64 2342 45 2605 294 
C 2906 589 3078 986 3078 1504 
C 3078 2182 2598 2810 1946 2810 
C 1651 2810 1325 2618 1069 2330 
C 1030 2291 1005 2291 998 2355 
z
M 1120 2118 
C 1286 2323 1581 2515 1766 2515 
C 2176 2515 2528 2054 2528 1331 
C 2528 806 2342 154 1626 154 
C 1510 154 1286 186 1171 288 
C 1043 403 1018 442 1018 672 
L 1018 1837 
C 1018 1971 1043 2029 1120 2118 
z
" transform="scale(0.015625)"/>
       <path id="LibertinusSerif-Regular-6f" d="M 262 1312 
C 262 659 698 -64 1606 -64 
C 2016 -64 2330 83 2547 294 
C 2835 576 2963 979 2963 1370 
C 2963 2035 2598 2810 1619 2810 
C 1197 2810 851 2637 614 2362 
C 384 2086 262 1715 262 1312 
z
M 1523 2586 
C 2074 2586 2413 2086 2413 1165 
C 2413 358 1997 160 1696 160 
C 1030 160 813 966 813 1459 
C 813 2016 947 2586 1523 2586 
z
" transform="scale(0.015625)"/>
       <path id="LibertinusSerif-Regular-63" d="M 2547 582 
C 2522 640 2470 666 2413 672 
C 2195 390 1920 250 1645 250 
C 1178 250 787 723 787 1472 
C 787 2176 1094 2598 1517 2598 
C 1894 2598 1946 2374 1971 2150 
C 1990 1978 2080 1920 2214 1920 
C 2349 1920 2528 2003 2528 2202 
C 2528 2554 2163 2810 1549 2810 
C 915 2810 237 2240 237 1331 
C 237 506 698 -64 1504 -64 
C 1888 -64 2227 58 2547 582 
z
" transform="scale(0.015625)"/>
       <path id="LibertinusSerif-Regular-68" d="M 1069 1830 
C 1069 1965 1126 2042 1178 2099 
C 1421 2336 1747 2477 1997 2477 
C 2125 2477 2259 2394 2336 2246 
C 2400 2118 2413 1946 2413 1754 
L 2413 781 
C 2413 256 2349 230 2016 198 
C 1984 160 1984 26 2016 -13 
C 2195 -6 2413 0 2669 0 
C 2925 0 3136 -6 3347 -13 
C 3379 26 3379 160 3347 198 
C 2989 230 2918 256 2918 781 
L 2918 1734 
C 2918 2086 2893 2400 2746 2592 
C 2637 2733 2438 2810 2214 2810 
C 1901 2810 1517 2726 1126 2291 
C 1126 2285 1120 2285 1114 2278 
C 1094 2253 1062 2214 1062 2291 
L 1069 3731 
C 1069 4147 1094 4403 1094 4403 
C 1094 4448 1069 4467 1011 4467 
C 851 4403 371 4314 115 4294 
C 102 4243 115 4141 154 4102 
C 173 4102 192 4102 211 4102 
C 493 4083 563 4083 563 3578 
L 563 781 
C 563 250 486 224 115 198 
C 77 160 77 26 115 -13 
C 326 -6 563 0 819 0 
C 1062 0 1274 -6 1453 -13 
C 1491 26 1491 160 1453 198 
C 1126 224 1069 250 1069 781 
L 1069 1830 
z
" transform="scale(0.015625)"/>
      </defs>
      <use xlink:href="#LibertinusSerif-Regular-45"/>
      <use xlink:href="#LibertinusSerif-Regular-70" x="55.699997"/>
      <use xlink:href="#LibertinusSerif-Regular-6f" x="107.599991"/>
      <use xlink:href="#LibertinusSerif-Regular-63" x="157.999985"/>
      <use xlink:href="#LibertinusSerif-Regular-68" x="200.799973"/>
     </g>
    </g>
   </g>
   <g id="matplotlib.axis_2">
    <g id="ytick_1">
     <g id="line2d_7">
      <defs>
       <path id="m7c90fdaf93" d="M 0 0 
L -3.5 0 
" style="stroke: #000000; stroke-width: 0.8"/>
      </defs>
      <g>
       <use xlink:href="#m7c90fdaf93" x="51.311406" y="228.96" style="stroke: #000000; stroke-width: 0.8"/>
      </g>
     </g>
     <g id="text_8">
      <!-- 0.00 -->
      <g transform="translate(23.316406 233.496797) scale(0.13 -0.13)">
       <defs>
        <path id="LibertinusSerif-Regular-2e" d="M 365 275 
C 365 90 518 -64 704 -64 
C 890 -64 1043 90 1043 275 
C 1043 461 890 614 704 614 
C 518 614 365 461 365 275 
z
" transform="scale(0.015625)"/>
       </defs>
       <use xlink:href="#LibertinusSerif-Regular-30"/>
       <use xlink:href="#LibertinusSerif-Regular-2e" x="46.499985"/>
       <use xlink:href="#LibertinusSerif-Regular-30" x="68.499969"/>
       <use xlink:href="#LibertinusSerif-Regular-30" x="114.999954"/>
      </g>
     </g>
    </g>
    <g id="ytick_2">
     <g id="line2d_8">
      <g>
       <use xlink:href="#m7c90fdaf93" x="51.311406" y="194.358479" style="stroke: #000000; stroke-width: 0.8"/>
      </g>
     </g>
     <g id="text_9">
      <!-- 0.05 -->
      <g transform="translate(23.316406 198.895276) scale(0.13 -0.13)">
       <defs>
        <path id="LibertinusSerif-Regular-35" d="M 2042 1210 
C 2042 602 1722 154 1338 154 
C 1094 154 1011 314 915 442 
C 832 550 723 646 589 646 
C 467 646 346 538 346 410 
C 346 147 890 -70 1254 -70 
C 2048 -70 2611 518 2611 1325 
C 2611 1946 2182 2502 1466 2502 
C 1190 2502 954 2445 838 2400 
L 966 3469 
C 1203 3443 1408 3411 1715 3411 
C 1907 3411 2125 3424 2387 3450 
L 2490 3885 
L 2445 3910 
C 2080 3872 1734 3840 1395 3840 
C 1158 3840 928 3853 704 3872 
L 486 2029 
C 826 2157 1069 2182 1299 2182 
C 1715 2182 2042 1907 2042 1210 
z
" transform="scale(0.015625)"/>
       </defs>
       <use xlink:href="#LibertinusSerif-Regular-30"/>
       <use xlink:href="#LibertinusSerif-Regular-2e" x="46.499985"/>
       <use xlink:href="#LibertinusSerif-Regular-30" x="68.499969"/>
       <use xlink:href="#LibertinusSerif-Regular-35" x="114.999954"/>
      </g>
     </g>
    </g>
    <g id="ytick_3">
     <g id="line2d_9">
      <g>
       <use xlink:href="#m7c90fdaf93" x="51.311406" y="159.756959" style="stroke: #000000; stroke-width: 0.8"/>
      </g>
     </g>
     <g id="text_10">
      <!-- 0.10 -->
      <g transform="translate(23.316406 164.293756) scale(0.13 -0.13)">
       <use xlink:href="#LibertinusSerif-Regular-30"/>
       <use xlink:href="#LibertinusSerif-Regular-2e" x="46.499985"/>
       <use xlink:href="#LibertinusSerif-Regular-31" x="68.499969"/>
       <use xlink:href="#LibertinusSerif-Regular-30" x="114.999954"/>
      </g>
     </g>
    </g>
    <g id="ytick_4">
     <g id="line2d_10">
      <g>
       <use xlink:href="#m7c90fdaf93" x="51.311406" y="125.155438" style="stroke: #000000; stroke-width: 0.8"/>
      </g>
     </g>
     <g id="text_11">
      <!-- 0.15 -->
      <g transform="translate(23.316406 129.692235) scale(0.13 -0.13)">
       <use xlink:href="#LibertinusSerif-Regular-30"/>
       <use xlink:href="#LibertinusSerif-Regular-2e" x="46.499985"/>
       <use xlink:href="#LibertinusSerif-Regular-31" x="68.499969"/>
       <use xlink:href="#LibertinusSerif-Regular-35" x="114.999954"/>
      </g>
     </g>
    </g>
    <g id="ytick_5">
     <g id="line2d_11">
      <g>
       <use xlink:href="#m7c90fdaf93" x="51.311406" y="90.553918" style="stroke: #000000; stroke-width: 0.8"/>
      </g>
     </g>
     <g id="text_12">
      <!-- 0.20 -->
      <g transform="translate(23.316406 95.090715) scale(0.13 -0.13)">
       <use xlink:href="#LibertinusSerif-Regular-30"/>
       <use xlink:href="#LibertinusSerif-Regular-2e" x="46.499985"/>
       <use xlink:href="#LibertinusSerif-Regular-32" x="68.499969"/>
       <use xlink:href="#LibertinusSerif-Regular-30" x="114.999954"/>
      </g>
     </g>
    </g>
    <g id="ytick_6">
     <g id="line2d_12">
      <g>
       <use xlink:href="#m7c90fdaf93" x="51.311406" y="55.952397" style="stroke: #000000; stroke-width: 0.8"/>
      </g>
     </g>
     <g id="text_13">
      <!-- 0.25 -->
      <g transform="translate(23.316406 60.489194) scale(0.13 -0.13)">
       <use xlink:href="#LibertinusSerif-Regular-30"/>
       <use xlink:href="#LibertinusSerif-Regular-2e" x="46.499985"/>
       <use xlink:href="#LibertinusSerif-Regular-32" x="68.499969"/>
       <use xlink:href="#LibertinusSerif-Regular-35" x="114.999954"/>
      </g>
     </g>
    </g>
    <g id="ytick_7">
     <g id="line2d_13">
      <g>
       <use xlink:href="#m7c90fdaf93" x="51.311406" y="21.350877" style="stroke: #000000; stroke-width: 0.8"/>
      </g>
     </g>
     <g id="text_14">
      <!-- 0.30 -->
      <g transform="translate(23.316406 25.887673) scale(0.13 -0.13)">
       <defs>
        <path id="LibertinusSerif-Regular-33" d="M 1376 3680 
C 1651 3680 1907 3514 1907 3104 
C 1907 2784 1536 2291 902 2202 
L 934 1997 
C 1043 2010 1158 2010 1242 2010 
C 1606 2010 2080 1907 2080 1184 
C 2080 333 1510 160 1286 160 
C 960 160 902 307 826 422 
C 762 512 678 589 550 589 
C 416 589 282 467 282 365 
C 282 109 819 -64 1203 -64 
C 1965 -64 2643 429 2643 1274 
C 2643 1971 2118 2221 1741 2285 
L 1734 2298 
C 2259 2547 2406 2810 2406 3149 
C 2406 3341 2362 3494 2208 3654 
C 2067 3795 1843 3904 1510 3904 
C 570 3904 301 3290 301 3078 
C 301 2989 365 2861 518 2861 
C 742 2861 768 3072 768 3194 
C 768 3603 1210 3680 1376 3680 
z
" transform="scale(0.015625)"/>
       </defs>
       <use xlink:href="#LibertinusSerif-Regular-30"/>
       <use xlink:href="#LibertinusSerif-Regular-2e" x="46.499985"/>
       <use xlink:href="#LibertinusSerif-Regular-33" x="68.499969"/>
       <use xlink:href="#LibertinusSerif-Regular-30" x="114.999954"/>
      </g>
     </g>
    </g>
    <g id="text_15">
     <!-- Loss -->
     <g transform="translate(16.273594 129.858203) rotate(-90) scale(0.13 -0.13)">
      <defs>
       <path id="LibertinusSerif-Regular-4c" d="M 954 0 
L 2317 0 
C 2490 0 3078 -13 3078 -13 
C 3142 307 3206 723 3245 1056 
C 3181 1088 3110 1101 3034 1088 
C 2906 627 2669 250 1990 250 
L 1587 250 
C 1338 250 1222 371 1222 698 
L 1222 3347 
C 1222 3878 1331 3910 1779 3930 
C 1818 3968 1818 4102 1779 4141 
C 1491 4134 1190 4128 947 4128 
C 717 4128 416 4134 122 4141 
C 83 4102 83 3968 122 3930 
C 570 3910 678 3878 678 3347 
L 678 781 
C 678 250 570 218 122 198 
C 83 160 83 26 122 -13 
C 371 -6 736 0 954 0 
z
" transform="scale(0.015625)"/>
       <path id="LibertinusSerif-Regular-73" d="M 307 883 
C 333 570 352 269 352 0 
C 416 13 480 19 512 19 
C 557 19 595 19 640 6 
C 813 -38 986 -64 1222 -64 
C 1581 -64 2240 109 2240 742 
C 2240 1178 1926 1434 1491 1594 
C 1107 1741 851 1837 851 2189 
C 851 2451 1082 2598 1299 2598 
C 1440 2598 1811 2547 1894 2003 
C 1933 1965 2061 1971 2099 2010 
C 2118 2240 2131 2477 2138 2688 
C 1939 2720 1632 2810 1299 2810 
C 826 2810 397 2502 397 2093 
C 397 1626 608 1427 1101 1222 
C 1632 1005 1754 870 1754 595 
C 1754 282 1446 147 1210 147 
C 960 147 819 230 755 301 
C 614 448 544 730 506 890 
C 467 928 346 922 307 883 
z
" transform="scale(0.015625)"/>
      </defs>
      <use xlink:href="#LibertinusSerif-Regular-4c"/>
      <use xlink:href="#LibertinusSerif-Regular-6f" x="52.799988"/>
      <use xlink:href="#LibertinusSerif-Regular-73" x="103.199982"/>
      <use xlink:href="#LibertinusSerif-Regular-73" x="142.199966"/>
     </g>
    </g>
   </g>
   <g id="line2d_14">
    <path d="M 81.74777 27.36 
L 112.184134 187.407955 
L 142.620497 214.372371 
L 173.056861 217.50668 
L 203.493224 224.467762 
L 233.929588 227.352806 
L 264.365952 227.93286 
L 294.802315 228.222662 
L 325.238679 228.345514 
L 355.675043 228.475332 
" clip-path="url(#padf5b2334b)" style="fill: none; stroke: #1f77b4; stroke-width: 1.5; stroke-linecap: square"/>
   </g>
   <g id="line2d_15">
    <path d="M 81.74777 188.551662 
L 112.184134 192.257721 
L 142.620497 203.806253 
L 173.056861 200.666803 
L 203.493224 195.893704 
L 233.929588 189.53395 
L 264.365952 186.833222 
L 294.802315 184.291487 
L 325.238679 183.07432 
L 355.675043 182.117251 
" clip-path="url(#padf5b2334b)" style="fill: none; stroke: #ff7f0e; stroke-width: 1.5; stroke-linecap: square"/>
   </g>
   <g id="line2d_16">
    <path d="M 142.620497 228.96 
L 142.620497 7.2 
" clip-path="url(#padf5b2334b)" style="fill: none; stroke-dasharray: 5.55,2.4; stroke-dashoffset: 0; stroke: #808080; stroke-width: 1.5"/>
   </g>
   <g id="patch_3">
    <path d="M 51.311406 228.96 
L 51.311406 7.2 
" style="fill: none; stroke: #000000; stroke-width: 0.8; stroke-linejoin: miter; stroke-linecap: square"/>
   </g>
   <g id="patch_4">
    <path d="M 386.111406 228.96 
L 386.111406 7.2 
" style="fill: none; stroke: #000000; stroke-width: 0.8; stroke-linejoin: miter; stroke-linecap: square"/>
   </g>
   <g id="patch_5">
    <path d="M 51.311406 228.96 
L 386.111406 228.96 
" style="fill: none; stroke: #000000; stroke-width: 0.8; stroke-linejoin: miter; stroke-linecap: square"/>
   </g>
   <g id="patch_6">
    <path d="M 51.311406 7.2 
L 386.111406 7.2 
" style="fill: none; stroke: #000000; stroke-width: 0.8; stroke-linejoin: miter; stroke-linecap: square"/>
   </g>
   <g id="text_16">
    <!-- Early Stopping Checkpoint -->
    <g transform="translate(145.664134 67.68) scale(0.13 -0.13)">
     <defs>
      <path id="LibertinusSerif-Regular-61" d="M 1875 307 
C 1914 109 1984 -64 2304 -64 
C 2547 -64 2778 45 2912 173 
C 2899 250 2874 307 2803 346 
C 2758 307 2650 243 2566 243 
C 2381 243 2374 493 2374 787 
L 2374 1728 
C 2374 2637 1875 2810 1408 2810 
C 883 2810 352 2464 352 2099 
C 352 1946 429 1869 576 1869 
C 762 1869 877 2003 877 2086 
C 877 2131 870 2176 858 2202 
C 851 2221 845 2259 845 2330 
C 845 2528 1114 2598 1357 2598 
C 1574 2598 1875 2490 1875 1766 
C 1875 1722 1856 1696 1837 1690 
L 1286 1555 
C 672 1402 230 1062 230 627 
C 230 102 589 -64 1037 -64 
C 1261 -64 1453 -13 1734 205 
L 1862 307 
L 1875 307 
z
M 1875 1491 
L 1875 646 
C 1875 563 1837 518 1786 480 
C 1619 346 1402 198 1222 198 
C 902 198 762 454 762 653 
C 762 941 896 1235 1370 1357 
L 1875 1491 
z
" transform="scale(0.015625)"/>
      <path id="LibertinusSerif-Regular-72" d="M 1126 2291 
C 1114 2547 1107 2714 1075 2778 
C 1062 2810 1050 2829 998 2829 
C 819 2758 653 2701 211 2643 
C 198 2605 211 2502 224 2464 
C 570 2432 640 2400 640 2029 
L 640 781 
C 640 250 563 224 166 198 
C 128 160 128 26 166 -13 
C 390 -6 640 0 896 0 
C 1152 0 1446 -6 1670 -13 
C 1709 26 1709 160 1670 198 
C 1222 230 1146 250 1146 781 
L 1146 1670 
C 1146 1837 1222 1984 1299 2099 
C 1370 2202 1517 2413 1594 2413 
C 1651 2413 1709 2400 1760 2330 
C 1805 2266 1882 2182 1990 2182 
C 2144 2182 2291 2342 2291 2502 
C 2291 2624 2176 2810 1907 2810 
C 1606 2810 1344 2528 1197 2278 
C 1158 2208 1126 2259 1126 2291 
z
" transform="scale(0.015625)"/>
      <path id="LibertinusSerif-Regular-6c" d="M 608 781 
C 608 250 538 218 147 198 
C 109 160 109 26 147 -13 
C 371 -6 608 0 864 0 
C 1120 0 1363 -6 1574 -13 
C 1613 26 1613 160 1574 198 
C 1184 218 1114 250 1114 781 
L 1114 3731 
C 1114 4147 1139 4403 1139 4403 
C 1139 4448 1114 4467 1056 4467 
C 896 4403 416 4314 160 4294 
C 147 4243 160 4141 198 4102 
C 570 4077 608 4058 608 3578 
L 608 781 
z
" transform="scale(0.015625)"/>
      <path id="LibertinusSerif-Regular-79" d="M 1306 -1024 
C 1408 -845 1491 -666 1568 -474 
C 2080 762 2368 1421 2701 2138 
C 2829 2406 2918 2509 3219 2547 
C 3258 2586 3258 2720 3219 2758 
C 3091 2752 2944 2746 2765 2746 
C 2573 2746 2374 2752 2182 2758 
C 2144 2720 2144 2586 2182 2547 
C 2387 2528 2592 2490 2490 2259 
L 1856 794 
C 1811 691 1754 672 1702 800 
L 1133 2131 
C 1018 2400 986 2522 1344 2547 
C 1382 2586 1382 2720 1344 2758 
C 1107 2752 851 2746 621 2746 
C 403 2746 230 2752 102 2758 
C 64 2720 64 2586 102 2547 
C 358 2515 442 2458 608 2067 
L 1331 384 
C 1389 256 1485 -38 1421 -218 
C 1344 -429 1267 -608 1171 -806 
C 1101 -934 1011 -992 851 -992 
C 762 -992 736 -973 666 -973 
C 480 -973 384 -1165 384 -1248 
C 384 -1382 512 -1485 685 -1485 
C 819 -1485 1075 -1434 1306 -1024 
z
" transform="scale(0.015625)"/>
      <path id="LibertinusSerif-Regular-20" transform="scale(0.015625)"/>
      <path id="LibertinusSerif-Regular-53" d="M 2528 4038 
C 2157 4090 2170 4211 1542 4211 
C 896 4211 326 3782 326 3104 
C 326 2432 883 2125 1446 1907 
C 1830 1760 2304 1581 2304 954 
C 2304 435 2016 166 1504 166 
C 909 166 525 442 384 1075 
C 301 1101 237 1088 173 1056 
C 198 563 224 397 301 83 
C 704 83 883 -64 1453 -64 
C 1741 -64 2016 6 2240 147 
C 2611 378 2842 768 2842 1178 
C 2842 1856 2330 2157 1805 2355 
C 1421 2496 781 2739 781 3277 
C 781 3635 1107 3994 1485 3994 
C 2106 3994 2304 3597 2432 3174 
C 2502 3162 2586 3168 2643 3213 
C 2618 3520 2592 3699 2528 4038 
z
" transform="scale(0.015625)"/>
      <path id="LibertinusSerif-Regular-74" d="M 275 2746 
C 186 2746 160 2669 160 2618 
L 160 2534 
C 160 2502 166 2496 192 2496 
L 570 2496 
L 570 570 
C 570 115 768 -64 1062 -64 
C 1357 -64 1677 77 1926 358 
C 1914 422 1875 461 1811 467 
C 1645 339 1453 288 1286 288 
C 1114 288 1075 480 1075 877 
L 1075 2496 
L 1741 2496 
C 1805 2496 1894 2522 1894 2579 
L 1894 2707 
C 1894 2733 1875 2746 1843 2746 
L 1075 2746 
L 1075 2995 
C 1075 3411 1101 3667 1101 3667 
C 1101 3706 1082 3725 1050 3725 
C 1024 3725 966 3699 909 3667 
C 838 3629 774 3597 691 3578 
C 614 3552 550 3533 550 3488 
C 550 3411 570 3456 570 2746 
L 275 2746 
z
" transform="scale(0.015625)"/>
      <path id="LibertinusSerif-Regular-69" d="M 1158 781 
L 1158 2054 
C 1158 2374 1184 2784 1184 2784 
C 1184 2810 1152 2829 1101 2829 
C 922 2758 666 2701 224 2643 
C 211 2605 224 2502 237 2464 
C 589 2432 653 2394 653 2029 
L 653 781 
C 653 250 582 230 192 198 
C 154 160 154 26 192 -13 
C 403 -6 653 0 909 0 
C 1165 0 1408 -6 1619 -13 
C 1658 26 1658 160 1619 198 
C 1229 224 1158 250 1158 781 
z
M 576 3834 
C 576 3667 730 3501 883 3501 
C 1062 3501 1216 3674 1216 3808 
C 1216 3962 1082 4141 909 4141 
C 755 4141 576 3987 576 3834 
z
" transform="scale(0.015625)"/>
      <path id="LibertinusSerif-Regular-6e" d="M 1178 2291 
C 1139 2246 1101 2234 1101 2291 
C 1094 2464 1082 2714 1050 2778 
C 1037 2810 1024 2829 973 2829 
C 794 2758 627 2701 186 2643 
C 173 2605 186 2502 198 2464 
C 544 2432 614 2400 614 2029 
L 614 781 
C 614 256 550 230 166 198 
C 128 160 128 26 166 -13 
C 358 -6 614 0 870 0 
C 1126 0 1318 -6 1510 -13 
C 1549 26 1549 160 1510 198 
C 1184 230 1120 256 1120 781 
L 1120 1830 
C 1120 1965 1178 2042 1229 2099 
C 1472 2336 1760 2477 2010 2477 
C 2138 2477 2272 2394 2349 2246 
C 2413 2118 2426 1946 2426 1754 
L 2426 781 
C 2426 256 2362 230 2029 198 
C 1997 160 1997 26 2029 -13 
C 2221 -6 2426 0 2682 0 
C 2938 0 3168 -6 3360 -13 
C 3392 26 3392 160 3360 198 
C 3002 230 2931 256 2931 781 
L 2931 1734 
C 2931 2086 2906 2394 2758 2592 
C 2650 2733 2451 2810 2227 2810 
C 1914 2810 1555 2726 1178 2291 
z
" transform="scale(0.015625)"/>
      <path id="LibertinusSerif-Regular-67" d="M 2842 2477 
C 2963 2477 3078 2592 3078 2720 
C 3078 2854 2957 2957 2784 2957 
C 2618 2957 2310 2848 2144 2630 
C 2067 2682 1856 2810 1478 2810 
C 909 2810 384 2426 384 1837 
C 384 1491 538 1293 717 1120 
C 538 966 435 691 435 474 
C 435 243 563 64 730 -19 
C 384 -224 205 -518 205 -794 
C 205 -1350 730 -1523 1222 -1523 
C 2086 -1523 3021 -1107 3021 -416 
C 3021 -211 2925 -51 2739 102 
C 2490 307 2042 314 1805 314 
C 1690 314 1530 301 1376 282 
C 1280 275 1216 269 1184 269 
C 998 269 774 358 774 634 
C 774 762 813 896 890 1005 
C 1043 915 1222 870 1472 870 
C 2035 870 2554 1222 2554 1850 
C 2554 2150 2464 2323 2278 2515 
C 2323 2579 2451 2669 2534 2669 
C 2579 2669 2624 2650 2662 2592 
C 2688 2541 2771 2477 2842 2477 
z
M 845 -64 
C 915 -83 1018 -96 1101 -96 
C 1299 -96 1478 -77 1568 -77 
C 1888 -77 2157 -83 2342 -186 
C 2592 -326 2669 -416 2669 -582 
C 2669 -1043 1990 -1286 1414 -1286 
C 1184 -1286 646 -1101 646 -666 
C 646 -448 659 -288 845 -64 
z
M 2042 1786 
C 2042 1190 1741 1069 1504 1069 
C 966 1069 909 1523 909 1933 
C 909 2381 1069 2611 1421 2611 
C 1824 2611 2042 2317 2042 1786 
z
" transform="scale(0.015625)"/>
      <path id="LibertinusSerif-Regular-43" d="M 2285 -64 
C 2906 -64 3475 230 3910 800 
C 3878 858 3834 896 3763 896 
C 3309 397 2874 198 2278 198 
C 1414 198 819 1171 819 2106 
C 819 2656 966 3117 1197 3405 
C 1517 3795 1888 3974 2221 3974 
C 3104 3974 3456 3450 3622 2899 
C 3699 2874 3763 2893 3834 2931 
C 3802 3264 3757 3571 3693 3923 
C 3366 3955 3078 4211 2291 4211 
C 1747 4211 1293 4013 915 3667 
C 493 3277 237 2650 237 1984 
C 237 870 909 -64 2285 -64 
z
" transform="scale(0.015625)"/>
      <path id="LibertinusSerif-Regular-65" d="M 2470 595 
C 2234 352 2048 250 1677 250 
C 1446 250 1178 384 979 710 
C 851 922 774 1216 774 1587 
L 2477 1574 
C 2554 1574 2598 1613 2598 1683 
C 2598 2221 2406 2797 1517 2797 
C 960 2797 237 2266 237 1293 
C 237 934 326 589 538 346 
C 755 90 1056 -64 1517 -64 
C 2003 -64 2349 160 2605 493 
C 2586 557 2547 589 2470 595 
z
M 794 1805 
C 915 2528 1363 2586 1517 2586 
C 1760 2586 2048 2451 2048 1914 
C 2048 1856 2022 1824 1952 1824 
L 794 1805 
z
" transform="scale(0.015625)"/>
      <path id="LibertinusSerif-Regular-6b" d="M 550 781 
C 550 250 480 224 122 198 
C 83 160 83 26 122 -13 
C 333 -6 550 0 806 0 
C 1030 0 1242 -6 1389 -13 
C 1427 26 1427 160 1389 198 
C 1126 224 1056 250 1056 781 
L 1056 1338 
C 1178 1331 1267 1325 1331 1306 
C 1402 1254 1459 1197 1536 1094 
L 2003 467 
C 2189 218 2266 96 2272 19 
C 2272 0 2278 -13 2298 -13 
C 2426 -6 2566 0 2694 0 
C 2893 0 3091 -6 3219 -13 
C 3258 26 3258 160 3219 198 
C 3002 224 2842 250 2669 467 
L 1824 1530 
C 1798 1562 1779 1587 1779 1619 
C 1779 1645 1779 1658 1805 1683 
L 2368 2266 
C 2560 2470 2784 2522 3040 2547 
C 3078 2586 3078 2720 3040 2758 
C 2893 2752 2714 2746 2483 2746 
C 2240 2746 2003 2752 1856 2758 
C 1818 2720 1818 2586 1856 2547 
C 2214 2522 2061 2298 2003 2221 
C 1856 2035 1658 1818 1491 1696 
C 1350 1594 1178 1517 1056 1498 
L 1056 3731 
C 1056 4147 1082 4403 1082 4403 
C 1082 4448 1056 4467 998 4467 
C 838 4403 358 4314 102 4294 
C 90 4243 102 4141 141 4102 
C 160 4102 179 4102 198 4102 
C 480 4083 550 4083 550 3578 
L 550 781 
z
" transform="scale(0.015625)"/>
     </defs>
     <use xlink:href="#LibertinusSerif-Regular-45"/>
     <use xlink:href="#LibertinusSerif-Regular-61" x="55.699997"/>
     <use xlink:href="#LibertinusSerif-Regular-72" x="101.399994"/>
     <use xlink:href="#LibertinusSerif-Regular-6c" x="138.599991"/>
     <use xlink:href="#LibertinusSerif-Regular-79" x="164.999985"/>
     <use xlink:href="#LibertinusSerif-Regular-20" x="216.499969"/>
     <use xlink:href="#LibertinusSerif-Regular-53" x="241.499954"/>
     <use xlink:href="#LibertinusSerif-Regular-74" x="289.999939"/>
     <use xlink:href="#LibertinusSerif-Regular-6f" x="321.59993"/>
     <use xlink:href="#LibertinusSerif-Regular-70" x="371.999924"/>
     <use xlink:href="#LibertinusSerif-Regular-70" x="423.899918"/>
     <use xlink:href="#LibertinusSerif-Regular-69" x="475.799911"/>
     <use xlink:href="#LibertinusSerif-Regular-6e" x="502.899902"/>
     <use xlink:href="#LibertinusSerif-Regular-67" x="557.099899"/>
     <use xlink:href="#LibertinusSerif-Regular-20" x="607.099884"/>
     <use xlink:href="#LibertinusSerif-Regular-43" x="632.099869"/>
     <use xlink:href="#LibertinusSerif-Regular-68" x="696.69986"/>
     <use xlink:href="#LibertinusSerif-Regular-65" x="750.499847"/>
     <use xlink:href="#LibertinusSerif-Regular-63" x="795.199844"/>
     <use xlink:href="#LibertinusSerif-Regular-6b" x="837.999832"/>
     <use xlink:href="#LibertinusSerif-Regular-70" x="889.199829"/>
     <use xlink:href="#LibertinusSerif-Regular-6f" x="941.099823"/>
     <use xlink:href="#LibertinusSerif-Regular-69" x="991.499817"/>
     <use xlink:href="#LibertinusSerif-Regular-6e" x="1018.599808"/>
     <use xlink:href="#LibertinusSerif-Regular-74" x="1072.799805"/>
    </g>
   </g>
   <g id="legend_1">
    <g id="patch_7">
     <path d="M 280.291406 54.936406 
L 377.011406 54.936406 
Q 379.611406 54.936406 379.611406 52.336406 
L 379.611406 16.3 
Q 379.611406 13.7 377.011406 13.7 
L 280.291406 13.7 
Q 277.691406 13.7 277.691406 16.3 
L 277.691406 52.336406 
Q 277.691406 54.936406 280.291406 54.936406 
z
" style="fill: #ffffff; opacity: 0.8; stroke: #cccccc; stroke-linejoin: miter"/>
    </g>
    <g id="line2d_17">
     <path d="M 282.891406 23.45 
L 295.891406 23.45 
L 308.891406 23.45 
" style="fill: none; stroke: #1f77b4; stroke-width: 1.5; stroke-linecap: square"/>
    </g>
    <g id="text_17">
     <!-- Training -->
     <g transform="translate(319.291406 28) scale(0.13 -0.13)">
      <defs>
       <path id="LibertinusSerif-Regular-54" d="M 2240 781 
L 2240 3226 
C 2240 3635 2304 3878 2534 3878 
L 2675 3878 
C 3155 3878 3456 3712 3565 3219 
C 3635 3219 3725 3226 3782 3251 
C 3738 3546 3706 3872 3699 4160 
C 3699 4166 3686 4179 3680 4179 
C 3462 4160 2752 4128 2246 4128 
L 1696 4128 
C 1203 4128 448 4160 205 4179 
C 192 4179 179 4166 179 4160 
C 154 3872 90 3539 19 3232 
C 83 3206 160 3200 237 3200 
C 365 3712 659 3878 1082 3878 
L 1395 3878 
C 1632 3878 1696 3635 1696 3245 
L 1696 781 
C 1696 250 1587 218 1075 198 
C 1037 160 1037 26 1075 -13 
C 1389 -6 1715 0 1971 0 
C 2214 0 2541 -6 2861 -13 
C 2899 26 2899 160 2861 198 
C 2349 218 2240 250 2240 781 
z
" transform="scale(0.015625)"/>
      </defs>
      <use xlink:href="#LibertinusSerif-Regular-54"/>
      <use xlink:href="#LibertinusSerif-Regular-72" x="59.699997"/>
      <use xlink:href="#LibertinusSerif-Regular-61" x="96.899994"/>
      <use xlink:href="#LibertinusSerif-Regular-69" x="142.599991"/>
      <use xlink:href="#LibertinusSerif-Regular-6e" x="169.699982"/>
      <use xlink:href="#LibertinusSerif-Regular-69" x="223.899979"/>
      <use xlink:href="#LibertinusSerif-Regular-6e" x="250.999969"/>
      <use xlink:href="#LibertinusSerif-Regular-67" x="305.199966"/>
     </g>
    </g>
    <g id="line2d_18">
     <path d="M 282.891406 42.143594 
L 295.891406 42.143594 
L 308.891406 42.143594 
" style="fill: none; stroke: #ff7f0e; stroke-width: 1.5; stroke-linecap: square"/>
    </g>
    <g id="text_18">
     <!-- Validation -->
     <g transform="translate(319.291406 46.693594) scale(0.13 -0.13)">
      <defs>
       <path id="LibertinusSerif-Regular-56" d="M 2867 3930 
C 3341 3898 3341 3725 3206 3379 
L 2195 813 
L 2170 813 
L 1146 3418 
C 998 3802 1037 3885 1472 3930 
C 1510 3968 1510 4102 1472 4141 
C 1216 4134 928 4128 698 4128 
C 467 4128 243 4134 32 4141 
C -6 4102 0 3968 38 3930 
C 390 3898 442 3789 614 3347 
L 1875 70 
C 1914 -32 1958 -77 2022 -77 
C 2093 -77 2138 -19 2176 70 
L 3501 3334 
C 3622 3635 3725 3885 4128 3930 
C 4166 3968 4166 4102 4128 4141 
C 3936 4134 3712 4128 3565 4128 
C 3418 4128 3130 4134 2867 4141 
C 2829 4102 2829 3968 2867 3930 
z
" transform="scale(0.015625)"/>
       <path id="LibertinusSerif-Regular-64" d="M 2138 320 
C 2170 346 2227 358 2234 314 
C 2253 160 2304 -64 2304 -64 
C 2355 -83 2387 -77 2426 -64 
C 2566 51 2790 147 3181 192 
C 3219 230 3219 326 3181 365 
C 2771 397 2714 518 2714 832 
L 2714 3731 
C 2714 4147 2739 4403 2739 4403 
C 2739 4448 2714 4467 2656 4467 
C 2496 4403 2016 4314 1760 4294 
C 1747 4243 1760 4141 1798 4102 
C 1818 4102 1837 4102 1856 4102 
C 2138 4083 2208 4083 2208 3578 
L 2208 2758 
C 2208 2714 2195 2701 2150 2701 
C 2125 2701 1862 2810 1651 2810 
C 1229 2810 947 2669 691 2426 
C 416 2150 250 1773 250 1299 
C 250 512 646 -64 1338 -64 
C 1587 -64 1824 64 2138 320 
z
M 2208 794 
C 2208 672 2195 621 2106 544 
C 1869 339 1664 237 1504 237 
C 1158 237 800 614 800 1414 
C 800 1875 890 2131 986 2266 
C 1184 2566 1453 2586 1581 2586 
C 1811 2586 1971 2502 2099 2355 
C 2189 2253 2208 2208 2208 2010 
L 2208 794 
z
" transform="scale(0.015625)"/>
      </defs>
      <use xlink:href="#LibertinusSerif-Regular-56"/>
      <use xlink:href="#LibertinusSerif-Regular-61" x="65.199997"/>
      <use xlink:href="#LibertinusSerif-Regular-6c" x="110.899994"/>
      <use xlink:href="#LibertinusSerif-Regular-69" x="137.299988"/>
      <use xlink:href="#LibertinusSerif-Regular-64" x="164.399979"/>
      <use xlink:href="#LibertinusSerif-Regular-61" x="214.999969"/>
      <use xlink:href="#LibertinusSerif-Regular-74" x="260.699966"/>
      <use xlink:href="#LibertinusSerif-Regular-69" x="292.299957"/>
      <use xlink:href="#LibertinusSerif-Regular-6f" x="319.399948"/>
      <use xlink:href="#LibertinusSerif-Regular-6e" x="369.799942"/>
     </g>
    </g>
   </g>
  </g>
 </g>
 <defs>
  <clipPath id="padf5b2334b">
   <rect x="51.311406" y="7.2" width="334.8" height="221.76"/>
  </clipPath>
 </defs>
</svg>
